solid OpenSCAD_Model
  facet normal -1 0 0
    outer loop
      vertex -25 -16 0
      vertex -25 -5 3
      vertex -25 -5 0
    endloop
  endfacet
  facet normal -1 -0 0
    outer loop
      vertex -25 -5 3
      vertex -25 -16 0
      vertex -25 -16 3
    endloop
  endfacet
  facet normal -1 0 0
    outer loop
      vertex -25 5 0
      vertex -25 16 3
      vertex -25 16 0
    endloop
  endfacet
  facet normal -1 -0 0
    outer loop
      vertex -25 16 3
      vertex -25 5 0
      vertex -25 5 3
    endloop
  endfacet
  facet normal 0 0 1
    outer loop
      vertex -27.647 -2.41481 3
      vertex -27.5 -4.93417 3
      vertex -27 -2.5 3
    endloop
  endfacet
  facet normal 0 0 1
    outer loop
      vertex -28.2941 -4.82963 3
      vertex -27.647 -2.41481 3
      vertex -28.25 -2.16506 3
    endloop
  endfacet
  facet normal 0 0 1
    outer loop
      vertex -27.647 -2.41481 3
      vertex -28.2941 -4.82963 3
      vertex -27.5 -4.93417 3
    endloop
  endfacet
  facet normal 0 0 1
    outer loop
      vertex -29.5 -4.33013 3
      vertex -28.25 -2.16506 3
      vertex -28.7678 -1.76777 3
    endloop
  endfacet
  facet normal 0 0 1
    outer loop
      vertex -30.5355 -3.53553 3
      vertex -28.7678 -1.76777 3
      vertex -29.1651 -1.25 3
    endloop
  endfacet
  facet normal 0 0 1
    outer loop
      vertex -31.3301 -2.5 3
      vertex -29.1651 -1.25 3
      vertex -29.4148 -0.647047 3
    endloop
  endfacet
  facet normal 0 0 1
    outer loop
      vertex -28.25 -2.16506 3
      vertex -29.5 -4.33013 3
      vertex -28.2941 -4.82963 3
    endloop
  endfacet
  facet normal 0 0 1
    outer loop
      vertex -31.8296 -1.2941 3
      vertex -29.4148 -0.647047 3
      vertex -29.5 0 3
    endloop
  endfacet
  facet normal -0 0 1
    outer loop
      vertex -25.2322 -1.76777 3
      vertex -25 -5 3
      vertex -24.8349 -1.25 3
    endloop
  endfacet
  facet normal -0 0 1
    outer loop
      vertex -25.75 -2.16506 3
      vertex -25 -5 3
      vertex -25.2322 -1.76777 3
    endloop
  endfacet
  facet normal -0 0 1
    outer loop
      vertex -26.353 -2.41481 3
      vertex -25 -5 3
      vertex -25.75 -2.16506 3
    endloop
  endfacet
  facet normal 0 0 1
    outer loop
      vertex -27.5 -4.93417 3
      vertex -26.353 -2.41481 3
      vertex -27 -2.5 3
    endloop
  endfacet
  facet normal 0 0 1
    outer loop
      vertex -26.353 -2.41481 3
      vertex -27.5 -4.93417 3
      vertex -25 -5 3
    endloop
  endfacet
  facet normal 0 0 1
    outer loop
      vertex -25 -5 3
      vertex -27.5 -4.93417 3
      vertex -27.5 -5 3
    endloop
  endfacet
  facet normal -0 0 1
    outer loop
      vertex 23 14 3
      vertex 25 5 3
      vertex 25 16 3
    endloop
  endfacet
  facet normal 0 -0 1
    outer loop
      vertex 24.5852 0.647047 3
      vertex 25 5 3
      vertex 23 14 3
    endloop
  endfacet
  facet normal 0 0 1
    outer loop
      vertex 25 5 3
      vertex 24.5852 0.647047 3
      vertex 24.8349 1.25 3
    endloop
  endfacet
  facet normal 0 0 1
    outer loop
      vertex 24.5852 0.647047 3
      vertex 23 14 3
      vertex 24.5 0 3
    endloop
  endfacet
  facet normal 0 0 1
    outer loop
      vertex 25 16 3
      vertex -23 14 3
      vertex 23 14 3
    endloop
  endfacet
  facet normal 0 0 1
    outer loop
      vertex -23 14 3
      vertex -24.5 0 3
      vertex -23 -14 3
    endloop
  endfacet
  facet normal 0 0 1
    outer loop
      vertex -23 14 3
      vertex -24.5852 0.647047 3
      vertex -24.5 0 3
    endloop
  endfacet
  facet normal -0 0 1
    outer loop
      vertex -25 5 3
      vertex -24.5852 0.647047 3
      vertex -23 14 3
    endloop
  endfacet
  facet normal -0 0 1
    outer loop
      vertex -25 16 3
      vertex -23 14 3
      vertex 25 16 3
    endloop
  endfacet
  facet normal 0 0 1
    outer loop
      vertex -25 5 3
      vertex -23 14 3
      vertex -25 16 3
    endloop
  endfacet
  facet normal 0 0 1
    outer loop
      vertex -24.5852 0.647047 3
      vertex -25 5 3
      vertex -24.8349 1.25 3
    endloop
  endfacet
  facet normal 0 0 1
    outer loop
      vertex -25 5 3
      vertex -25.2322 1.76777 3
      vertex -24.8349 1.25 3
    endloop
  endfacet
  facet normal 0 0 1
    outer loop
      vertex -25 5 3
      vertex -25.75 2.16506 3
      vertex -25.2322 1.76777 3
    endloop
  endfacet
  facet normal 0 0 1
    outer loop
      vertex -25 5 3
      vertex -26.353 2.41481 3
      vertex -25.75 2.16506 3
    endloop
  endfacet
  facet normal -0 0 1
    outer loop
      vertex -27.5 4.93417 3
      vertex -26.353 2.41481 3
      vertex -25 5 3
    endloop
  endfacet
  facet normal 0 0 1
    outer loop
      vertex -27.5 4.93417 3
      vertex -25 5 3
      vertex -27.5 5 3
    endloop
  endfacet
  facet normal 0 0 1
    outer loop
      vertex -26.353 2.41481 3
      vertex -27.5 4.93417 3
      vertex -27 2.5 3
    endloop
  endfacet
  facet normal 0 0 1
    outer loop
      vertex -27.5 4.93417 3
      vertex -27.647 2.41481 3
      vertex -27 2.5 3
    endloop
  endfacet
  facet normal -0 0 1
    outer loop
      vertex -28.2941 4.82963 3
      vertex -27.647 2.41481 3
      vertex -27.5 4.93417 3
    endloop
  endfacet
  facet normal 0 0 1
    outer loop
      vertex -27.647 2.41481 3
      vertex -28.2941 4.82963 3
      vertex -28.25 2.16506 3
    endloop
  endfacet
  facet normal -0 0 1
    outer loop
      vertex -29.5 4.33013 3
      vertex -28.25 2.16506 3
      vertex -28.2941 4.82963 3
    endloop
  endfacet
  facet normal 0 0 1
    outer loop
      vertex -28.25 2.16506 3
      vertex -29.5 4.33013 3
      vertex -28.7678 1.76777 3
    endloop
  endfacet
  facet normal -0 0 1
    outer loop
      vertex -30.5355 3.53553 3
      vertex -28.7678 1.76777 3
      vertex -29.5 4.33013 3
    endloop
  endfacet
  facet normal 0 0 1
    outer loop
      vertex -28.7678 1.76777 3
      vertex -30.5355 3.53553 3
      vertex -29.1651 1.25 3
    endloop
  endfacet
  facet normal -0 0 1
    outer loop
      vertex -31.3301 2.5 3
      vertex -29.1651 1.25 3
      vertex -30.5355 3.53553 3
    endloop
  endfacet
  facet normal 0 0 1
    outer loop
      vertex -29.1651 1.25 3
      vertex -31.3301 2.5 3
      vertex -29.4148 0.647047 3
    endloop
  endfacet
  facet normal -0 0 1
    outer loop
      vertex -31.8296 1.2941 3
      vertex -29.4148 0.647047 3
      vertex -31.3301 2.5 3
    endloop
  endfacet
  facet normal 0 0 1
    outer loop
      vertex -28.7678 -1.76777 3
      vertex -30.5355 -3.53553 3
      vertex -29.5 -4.33013 3
    endloop
  endfacet
  facet normal 0 0 1
    outer loop
      vertex -29.4148 0.647047 3
      vertex -31.8296 1.2941 3
      vertex -29.5 0 3
    endloop
  endfacet
  facet normal 0 0 1
    outer loop
      vertex -29.1651 -1.25 3
      vertex -31.3301 -2.5 3
      vertex -30.5355 -3.53553 3
    endloop
  endfacet
  facet normal 0 0 1
    outer loop
      vertex -32 0 3
      vertex -29.5 0 3
      vertex -31.8296 1.2941 3
    endloop
  endfacet
  facet normal 0 0 1
    outer loop
      vertex -29.4148 -0.647047 3
      vertex -31.8296 -1.2941 3
      vertex -31.3301 -2.5 3
    endloop
  endfacet
  facet normal 0 0 1
    outer loop
      vertex -29.5 0 3
      vertex -32 0 3
      vertex -31.8296 -1.2941 3
    endloop
  endfacet
  facet normal -0 0 1
    outer loop
      vertex 25 5 3
      vertex 27.5 4.93417 3
      vertex 27.5 5 3
    endloop
  endfacet
  facet normal 0 0 1
    outer loop
      vertex 27.5 4.93417 3
      vertex 26.353 2.41481 3
      vertex 27 2.5 3
    endloop
  endfacet
  facet normal 0 0 1
    outer loop
      vertex 27.5 4.93417 3
      vertex 25 5 3
      vertex 26.353 2.41481 3
    endloop
  endfacet
  facet normal 0 0 1
    outer loop
      vertex 26.353 2.41481 3
      vertex 25 5 3
      vertex 25.75 2.16506 3
    endloop
  endfacet
  facet normal 0 0 1
    outer loop
      vertex 25.75 2.16506 3
      vertex 25 5 3
      vertex 25.2322 1.76777 3
    endloop
  endfacet
  facet normal 0 0 1
    outer loop
      vertex 25.2322 1.76777 3
      vertex 25 5 3
      vertex 24.8349 1.25 3
    endloop
  endfacet
  facet normal 0 0 1
    outer loop
      vertex 31.8296 1.2941 3
      vertex 29.4148 0.647047 3
      vertex 29.5 0 3
    endloop
  endfacet
  facet normal 0 0 1
    outer loop
      vertex 30.5355 3.53553 3
      vertex 29.1651 1.25 3
      vertex 29.4148 0.647047 3
    endloop
  endfacet
  facet normal 0 0 1
    outer loop
      vertex 30.5355 3.53553 3
      vertex 28.7678 1.76777 3
      vertex 29.1651 1.25 3
    endloop
  endfacet
  facet normal 0 0 1
    outer loop
      vertex 28.25 2.16506 3
      vertex 29.5 4.33013 3
      vertex 28.2941 4.82963 3
    endloop
  endfacet
  facet normal 0 0 1
    outer loop
      vertex 29.5 4.33013 3
      vertex 28.25 2.16506 3
      vertex 28.7678 1.76777 3
    endloop
  endfacet
  facet normal 0 0 1
    outer loop
      vertex 28.2941 4.82963 3
      vertex 27.647 2.41481 3
      vertex 28.25 2.16506 3
    endloop
  endfacet
  facet normal 0 0 1
    outer loop
      vertex 27.5 4.93417 3
      vertex 27.647 2.41481 3
      vertex 28.2941 4.82963 3
    endloop
  endfacet
  facet normal 0 0 1
    outer loop
      vertex 27.647 2.41481 3
      vertex 27.5 4.93417 3
      vertex 27 2.5 3
    endloop
  endfacet
  facet normal 0 0 1
    outer loop
      vertex 29.5 0 3
      vertex 32 0 3
      vertex 31.8296 1.2941 3
    endloop
  endfacet
  facet normal 0 0 1
    outer loop
      vertex 29.4148 0.647047 3
      vertex 31.8296 1.2941 3
      vertex 31.3301 2.5 3
    endloop
  endfacet
  facet normal 0 0 1
    outer loop
      vertex 32 0 3
      vertex 29.5 0 3
      vertex 31.8296 -1.2941 3
    endloop
  endfacet
  facet normal 0 0 1
    outer loop
      vertex 29.4148 0.647047 3
      vertex 31.3301 2.5 3
      vertex 30.5355 3.53553 3
    endloop
  endfacet
  facet normal -0 0 1
    outer loop
      vertex 29.4148 -0.647047 3
      vertex 31.8296 -1.2941 3
      vertex 29.5 0 3
    endloop
  endfacet
  facet normal 0 0 1
    outer loop
      vertex 28.7678 1.76777 3
      vertex 30.5355 3.53553 3
      vertex 29.5 4.33013 3
    endloop
  endfacet
  facet normal 0 0 1
    outer loop
      vertex 31.8296 -1.2941 3
      vertex 29.4148 -0.647047 3
      vertex 31.3301 -2.5 3
    endloop
  endfacet
  facet normal -0 0 1
    outer loop
      vertex 29.1651 -1.25 3
      vertex 31.3301 -2.5 3
      vertex 29.4148 -0.647047 3
    endloop
  endfacet
  facet normal 0 0 1
    outer loop
      vertex 31.3301 -2.5 3
      vertex 29.1651 -1.25 3
      vertex 30.5355 -3.53553 3
    endloop
  endfacet
  facet normal -0 0 1
    outer loop
      vertex 28.7678 -1.76777 3
      vertex 30.5355 -3.53553 3
      vertex 29.1651 -1.25 3
    endloop
  endfacet
  facet normal 0 0 1
    outer loop
      vertex 30.5355 -3.53553 3
      vertex 28.7678 -1.76777 3
      vertex 29.5 -4.33013 3
    endloop
  endfacet
  facet normal -0 0 1
    outer loop
      vertex 28.25 -2.16506 3
      vertex 29.5 -4.33013 3
      vertex 28.7678 -1.76777 3
    endloop
  endfacet
  facet normal 0 0 1
    outer loop
      vertex 29.5 -4.33013 3
      vertex 28.25 -2.16506 3
      vertex 28.2941 -4.82963 3
    endloop
  endfacet
  facet normal -0 0 1
    outer loop
      vertex 27.647 -2.41481 3
      vertex 28.2941 -4.82963 3
      vertex 28.25 -2.16506 3
    endloop
  endfacet
  facet normal 0 0 1
    outer loop
      vertex 27.647 -2.41481 3
      vertex 27.5 -4.93417 3
      vertex 28.2941 -4.82963 3
    endloop
  endfacet
  facet normal -0 0 1
    outer loop
      vertex 27 -2.5 3
      vertex 27.5 -4.93417 3
      vertex 27.647 -2.41481 3
    endloop
  endfacet
  facet normal 0 0 1
    outer loop
      vertex 26.353 -2.41481 3
      vertex 27.5 -4.93417 3
      vertex 27 -2.5 3
    endloop
  endfacet
  facet normal 0 0 1
    outer loop
      vertex 25 -5 3
      vertex 27.5 -4.93417 3
      vertex 26.353 -2.41481 3
    endloop
  endfacet
  facet normal 0 0 1
    outer loop
      vertex 25 -5 3
      vertex 26.353 -2.41481 3
      vertex 25.75 -2.16506 3
    endloop
  endfacet
  facet normal 0 0 1
    outer loop
      vertex 25 -5 3
      vertex 25.75 -2.16506 3
      vertex 25.2322 -1.76777 3
    endloop
  endfacet
  facet normal 0 0 1
    outer loop
      vertex 27.5 -4.93417 3
      vertex 25 -5 3
      vertex 27.5 -5 3
    endloop
  endfacet
  facet normal 0 0 1
    outer loop
      vertex 24.8349 -1.25 3
      vertex 25 -5 3
      vertex 25.2322 -1.76777 3
    endloop
  endfacet
  facet normal 0 0 1
    outer loop
      vertex 24.5852 -0.647047 3
      vertex 25 -5 3
      vertex 24.8349 -1.25 3
    endloop
  endfacet
  facet normal 0 0 1
    outer loop
      vertex 25 -5 3
      vertex 24.5852 -0.647047 3
      vertex 23 -14 3
    endloop
  endfacet
  facet normal 0 0 1
    outer loop
      vertex 23 -14 3
      vertex 24.5852 -0.647047 3
      vertex 24.5 0 3
    endloop
  endfacet
  facet normal 0 0 1
    outer loop
      vertex 23 -14 3
      vertex 24.5 0 3
      vertex 23 14 3
    endloop
  endfacet
  facet normal 0 0 1
    outer loop
      vertex 25 -5 3
      vertex 23 -14 3
      vertex 25 -16 3
    endloop
  endfacet
  facet normal -0 0 1
    outer loop
      vertex -23 -14 3
      vertex 25 -16 3
      vertex 23 -14 3
    endloop
  endfacet
  facet normal -0 0 1
    outer loop
      vertex -24.5852 -0.647047 3
      vertex -23 -14 3
      vertex -24.5 0 3
    endloop
  endfacet
  facet normal 0 0 1
    outer loop
      vertex -25 -5 3
      vertex -24.5852 -0.647047 3
      vertex -24.8349 -1.25 3
    endloop
  endfacet
  facet normal 0 0 1
    outer loop
      vertex -24.5852 -0.647047 3
      vertex -25 -5 3
      vertex -23 -14 3
    endloop
  endfacet
  facet normal 0 0 1
    outer loop
      vertex -23 -14 3
      vertex -25 -16 3
      vertex 25 -16 3
    endloop
  endfacet
  facet normal 0 0 1
    outer loop
      vertex -25 -16 3
      vertex -23 -14 3
      vertex -25 -5 3
    endloop
  endfacet
  facet normal 1 -0 0
    outer loop
      vertex 25 -16 3
      vertex 25 -5 0
      vertex 25 -5 3
    endloop
  endfacet
  facet normal 1 0 0
    outer loop
      vertex 25 -5 0
      vertex 25 -16 3
      vertex 25 -16 0
    endloop
  endfacet
  facet normal 1 -0 0
    outer loop
      vertex 25 5 3
      vertex 25 16 0
      vertex 25 16 3
    endloop
  endfacet
  facet normal 1 0 0
    outer loop
      vertex 25 16 0
      vertex 25 5 3
      vertex 25 5 0
    endloop
  endfacet
  facet normal 0 0 -1
    outer loop
      vertex -27.647 2.41481 0
      vertex -27.5 4.93417 0
      vertex -27 2.5 0
    endloop
  endfacet
  facet normal 0 0 -1
    outer loop
      vertex -28.2941 4.82963 0
      vertex -27.647 2.41481 0
      vertex -28.25 2.16506 0
    endloop
  endfacet
  facet normal 0 0 -1
    outer loop
      vertex -27.647 2.41481 0
      vertex -28.2941 4.82963 0
      vertex -27.5 4.93417 0
    endloop
  endfacet
  facet normal 0 0 -1
    outer loop
      vertex -29.5 4.33013 0
      vertex -28.25 2.16506 0
      vertex -28.7678 1.76777 0
    endloop
  endfacet
  facet normal 0 0 -1
    outer loop
      vertex -30.5355 3.53553 0
      vertex -28.7678 1.76777 0
      vertex -29.1651 1.25 0
    endloop
  endfacet
  facet normal 0 0 -1
    outer loop
      vertex -31.3301 2.5 0
      vertex -29.1651 1.25 0
      vertex -29.4148 0.647047 0
    endloop
  endfacet
  facet normal 0 0 -1
    outer loop
      vertex -28.25 2.16506 0
      vertex -29.5 4.33013 0
      vertex -28.2941 4.82963 0
    endloop
  endfacet
  facet normal 0 0 -1
    outer loop
      vertex -31.8296 1.2941 0
      vertex -29.4148 0.647047 0
      vertex -29.5 0 0
    endloop
  endfacet
  facet normal 0 0 -1
    outer loop
      vertex -25.2322 1.76777 0
      vertex -25 5 0
      vertex -24.8349 1.25 0
    endloop
  endfacet
  facet normal 0 0 -1
    outer loop
      vertex -25.75 2.16506 0
      vertex -25 5 0
      vertex -25.2322 1.76777 0
    endloop
  endfacet
  facet normal 0 0 -1
    outer loop
      vertex -26.353 2.41481 0
      vertex -25 5 0
      vertex -25.75 2.16506 0
    endloop
  endfacet
  facet normal 0 0 -1
    outer loop
      vertex -27.5 4.93417 0
      vertex -26.353 2.41481 0
      vertex -27 2.5 0
    endloop
  endfacet
  facet normal 0 0 -1
    outer loop
      vertex -26.353 2.41481 0
      vertex -27.5 4.93417 0
      vertex -25 5 0
    endloop
  endfacet
  facet normal -0 0 -1
    outer loop
      vertex -25 5 0
      vertex -27.5 4.93417 0
      vertex -27.5 5 0
    endloop
  endfacet
  facet normal 0 0 -1
    outer loop
      vertex 23 -14 0
      vertex 25 -5 0
      vertex 25 -16 0
    endloop
  endfacet
  facet normal 0 -0 -1
    outer loop
      vertex 24.5852 -0.647047 0
      vertex 25 -5 0
      vertex 23 -14 0
    endloop
  endfacet
  facet normal 0 0 -1
    outer loop
      vertex 25 -5 0
      vertex 24.5852 -0.647047 0
      vertex 24.8349 -1.25 0
    endloop
  endfacet
  facet normal -0 0 -1
    outer loop
      vertex 24.5852 -0.647047 0
      vertex 23 -14 0
      vertex 24.5 0 0
    endloop
  endfacet
  facet normal 0 0 -1
    outer loop
      vertex 25 -16 0
      vertex -23 -14 0
      vertex 23 -14 0
    endloop
  endfacet
  facet normal 0 0 -1
    outer loop
      vertex -23 -14 0
      vertex -24.5 0 0
      vertex -23 14 0
    endloop
  endfacet
  facet normal 0 0 -1
    outer loop
      vertex -23 -14 0
      vertex -24.5852 -0.647047 0
      vertex -24.5 0 0
    endloop
  endfacet
  facet normal 0 0 -1
    outer loop
      vertex -25 -5 0
      vertex -24.5852 -0.647047 0
      vertex -23 -14 0
    endloop
  endfacet
  facet normal 0 0 -1
    outer loop
      vertex -25 -16 0
      vertex -23 -14 0
      vertex 25 -16 0
    endloop
  endfacet
  facet normal 0 0 -1
    outer loop
      vertex -25 -5 0
      vertex -23 -14 0
      vertex -25 -16 0
    endloop
  endfacet
  facet normal 0 0 -1
    outer loop
      vertex -24.5852 -0.647047 0
      vertex -25 -5 0
      vertex -24.8349 -1.25 0
    endloop
  endfacet
  facet normal 0 0 -1
    outer loop
      vertex -25 -5 0
      vertex -25.2322 -1.76777 0
      vertex -24.8349 -1.25 0
    endloop
  endfacet
  facet normal 0 0 -1
    outer loop
      vertex -25 -5 0
      vertex -25.75 -2.16506 0
      vertex -25.2322 -1.76777 0
    endloop
  endfacet
  facet normal 0 0 -1
    outer loop
      vertex -25 -5 0
      vertex -26.353 -2.41481 0
      vertex -25.75 -2.16506 0
    endloop
  endfacet
  facet normal 0 0 -1
    outer loop
      vertex -27.5 -4.93417 0
      vertex -26.353 -2.41481 0
      vertex -25 -5 0
    endloop
  endfacet
  facet normal 0 0 -1
    outer loop
      vertex -27.5 -4.93417 0
      vertex -25 -5 0
      vertex -27.5 -5 0
    endloop
  endfacet
  facet normal 0 0 -1
    outer loop
      vertex -26.353 -2.41481 0
      vertex -27.5 -4.93417 0
      vertex -27 -2.5 0
    endloop
  endfacet
  facet normal 0 0 -1
    outer loop
      vertex -27.5 -4.93417 0
      vertex -27.647 -2.41481 0
      vertex -27 -2.5 0
    endloop
  endfacet
  facet normal 0 0 -1
    outer loop
      vertex -28.2941 -4.82963 0
      vertex -27.647 -2.41481 0
      vertex -27.5 -4.93417 0
    endloop
  endfacet
  facet normal -0 0 -1
    outer loop
      vertex -27.647 -2.41481 0
      vertex -28.2941 -4.82963 0
      vertex -28.25 -2.16506 0
    endloop
  endfacet
  facet normal 0 0 -1
    outer loop
      vertex -29.5 -4.33013 0
      vertex -28.25 -2.16506 0
      vertex -28.2941 -4.82963 0
    endloop
  endfacet
  facet normal -0 0 -1
    outer loop
      vertex -28.25 -2.16506 0
      vertex -29.5 -4.33013 0
      vertex -28.7678 -1.76777 0
    endloop
  endfacet
  facet normal 0 0 -1
    outer loop
      vertex -30.5355 -3.53553 0
      vertex -28.7678 -1.76777 0
      vertex -29.5 -4.33013 0
    endloop
  endfacet
  facet normal -0 0 -1
    outer loop
      vertex -28.7678 -1.76777 0
      vertex -30.5355 -3.53553 0
      vertex -29.1651 -1.25 0
    endloop
  endfacet
  facet normal 0 0 -1
    outer loop
      vertex -31.3301 -2.5 0
      vertex -29.1651 -1.25 0
      vertex -30.5355 -3.53553 0
    endloop
  endfacet
  facet normal -0 0 -1
    outer loop
      vertex -29.1651 -1.25 0
      vertex -31.3301 -2.5 0
      vertex -29.4148 -0.647047 0
    endloop
  endfacet
  facet normal 0 0 -1
    outer loop
      vertex -31.8296 -1.2941 0
      vertex -29.4148 -0.647047 0
      vertex -31.3301 -2.5 0
    endloop
  endfacet
  facet normal 0 0 -1
    outer loop
      vertex -28.7678 1.76777 0
      vertex -30.5355 3.53553 0
      vertex -29.5 4.33013 0
    endloop
  endfacet
  facet normal -0 0 -1
    outer loop
      vertex -29.4148 -0.647047 0
      vertex -31.8296 -1.2941 0
      vertex -29.5 0 0
    endloop
  endfacet
  facet normal 0 0 -1
    outer loop
      vertex -29.1651 1.25 0
      vertex -31.3301 2.5 0
      vertex -30.5355 3.53553 0
    endloop
  endfacet
  facet normal 0 0 -1
    outer loop
      vertex -32 0 0
      vertex -29.5 0 0
      vertex -31.8296 -1.2941 0
    endloop
  endfacet
  facet normal 0 0 -1
    outer loop
      vertex -29.4148 0.647047 0
      vertex -31.8296 1.2941 0
      vertex -31.3301 2.5 0
    endloop
  endfacet
  facet normal 0 0 -1
    outer loop
      vertex -29.5 0 0
      vertex -32 0 0
      vertex -31.8296 1.2941 0
    endloop
  endfacet
  facet normal 0 0 -1
    outer loop
      vertex 25 -5 0
      vertex 27.5 -4.93417 0
      vertex 27.5 -5 0
    endloop
  endfacet
  facet normal 0 0 -1
    outer loop
      vertex 27.5 -4.93417 0
      vertex 26.353 -2.41481 0
      vertex 27 -2.5 0
    endloop
  endfacet
  facet normal -0 0 -1
    outer loop
      vertex 27.5 -4.93417 0
      vertex 25 -5 0
      vertex 26.353 -2.41481 0
    endloop
  endfacet
  facet normal -0 0 -1
    outer loop
      vertex 26.353 -2.41481 0
      vertex 25 -5 0
      vertex 25.75 -2.16506 0
    endloop
  endfacet
  facet normal -0 0 -1
    outer loop
      vertex 25.75 -2.16506 0
      vertex 25 -5 0
      vertex 25.2322 -1.76777 0
    endloop
  endfacet
  facet normal -0 0 -1
    outer loop
      vertex 25.2322 -1.76777 0
      vertex 25 -5 0
      vertex 24.8349 -1.25 0
    endloop
  endfacet
  facet normal 0 0 -1
    outer loop
      vertex 31.8296 -1.2941 0
      vertex 29.4148 -0.647047 0
      vertex 29.5 0 0
    endloop
  endfacet
  facet normal 0 0 -1
    outer loop
      vertex 30.5355 -3.53553 0
      vertex 29.1651 -1.25 0
      vertex 29.4148 -0.647047 0
    endloop
  endfacet
  facet normal 0 0 -1
    outer loop
      vertex 30.5355 -3.53553 0
      vertex 28.7678 -1.76777 0
      vertex 29.1651 -1.25 0
    endloop
  endfacet
  facet normal 0 0 -1
    outer loop
      vertex 28.25 -2.16506 0
      vertex 29.5 -4.33013 0
      vertex 28.2941 -4.82963 0
    endloop
  endfacet
  facet normal 0 0 -1
    outer loop
      vertex 29.5 -4.33013 0
      vertex 28.25 -2.16506 0
      vertex 28.7678 -1.76777 0
    endloop
  endfacet
  facet normal 0 0 -1
    outer loop
      vertex 28.2941 -4.82963 0
      vertex 27.647 -2.41481 0
      vertex 28.25 -2.16506 0
    endloop
  endfacet
  facet normal 0 0 -1
    outer loop
      vertex 27.5 -4.93417 0
      vertex 27.647 -2.41481 0
      vertex 28.2941 -4.82963 0
    endloop
  endfacet
  facet normal 0 0 -1
    outer loop
      vertex 27.647 -2.41481 0
      vertex 27.5 -4.93417 0
      vertex 27 -2.5 0
    endloop
  endfacet
  facet normal 0 0 -1
    outer loop
      vertex 29.5 0 0
      vertex 32 0 0
      vertex 31.8296 -1.2941 0
    endloop
  endfacet
  facet normal 0 0 -1
    outer loop
      vertex 29.4148 -0.647047 0
      vertex 31.8296 -1.2941 0
      vertex 31.3301 -2.5 0
    endloop
  endfacet
  facet normal 0 0 -1
    outer loop
      vertex 32 0 0
      vertex 29.5 0 0
      vertex 31.8296 1.2941 0
    endloop
  endfacet
  facet normal 0 0 -1
    outer loop
      vertex 29.4148 -0.647047 0
      vertex 31.3301 -2.5 0
      vertex 30.5355 -3.53553 0
    endloop
  endfacet
  facet normal 0 0 -1
    outer loop
      vertex 29.4148 0.647047 0
      vertex 31.8296 1.2941 0
      vertex 29.5 0 0
    endloop
  endfacet
  facet normal 0 0 -1
    outer loop
      vertex 28.7678 -1.76777 0
      vertex 30.5355 -3.53553 0
      vertex 29.5 -4.33013 0
    endloop
  endfacet
  facet normal -0 0 -1
    outer loop
      vertex 31.8296 1.2941 0
      vertex 29.4148 0.647047 0
      vertex 31.3301 2.5 0
    endloop
  endfacet
  facet normal 0 0 -1
    outer loop
      vertex 29.1651 1.25 0
      vertex 31.3301 2.5 0
      vertex 29.4148 0.647047 0
    endloop
  endfacet
  facet normal -0 0 -1
    outer loop
      vertex 31.3301 2.5 0
      vertex 29.1651 1.25 0
      vertex 30.5355 3.53553 0
    endloop
  endfacet
  facet normal 0 0 -1
    outer loop
      vertex 28.7678 1.76777 0
      vertex 30.5355 3.53553 0
      vertex 29.1651 1.25 0
    endloop
  endfacet
  facet normal -0 0 -1
    outer loop
      vertex 30.5355 3.53553 0
      vertex 28.7678 1.76777 0
      vertex 29.5 4.33013 0
    endloop
  endfacet
  facet normal 0 0 -1
    outer loop
      vertex 28.25 2.16506 0
      vertex 29.5 4.33013 0
      vertex 28.7678 1.76777 0
    endloop
  endfacet
  facet normal -0 0 -1
    outer loop
      vertex 29.5 4.33013 0
      vertex 28.25 2.16506 0
      vertex 28.2941 4.82963 0
    endloop
  endfacet
  facet normal 0 0 -1
    outer loop
      vertex 27.647 2.41481 0
      vertex 28.2941 4.82963 0
      vertex 28.25 2.16506 0
    endloop
  endfacet
  facet normal 0 0 -1
    outer loop
      vertex 27.647 2.41481 0
      vertex 27.5 4.93417 0
      vertex 28.2941 4.82963 0
    endloop
  endfacet
  facet normal 0 0 -1
    outer loop
      vertex 27 2.5 0
      vertex 27.5 4.93417 0
      vertex 27.647 2.41481 0
    endloop
  endfacet
  facet normal 0 0 -1
    outer loop
      vertex 26.353 2.41481 0
      vertex 27.5 4.93417 0
      vertex 27 2.5 0
    endloop
  endfacet
  facet normal 0 0 -1
    outer loop
      vertex 25 5 0
      vertex 27.5 4.93417 0
      vertex 26.353 2.41481 0
    endloop
  endfacet
  facet normal 0 0 -1
    outer loop
      vertex 25 5 0
      vertex 26.353 2.41481 0
      vertex 25.75 2.16506 0
    endloop
  endfacet
  facet normal 0 0 -1
    outer loop
      vertex 25 5 0
      vertex 25.75 2.16506 0
      vertex 25.2322 1.76777 0
    endloop
  endfacet
  facet normal 0 0 -1
    outer loop
      vertex 27.5 4.93417 0
      vertex 25 5 0
      vertex 27.5 5 0
    endloop
  endfacet
  facet normal 0 0 -1
    outer loop
      vertex 24.8349 1.25 0
      vertex 25 5 0
      vertex 25.2322 1.76777 0
    endloop
  endfacet
  facet normal 0 0 -1
    outer loop
      vertex 24.5852 0.647047 0
      vertex 25 5 0
      vertex 24.8349 1.25 0
    endloop
  endfacet
  facet normal -0 0 -1
    outer loop
      vertex 25 5 0
      vertex 24.5852 0.647047 0
      vertex 23 14 0
    endloop
  endfacet
  facet normal 0 0 -1
    outer loop
      vertex 23 14 0
      vertex 24.5852 0.647047 0
      vertex 24.5 0 0
    endloop
  endfacet
  facet normal 0 0 -1
    outer loop
      vertex 23 14 0
      vertex 24.5 0 0
      vertex 23 -14 0
    endloop
  endfacet
  facet normal 0 0 -1
    outer loop
      vertex 25 5 0
      vertex 23 14 0
      vertex 25 16 0
    endloop
  endfacet
  facet normal 0 0 -1
    outer loop
      vertex -23 14 0
      vertex 25 16 0
      vertex 23 14 0
    endloop
  endfacet
  facet normal 0 0 -1
    outer loop
      vertex -24.5852 0.647047 0
      vertex -23 14 0
      vertex -24.5 0 0
    endloop
  endfacet
  facet normal 0 0 -1
    outer loop
      vertex -25 5 0
      vertex -24.5852 0.647047 0
      vertex -24.8349 1.25 0
    endloop
  endfacet
  facet normal 0 0 -1
    outer loop
      vertex -24.5852 0.647047 0
      vertex -25 5 0
      vertex -23 14 0
    endloop
  endfacet
  facet normal 0 0 -1
    outer loop
      vertex -23 14 0
      vertex -25 16 0
      vertex 25 16 0
    endloop
  endfacet
  facet normal 0 0 -1
    outer loop
      vertex -25 16 0
      vertex -23 14 0
      vertex -25 5 0
    endloop
  endfacet
  facet normal 0 -1 0
    outer loop
      vertex -25 -16 0
      vertex 25 -16 3
      vertex -25 -16 3
    endloop
  endfacet
  facet normal 0 -1 -0
    outer loop
      vertex 25 -16 3
      vertex -25 -16 0
      vertex 25 -16 0
    endloop
  endfacet
  facet normal 0 1 -0
    outer loop
      vertex 25 16 0
      vertex -25 16 3
      vertex 25 16 3
    endloop
  endfacet
  facet normal 0 1 0
    outer loop
      vertex -25 16 3
      vertex 25 16 0
      vertex -25 16 0
    endloop
  endfacet
  facet normal 0.991442 0.130548 0
    outer loop
      vertex 32 0 3
      vertex 31.8296 1.2941 0
      vertex 31.8296 1.2941 3
    endloop
  endfacet
  facet normal 0.991442 0.130548 0
    outer loop
      vertex 31.8296 1.2941 0
      vertex 32 0 3
      vertex 32 0 0
    endloop
  endfacet
  facet normal 0.13052 -0.991446 0
    outer loop
      vertex 27.5 -4.93417 0
      vertex 28.2941 -4.82963 3
      vertex 27.5 -4.93417 3
    endloop
  endfacet
  facet normal 0.13052 -0.991446 0
    outer loop
      vertex 28.2941 -4.82963 3
      vertex 27.5 -4.93417 0
      vertex 28.2941 -4.82963 0
    endloop
  endfacet
  facet normal 0.79335 -0.608766 0
    outer loop
      vertex 30.5355 -3.53553 3
      vertex 31.3301 -2.5 0
      vertex 31.3301 -2.5 3
    endloop
  endfacet
  facet normal 0.79335 -0.608766 0
    outer loop
      vertex 31.3301 -2.5 0
      vertex 30.5355 -3.53553 3
      vertex 30.5355 -3.53553 0
    endloop
  endfacet
  facet normal 0.608777 0.793341 -0
    outer loop
      vertex 30.5355 3.53553 0
      vertex 29.5 4.33013 3
      vertex 30.5355 3.53553 3
    endloop
  endfacet
  facet normal 0.608777 0.793341 0
    outer loop
      vertex 29.5 4.33013 3
      vertex 30.5355 3.53553 0
      vertex 29.5 4.33013 0
    endloop
  endfacet
  facet normal 0.79335 0.608766 0
    outer loop
      vertex 31.3301 2.5 3
      vertex 30.5355 3.53553 0
      vertex 30.5355 3.53553 3
    endloop
  endfacet
  facet normal 0.79335 0.608766 0
    outer loop
      vertex 30.5355 3.53553 0
      vertex 31.3301 2.5 3
      vertex 31.3301 2.5 0
    endloop
  endfacet
  facet normal 0.92388 0.382683 0
    outer loop
      vertex 31.8296 1.2941 3
      vertex 31.3301 2.5 0
      vertex 31.3301 2.5 3
    endloop
  endfacet
  facet normal 0.92388 0.382683 0
    outer loop
      vertex 31.3301 2.5 0
      vertex 31.8296 1.2941 3
      vertex 31.8296 1.2941 0
    endloop
  endfacet
  facet normal 0.13052 0.991446 -0
    outer loop
      vertex 28.2941 4.82963 0
      vertex 27.5 4.93417 3
      vertex 28.2941 4.82963 3
    endloop
  endfacet
  facet normal 0.13052 0.991446 0
    outer loop
      vertex 27.5 4.93417 3
      vertex 28.2941 4.82963 0
      vertex 27.5 4.93417 0
    endloop
  endfacet
  facet normal 0.382683 0.92388 -0
    outer loop
      vertex 29.5 4.33013 0
      vertex 28.2941 4.82963 3
      vertex 29.5 4.33013 3
    endloop
  endfacet
  facet normal 0.382683 0.92388 0
    outer loop
      vertex 28.2941 4.82963 3
      vertex 29.5 4.33013 0
      vertex 28.2941 4.82963 0
    endloop
  endfacet
  facet normal 0.92388 -0.382683 0
    outer loop
      vertex 31.3301 -2.5 3
      vertex 31.8296 -1.2941 0
      vertex 31.8296 -1.2941 3
    endloop
  endfacet
  facet normal 0.92388 -0.382683 0
    outer loop
      vertex 31.8296 -1.2941 0
      vertex 31.3301 -2.5 3
      vertex 31.3301 -2.5 0
    endloop
  endfacet
  facet normal 0.608777 -0.793341 0
    outer loop
      vertex 29.5 -4.33013 0
      vertex 30.5355 -3.53553 3
      vertex 29.5 -4.33013 3
    endloop
  endfacet
  facet normal 0.608777 -0.793341 0
    outer loop
      vertex 30.5355 -3.53553 3
      vertex 29.5 -4.33013 0
      vertex 30.5355 -3.53553 0
    endloop
  endfacet
  facet normal 0.382683 -0.92388 0
    outer loop
      vertex 28.2941 -4.82963 0
      vertex 29.5 -4.33013 3
      vertex 28.2941 -4.82963 3
    endloop
  endfacet
  facet normal 0.382683 -0.92388 0
    outer loop
      vertex 29.5 -4.33013 3
      vertex 28.2941 -4.82963 0
      vertex 29.5 -4.33013 0
    endloop
  endfacet
  facet normal 0.991442 -0.130548 0
    outer loop
      vertex 31.8296 -1.2941 3
      vertex 32 0 0
      vertex 32 0 3
    endloop
  endfacet
  facet normal 0.991442 -0.130548 0
    outer loop
      vertex 32 0 0
      vertex 31.8296 -1.2941 3
      vertex 31.8296 -1.2941 0
    endloop
  endfacet
  facet normal 1 -0 0
    outer loop
      vertex 27.5 -5 3
      vertex 27.5 -4.93417 0
      vertex 27.5 -4.93417 3
    endloop
  endfacet
  facet normal 1 0 0
    outer loop
      vertex 27.5 -4.93417 0
      vertex 27.5 -5 3
      vertex 27.5 -5 0
    endloop
  endfacet
  facet normal 1 -0 0
    outer loop
      vertex 27.5 4.93417 3
      vertex 27.5 5 0
      vertex 27.5 5 3
    endloop
  endfacet
  facet normal 1 0 0
    outer loop
      vertex 27.5 5 0
      vertex 27.5 4.93417 3
      vertex 27.5 4.93417 0
    endloop
  endfacet
  facet normal 0 1 -0
    outer loop
      vertex 27.5 5 0
      vertex 25 5 3
      vertex 27.5 5 3
    endloop
  endfacet
  facet normal 0 1 0
    outer loop
      vertex 25 5 3
      vertex 27.5 5 0
      vertex 25 5 0
    endloop
  endfacet
  facet normal 0 -1 0
    outer loop
      vertex 25 -5 0
      vertex 27.5 -5 3
      vertex 25 -5 3
    endloop
  endfacet
  facet normal 0 -1 -0
    outer loop
      vertex 27.5 -5 3
      vertex 25 -5 0
      vertex 27.5 -5 0
    endloop
  endfacet
  facet normal -0.991442 0.130548 0
    outer loop
      vertex -32 0 0
      vertex -31.8296 1.2941 3
      vertex -31.8296 1.2941 0
    endloop
  endfacet
  facet normal -0.991442 0.130548 0
    outer loop
      vertex -31.8296 1.2941 3
      vertex -32 0 0
      vertex -32 0 3
    endloop
  endfacet
  facet normal -0.608777 0.793341 0
    outer loop
      vertex -29.5 4.33013 0
      vertex -30.5355 3.53553 3
      vertex -29.5 4.33013 3
    endloop
  endfacet
  facet normal -0.608777 0.793341 0
    outer loop
      vertex -30.5355 3.53553 3
      vertex -29.5 4.33013 0
      vertex -30.5355 3.53553 0
    endloop
  endfacet
  facet normal -0.79335 0.608766 0
    outer loop
      vertex -31.3301 2.5 0
      vertex -30.5355 3.53553 3
      vertex -30.5355 3.53553 0
    endloop
  endfacet
  facet normal -0.79335 0.608766 0
    outer loop
      vertex -30.5355 3.53553 3
      vertex -31.3301 2.5 0
      vertex -31.3301 2.5 3
    endloop
  endfacet
  facet normal -0.382683 0.92388 0
    outer loop
      vertex -28.2941 4.82963 0
      vertex -29.5 4.33013 3
      vertex -28.2941 4.82963 3
    endloop
  endfacet
  facet normal -0.382683 0.92388 0
    outer loop
      vertex -29.5 4.33013 3
      vertex -28.2941 4.82963 0
      vertex -29.5 4.33013 0
    endloop
  endfacet
  facet normal -0.608777 -0.793341 0
    outer loop
      vertex -30.5355 -3.53553 0
      vertex -29.5 -4.33013 3
      vertex -30.5355 -3.53553 3
    endloop
  endfacet
  facet normal -0.608777 -0.793341 -0
    outer loop
      vertex -29.5 -4.33013 3
      vertex -30.5355 -3.53553 0
      vertex -29.5 -4.33013 0
    endloop
  endfacet
  facet normal -0.92388 0.382683 0
    outer loop
      vertex -31.8296 1.2941 0
      vertex -31.3301 2.5 3
      vertex -31.3301 2.5 0
    endloop
  endfacet
  facet normal -0.92388 0.382683 0
    outer loop
      vertex -31.3301 2.5 3
      vertex -31.8296 1.2941 0
      vertex -31.8296 1.2941 3
    endloop
  endfacet
  facet normal -0.13052 0.991446 0
    outer loop
      vertex -27.5 4.93417 0
      vertex -28.2941 4.82963 3
      vertex -27.5 4.93417 3
    endloop
  endfacet
  facet normal -0.13052 0.991446 0
    outer loop
      vertex -28.2941 4.82963 3
      vertex -27.5 4.93417 0
      vertex -28.2941 4.82963 0
    endloop
  endfacet
  facet normal -0.382683 -0.92388 0
    outer loop
      vertex -29.5 -4.33013 0
      vertex -28.2941 -4.82963 3
      vertex -29.5 -4.33013 3
    endloop
  endfacet
  facet normal -0.382683 -0.92388 -0
    outer loop
      vertex -28.2941 -4.82963 3
      vertex -29.5 -4.33013 0
      vertex -28.2941 -4.82963 0
    endloop
  endfacet
  facet normal -0.79335 -0.608766 0
    outer loop
      vertex -30.5355 -3.53553 0
      vertex -31.3301 -2.5 3
      vertex -31.3301 -2.5 0
    endloop
  endfacet
  facet normal -0.79335 -0.608766 0
    outer loop
      vertex -31.3301 -2.5 3
      vertex -30.5355 -3.53553 0
      vertex -30.5355 -3.53553 3
    endloop
  endfacet
  facet normal -0.991442 -0.130548 0
    outer loop
      vertex -31.8296 -1.2941 0
      vertex -32 0 3
      vertex -32 0 0
    endloop
  endfacet
  facet normal -0.991442 -0.130548 0
    outer loop
      vertex -32 0 3
      vertex -31.8296 -1.2941 0
      vertex -31.8296 -1.2941 3
    endloop
  endfacet
  facet normal -0.13052 -0.991446 0
    outer loop
      vertex -28.2941 -4.82963 0
      vertex -27.5 -4.93417 3
      vertex -28.2941 -4.82963 3
    endloop
  endfacet
  facet normal -0.13052 -0.991446 -0
    outer loop
      vertex -27.5 -4.93417 3
      vertex -28.2941 -4.82963 0
      vertex -27.5 -4.93417 0
    endloop
  endfacet
  facet normal -0.92388 -0.382683 0
    outer loop
      vertex -31.3301 -2.5 0
      vertex -31.8296 -1.2941 3
      vertex -31.8296 -1.2941 0
    endloop
  endfacet
  facet normal -0.92388 -0.382683 0
    outer loop
      vertex -31.8296 -1.2941 3
      vertex -31.3301 -2.5 0
      vertex -31.3301 -2.5 3
    endloop
  endfacet
  facet normal -1 0 0
    outer loop
      vertex -27.5 -5 0
      vertex -27.5 -4.93417 3
      vertex -27.5 -4.93417 0
    endloop
  endfacet
  facet normal -1 -0 0
    outer loop
      vertex -27.5 -4.93417 3
      vertex -27.5 -5 0
      vertex -27.5 -5 3
    endloop
  endfacet
  facet normal -1 0 0
    outer loop
      vertex -27.5 4.93417 0
      vertex -27.5 5 3
      vertex -27.5 5 0
    endloop
  endfacet
  facet normal -1 -0 0
    outer loop
      vertex -27.5 5 3
      vertex -27.5 4.93417 0
      vertex -27.5 4.93417 3
    endloop
  endfacet
  facet normal 0 -1 0
    outer loop
      vertex -27.5 -5 0
      vertex -25 -5 3
      vertex -27.5 -5 3
    endloop
  endfacet
  facet normal 0 -1 -0
    outer loop
      vertex -25 -5 3
      vertex -27.5 -5 0
      vertex -25 -5 0
    endloop
  endfacet
  facet normal 0 1 -0
    outer loop
      vertex -25 5 0
      vertex -27.5 5 3
      vertex -25 5 3
    endloop
  endfacet
  facet normal 0 1 0
    outer loop
      vertex -27.5 5 3
      vertex -25 5 0
      vertex -27.5 5 0
    endloop
  endfacet
  facet normal 1 -0 0
    outer loop
      vertex -23 -14 3
      vertex -23 14 0
      vertex -23 14 3
    endloop
  endfacet
  facet normal 1 0 0
    outer loop
      vertex -23 14 0
      vertex -23 -14 3
      vertex -23 -14 0
    endloop
  endfacet
  facet normal -1 0 0
    outer loop
      vertex 23 -14 0
      vertex 23 14 3
      vertex 23 14 0
    endloop
  endfacet
  facet normal -1 -0 0
    outer loop
      vertex 23 14 3
      vertex 23 -14 0
      vertex 23 -14 3
    endloop
  endfacet
  facet normal 0 1 -0
    outer loop
      vertex 23 -14 0
      vertex -23 -14 3
      vertex 23 -14 3
    endloop
  endfacet
  facet normal 0 1 0
    outer loop
      vertex -23 -14 3
      vertex 23 -14 0
      vertex -23 -14 0
    endloop
  endfacet
  facet normal 0 -1 0
    outer loop
      vertex -23 14 0
      vertex 23 14 3
      vertex -23 14 3
    endloop
  endfacet
  facet normal 0 -1 -0
    outer loop
      vertex 23 14 3
      vertex -23 14 0
      vertex 23 14 0
    endloop
  endfacet
  facet normal -0.991442 -0.130548 0
    outer loop
      vertex 29.5 0 0
      vertex 29.4148 0.647047 3
      vertex 29.4148 0.647047 0
    endloop
  endfacet
  facet normal -0.991442 -0.130548 0
    outer loop
      vertex 29.4148 0.647047 3
      vertex 29.5 0 0
      vertex 29.5 0 3
    endloop
  endfacet
  facet normal 0.991442 0.130548 0
    outer loop
      vertex 24.5852 -0.647047 3
      vertex 24.5 0 0
      vertex 24.5 0 3
    endloop
  endfacet
  facet normal 0.991442 0.130548 0
    outer loop
      vertex 24.5 0 0
      vertex 24.5852 -0.647047 3
      vertex 24.5852 -0.647047 0
    endloop
  endfacet
  facet normal 0.130543 -0.991443 0
    outer loop
      vertex 26.353 2.41481 0
      vertex 27 2.5 3
      vertex 26.353 2.41481 3
    endloop
  endfacet
  facet normal 0.130543 -0.991443 0
    outer loop
      vertex 27 2.5 3
      vertex 26.353 2.41481 0
      vertex 27 2.5 0
    endloop
  endfacet
  facet normal -0.130543 0.991443 0
    outer loop
      vertex 27.647 -2.41481 0
      vertex 27 -2.5 3
      vertex 27.647 -2.41481 3
    endloop
  endfacet
  facet normal -0.130543 0.991443 0
    outer loop
      vertex 27 -2.5 3
      vertex 27.647 -2.41481 0
      vertex 27 -2.5 0
    endloop
  endfacet
  facet normal -0.793353 0.608762 0
    outer loop
      vertex 28.7678 -1.76777 0
      vertex 29.1651 -1.25 3
      vertex 29.1651 -1.25 0
    endloop
  endfacet
  facet normal -0.793353 0.608762 0
    outer loop
      vertex 29.1651 -1.25 3
      vertex 28.7678 -1.76777 0
      vertex 28.7678 -1.76777 3
    endloop
  endfacet
  facet normal -0.608731 -0.793377 0
    outer loop
      vertex 28.25 2.16506 0
      vertex 28.7678 1.76777 3
      vertex 28.25 2.16506 3
    endloop
  endfacet
  facet normal -0.608731 -0.793377 -0
    outer loop
      vertex 28.7678 1.76777 3
      vertex 28.25 2.16506 0
      vertex 28.7678 1.76777 0
    endloop
  endfacet
  facet normal 0.793353 -0.608762 0
    outer loop
      vertex 24.8349 1.25 3
      vertex 25.2322 1.76777 0
      vertex 25.2322 1.76777 3
    endloop
  endfacet
  facet normal 0.793353 -0.608762 0
    outer loop
      vertex 25.2322 1.76777 0
      vertex 24.8349 1.25 3
      vertex 24.8349 1.25 0
    endloop
  endfacet
  facet normal 0.923907 -0.382616 0
    outer loop
      vertex 24.5852 0.647047 3
      vertex 24.8349 1.25 0
      vertex 24.8349 1.25 3
    endloop
  endfacet
  facet normal 0.923907 -0.382616 0
    outer loop
      vertex 24.8349 1.25 0
      vertex 24.5852 0.647047 3
      vertex 24.5852 0.647047 0
    endloop
  endfacet
  facet normal 0.608731 -0.793377 0
    outer loop
      vertex 25.2322 1.76777 0
      vertex 25.75 2.16506 3
      vertex 25.2322 1.76777 3
    endloop
  endfacet
  facet normal 0.608731 -0.793377 0
    outer loop
      vertex 25.75 2.16506 3
      vertex 25.2322 1.76777 0
      vertex 25.75 2.16506 0
    endloop
  endfacet
  facet normal 0.608731 0.793377 -0
    outer loop
      vertex 25.75 -2.16506 0
      vertex 25.2322 -1.76777 3
      vertex 25.75 -2.16506 3
    endloop
  endfacet
  facet normal 0.608731 0.793377 0
    outer loop
      vertex 25.2322 -1.76777 3
      vertex 25.75 -2.16506 0
      vertex 25.2322 -1.76777 0
    endloop
  endfacet
  facet normal -0.793353 -0.608762 0
    outer loop
      vertex 29.1651 1.25 0
      vertex 28.7678 1.76777 3
      vertex 28.7678 1.76777 0
    endloop
  endfacet
  facet normal -0.793353 -0.608762 0
    outer loop
      vertex 28.7678 1.76777 3
      vertex 29.1651 1.25 0
      vertex 29.1651 1.25 3
    endloop
  endfacet
  facet normal -0.923907 -0.382616 0
    outer loop
      vertex 29.4148 0.647047 0
      vertex 29.1651 1.25 3
      vertex 29.1651 1.25 0
    endloop
  endfacet
  facet normal -0.923907 -0.382616 0
    outer loop
      vertex 29.1651 1.25 3
      vertex 29.4148 0.647047 0
      vertex 29.4148 0.647047 3
    endloop
  endfacet
  facet normal -0.130543 -0.991443 0
    outer loop
      vertex 27 2.5 0
      vertex 27.647 2.41481 3
      vertex 27 2.5 3
    endloop
  endfacet
  facet normal -0.130543 -0.991443 -0
    outer loop
      vertex 27.647 2.41481 3
      vertex 27 2.5 0
      vertex 27.647 2.41481 0
    endloop
  endfacet
  facet normal -0.382656 -0.923891 0
    outer loop
      vertex 27.647 2.41481 0
      vertex 28.25 2.16506 3
      vertex 27.647 2.41481 3
    endloop
  endfacet
  facet normal -0.382656 -0.923891 -0
    outer loop
      vertex 28.25 2.16506 3
      vertex 27.647 2.41481 0
      vertex 28.25 2.16506 0
    endloop
  endfacet
  facet normal 0.991442 -0.130548 0
    outer loop
      vertex 24.5 0 3
      vertex 24.5852 0.647047 0
      vertex 24.5852 0.647047 3
    endloop
  endfacet
  facet normal 0.991442 -0.130548 0
    outer loop
      vertex 24.5852 0.647047 0
      vertex 24.5 0 3
      vertex 24.5 0 0
    endloop
  endfacet
  facet normal 0.382656 -0.923891 0
    outer loop
      vertex 25.75 2.16506 0
      vertex 26.353 2.41481 3
      vertex 25.75 2.16506 3
    endloop
  endfacet
  facet normal 0.382656 -0.923891 0
    outer loop
      vertex 26.353 2.41481 3
      vertex 25.75 2.16506 0
      vertex 26.353 2.41481 0
    endloop
  endfacet
  facet normal -0.923907 0.382616 0
    outer loop
      vertex 29.1651 -1.25 0
      vertex 29.4148 -0.647047 3
      vertex 29.4148 -0.647047 0
    endloop
  endfacet
  facet normal -0.923907 0.382616 0
    outer loop
      vertex 29.4148 -0.647047 3
      vertex 29.1651 -1.25 0
      vertex 29.1651 -1.25 3
    endloop
  endfacet
  facet normal -0.608731 0.793377 0
    outer loop
      vertex 28.7678 -1.76777 0
      vertex 28.25 -2.16506 3
      vertex 28.7678 -1.76777 3
    endloop
  endfacet
  facet normal -0.608731 0.793377 0
    outer loop
      vertex 28.25 -2.16506 3
      vertex 28.7678 -1.76777 0
      vertex 28.25 -2.16506 0
    endloop
  endfacet
  facet normal -0.382656 0.923891 0
    outer loop
      vertex 28.25 -2.16506 0
      vertex 27.647 -2.41481 3
      vertex 28.25 -2.16506 3
    endloop
  endfacet
  facet normal -0.382656 0.923891 0
    outer loop
      vertex 27.647 -2.41481 3
      vertex 28.25 -2.16506 0
      vertex 27.647 -2.41481 0
    endloop
  endfacet
  facet normal -0.991442 0.130548 0
    outer loop
      vertex 29.4148 -0.647047 0
      vertex 29.5 0 3
      vertex 29.5 0 0
    endloop
  endfacet
  facet normal -0.991442 0.130548 0
    outer loop
      vertex 29.5 0 3
      vertex 29.4148 -0.647047 0
      vertex 29.4148 -0.647047 3
    endloop
  endfacet
  facet normal 0.130543 0.991443 -0
    outer loop
      vertex 27 -2.5 0
      vertex 26.353 -2.41481 3
      vertex 27 -2.5 3
    endloop
  endfacet
  facet normal 0.130543 0.991443 0
    outer loop
      vertex 26.353 -2.41481 3
      vertex 27 -2.5 0
      vertex 26.353 -2.41481 0
    endloop
  endfacet
  facet normal 0.382656 0.923891 -0
    outer loop
      vertex 26.353 -2.41481 0
      vertex 25.75 -2.16506 3
      vertex 26.353 -2.41481 3
    endloop
  endfacet
  facet normal 0.382656 0.923891 0
    outer loop
      vertex 25.75 -2.16506 3
      vertex 26.353 -2.41481 0
      vertex 25.75 -2.16506 0
    endloop
  endfacet
  facet normal 0.793353 0.608762 0
    outer loop
      vertex 25.2322 -1.76777 3
      vertex 24.8349 -1.25 0
      vertex 24.8349 -1.25 3
    endloop
  endfacet
  facet normal 0.793353 0.608762 0
    outer loop
      vertex 24.8349 -1.25 0
      vertex 25.2322 -1.76777 3
      vertex 25.2322 -1.76777 0
    endloop
  endfacet
  facet normal 0.923907 0.382616 0
    outer loop
      vertex 24.8349 -1.25 3
      vertex 24.5852 -0.647047 0
      vertex 24.5852 -0.647047 3
    endloop
  endfacet
  facet normal 0.923907 0.382616 0
    outer loop
      vertex 24.5852 -0.647047 0
      vertex 24.8349 -1.25 3
      vertex 24.8349 -1.25 0
    endloop
  endfacet
  facet normal -0.991442 -0.130548 0
    outer loop
      vertex -24.5 0 0
      vertex -24.5852 0.647047 3
      vertex -24.5852 0.647047 0
    endloop
  endfacet
  facet normal -0.991442 -0.130548 0
    outer loop
      vertex -24.5852 0.647047 3
      vertex -24.5 0 0
      vertex -24.5 0 3
    endloop
  endfacet
  facet normal 0.991442 -0.130548 0
    outer loop
      vertex -29.5 0 3
      vertex -29.4148 0.647047 0
      vertex -29.4148 0.647047 3
    endloop
  endfacet
  facet normal 0.991442 -0.130548 0
    outer loop
      vertex -29.4148 0.647047 0
      vertex -29.5 0 3
      vertex -29.5 0 0
    endloop
  endfacet
  facet normal -0.130543 -0.991443 0
    outer loop
      vertex -27 2.5 0
      vertex -26.353 2.41481 3
      vertex -27 2.5 3
    endloop
  endfacet
  facet normal -0.130543 -0.991443 -0
    outer loop
      vertex -26.353 2.41481 3
      vertex -27 2.5 0
      vertex -26.353 2.41481 0
    endloop
  endfacet
  facet normal -0.793353 -0.608762 0
    outer loop
      vertex -24.8349 1.25 0
      vertex -25.2322 1.76777 3
      vertex -25.2322 1.76777 0
    endloop
  endfacet
  facet normal -0.793353 -0.608762 0
    outer loop
      vertex -25.2322 1.76777 3
      vertex -24.8349 1.25 0
      vertex -24.8349 1.25 3
    endloop
  endfacet
  facet normal -0.923907 -0.382616 0
    outer loop
      vertex -24.5852 0.647047 0
      vertex -24.8349 1.25 3
      vertex -24.8349 1.25 0
    endloop
  endfacet
  facet normal -0.923907 -0.382616 0
    outer loop
      vertex -24.8349 1.25 3
      vertex -24.5852 0.647047 0
      vertex -24.5852 0.647047 3
    endloop
  endfacet
  facet normal 0.608731 -0.793377 0
    outer loop
      vertex -28.7678 1.76777 0
      vertex -28.25 2.16506 3
      vertex -28.7678 1.76777 3
    endloop
  endfacet
  facet normal 0.608731 -0.793377 0
    outer loop
      vertex -28.25 2.16506 3
      vertex -28.7678 1.76777 0
      vertex -28.25 2.16506 0
    endloop
  endfacet
  facet normal 0.793353 -0.608762 0
    outer loop
      vertex -29.1651 1.25 3
      vertex -28.7678 1.76777 0
      vertex -28.7678 1.76777 3
    endloop
  endfacet
  facet normal 0.793353 -0.608762 0
    outer loop
      vertex -28.7678 1.76777 0
      vertex -29.1651 1.25 3
      vertex -29.1651 1.25 0
    endloop
  endfacet
  facet normal 0.382656 -0.923891 0
    outer loop
      vertex -28.25 2.16506 0
      vertex -27.647 2.41481 3
      vertex -28.25 2.16506 3
    endloop
  endfacet
  facet normal 0.382656 -0.923891 0
    outer loop
      vertex -27.647 2.41481 3
      vertex -28.25 2.16506 0
      vertex -27.647 2.41481 0
    endloop
  endfacet
  facet normal -0.130543 0.991443 0
    outer loop
      vertex -26.353 -2.41481 0
      vertex -27 -2.5 3
      vertex -26.353 -2.41481 3
    endloop
  endfacet
  facet normal -0.130543 0.991443 0
    outer loop
      vertex -27 -2.5 3
      vertex -26.353 -2.41481 0
      vertex -27 -2.5 0
    endloop
  endfacet
  facet normal 0.608731 0.793377 -0
    outer loop
      vertex -28.25 -2.16506 0
      vertex -28.7678 -1.76777 3
      vertex -28.25 -2.16506 3
    endloop
  endfacet
  facet normal 0.608731 0.793377 0
    outer loop
      vertex -28.7678 -1.76777 3
      vertex -28.25 -2.16506 0
      vertex -28.7678 -1.76777 0
    endloop
  endfacet
  facet normal -0.382656 -0.923891 0
    outer loop
      vertex -26.353 2.41481 0
      vertex -25.75 2.16506 3
      vertex -26.353 2.41481 3
    endloop
  endfacet
  facet normal -0.382656 -0.923891 -0
    outer loop
      vertex -25.75 2.16506 3
      vertex -26.353 2.41481 0
      vertex -25.75 2.16506 0
    endloop
  endfacet
  facet normal -0.608731 -0.793377 0
    outer loop
      vertex -25.75 2.16506 0
      vertex -25.2322 1.76777 3
      vertex -25.75 2.16506 3
    endloop
  endfacet
  facet normal -0.608731 -0.793377 -0
    outer loop
      vertex -25.2322 1.76777 3
      vertex -25.75 2.16506 0
      vertex -25.2322 1.76777 0
    endloop
  endfacet
  facet normal 0.923907 -0.382616 0
    outer loop
      vertex -29.4148 0.647047 3
      vertex -29.1651 1.25 0
      vertex -29.1651 1.25 3
    endloop
  endfacet
  facet normal 0.923907 -0.382616 0
    outer loop
      vertex -29.1651 1.25 0
      vertex -29.4148 0.647047 3
      vertex -29.4148 0.647047 0
    endloop
  endfacet
  facet normal 0.130543 -0.991443 0
    outer loop
      vertex -27.647 2.41481 0
      vertex -27 2.5 3
      vertex -27.647 2.41481 3
    endloop
  endfacet
  facet normal 0.130543 -0.991443 0
    outer loop
      vertex -27 2.5 3
      vertex -27.647 2.41481 0
      vertex -27 2.5 0
    endloop
  endfacet
  facet normal -0.382656 0.923891 0
    outer loop
      vertex -25.75 -2.16506 0
      vertex -26.353 -2.41481 3
      vertex -25.75 -2.16506 3
    endloop
  endfacet
  facet normal -0.382656 0.923891 0
    outer loop
      vertex -26.353 -2.41481 3
      vertex -25.75 -2.16506 0
      vertex -26.353 -2.41481 0
    endloop
  endfacet
  facet normal -0.793353 0.608762 0
    outer loop
      vertex -25.2322 -1.76777 0
      vertex -24.8349 -1.25 3
      vertex -24.8349 -1.25 0
    endloop
  endfacet
  facet normal -0.793353 0.608762 0
    outer loop
      vertex -24.8349 -1.25 3
      vertex -25.2322 -1.76777 0
      vertex -25.2322 -1.76777 3
    endloop
  endfacet
  facet normal -0.991442 0.130548 0
    outer loop
      vertex -24.5852 -0.647047 0
      vertex -24.5 0 3
      vertex -24.5 0 0
    endloop
  endfacet
  facet normal -0.991442 0.130548 0
    outer loop
      vertex -24.5 0 3
      vertex -24.5852 -0.647047 0
      vertex -24.5852 -0.647047 3
    endloop
  endfacet
  facet normal 0.382656 0.923891 -0
    outer loop
      vertex -27.647 -2.41481 0
      vertex -28.25 -2.16506 3
      vertex -27.647 -2.41481 3
    endloop
  endfacet
  facet normal 0.382656 0.923891 0
    outer loop
      vertex -28.25 -2.16506 3
      vertex -27.647 -2.41481 0
      vertex -28.25 -2.16506 0
    endloop
  endfacet
  facet normal 0.793353 0.608762 0
    outer loop
      vertex -28.7678 -1.76777 3
      vertex -29.1651 -1.25 0
      vertex -29.1651 -1.25 3
    endloop
  endfacet
  facet normal 0.793353 0.608762 0
    outer loop
      vertex -29.1651 -1.25 0
      vertex -28.7678 -1.76777 3
      vertex -28.7678 -1.76777 0
    endloop
  endfacet
  facet normal 0.991442 0.130548 0
    outer loop
      vertex -29.4148 -0.647047 3
      vertex -29.5 0 0
      vertex -29.5 0 3
    endloop
  endfacet
  facet normal 0.991442 0.130548 0
    outer loop
      vertex -29.5 0 0
      vertex -29.4148 -0.647047 3
      vertex -29.4148 -0.647047 0
    endloop
  endfacet
  facet normal -0.608731 0.793377 0
    outer loop
      vertex -25.2322 -1.76777 0
      vertex -25.75 -2.16506 3
      vertex -25.2322 -1.76777 3
    endloop
  endfacet
  facet normal -0.608731 0.793377 0
    outer loop
      vertex -25.75 -2.16506 3
      vertex -25.2322 -1.76777 0
      vertex -25.75 -2.16506 0
    endloop
  endfacet
  facet normal -0.923907 0.382616 0
    outer loop
      vertex -24.8349 -1.25 0
      vertex -24.5852 -0.647047 3
      vertex -24.5852 -0.647047 0
    endloop
  endfacet
  facet normal -0.923907 0.382616 0
    outer loop
      vertex -24.5852 -0.647047 3
      vertex -24.8349 -1.25 0
      vertex -24.8349 -1.25 3
    endloop
  endfacet
  facet normal 0.130543 0.991443 -0
    outer loop
      vertex -27 -2.5 0
      vertex -27.647 -2.41481 3
      vertex -27 -2.5 3
    endloop
  endfacet
  facet normal 0.130543 0.991443 0
    outer loop
      vertex -27.647 -2.41481 3
      vertex -27 -2.5 0
      vertex -27.647 -2.41481 0
    endloop
  endfacet
  facet normal 0.923907 0.382616 0
    outer loop
      vertex -29.1651 -1.25 3
      vertex -29.4148 -0.647047 0
      vertex -29.4148 -0.647047 3
    endloop
  endfacet
  facet normal 0.923907 0.382616 0
    outer loop
      vertex -29.4148 -0.647047 0
      vertex -29.1651 -1.25 3
      vertex -29.1651 -1.25 0
    endloop
  endfacet
endsolid OpenSCAD_Model
