solid OpenSCAD_Model
  facet normal -0.99786 0.065384 0
    outer loop
      vertex -19 0 5
      vertex -18.8375 2.48 10
      vertex -18.8375 2.48 5
    endloop
  endfacet
  facet normal -0.99786 0.065384 0
    outer loop
      vertex -18.8375 2.48 10
      vertex -19 0 5
      vertex -19 0 10
    endloop
  endfacet
  facet normal 0.065384 0.99786 -0
    outer loop
      vertex 2.48 18.8375 5
      vertex 0 19 10
      vertex 2.48 18.8375 10
    endloop
  endfacet
  facet normal 0.065384 0.99786 0
    outer loop
      vertex 0 19 10
      vertex 2.48 18.8375 5
      vertex 0 19 5
    endloop
  endfacet
  facet normal -0.751826 -0.659362 0
    outer loop
      vertex -13.435 -13.435 5
      vertex -15.0737 -11.5665 10
      vertex -15.0737 -11.5665 5
    endloop
  endfacet
  facet normal -0.751826 -0.659362 0
    outer loop
      vertex -15.0737 -11.5665 10
      vertex -13.435 -13.435 5
      vertex -13.435 -13.435 10
    endloop
  endfacet
  facet normal 0.659362 0.751826 -0
    outer loop
      vertex 13.435 13.435 5
      vertex 11.5665 15.0737 10
      vertex 13.435 13.435 10
    endloop
  endfacet
  facet normal 0.659362 0.751826 0
    outer loop
      vertex 11.5665 15.0737 10
      vertex 13.435 13.435 5
      vertex 11.5665 15.0737 5
    endloop
  endfacet
  facet normal -0.659362 0.751826 0
    outer loop
      vertex -11.5665 15.0737 5
      vertex -13.435 13.435 10
      vertex -11.5665 15.0737 10
    endloop
  endfacet
  facet normal -0.659362 0.751826 0
    outer loop
      vertex -13.435 13.435 10
      vertex -11.5665 15.0737 5
      vertex -13.435 13.435 5
    endloop
  endfacet
  facet normal -0.321447 0.946927 0
    outer loop
      vertex -4.91756 18.3526 5
      vertex -7.27098 17.5537 10
      vertex -4.91756 18.3526 10
    endloop
  endfacet
  facet normal -0.321447 0.946927 0
    outer loop
      vertex -7.27098 17.5537 10
      vertex -4.91756 18.3526 5
      vertex -7.27098 17.5537 5
    endloop
  endfacet
  facet normal 0.896878 0.442279 0
    outer loop
      vertex 17.5537 7.27098 10
      vertex 16.4545 9.5 5
      vertex 16.4545 9.5 10
    endloop
  endfacet
  facet normal 0.896878 0.442279 0
    outer loop
      vertex 16.4545 9.5 5
      vertex 17.5537 7.27098 10
      vertex 17.5537 7.27098 5
    endloop
  endfacet
  facet normal 0.980788 0.195077 0
    outer loop
      vertex 18.734 3 10
      vertex 18.3526 4.91756 5
      vertex 18.3526 4.91756 10
    endloop
  endfacet
  facet normal 0.980788 0.195077 0
    outer loop
      vertex 18.3526 4.91756 5
      vertex 18.734 3 10
      vertex 18.734 3 5
    endloop
  endfacet
  facet normal 0.831468 0.555573 0
    outer loop
      vertex 16.4545 9.5 10
      vertex 15.0737 11.5665 5
      vertex 15.0737 11.5665 10
    endloop
  endfacet
  facet normal 0.831468 0.555573 0
    outer loop
      vertex 15.0737 11.5665 5
      vertex 16.4545 9.5 10
      vertex 16.4545 9.5 5
    endloop
  endfacet
  facet normal 0.321447 0.946927 -0
    outer loop
      vertex 7.27098 17.5537 5
      vertex 4.91756 18.3526 10
      vertex 7.27098 17.5537 10
    endloop
  endfacet
  facet normal 0.321447 0.946927 0
    outer loop
      vertex 4.91756 18.3526 10
      vertex 7.27098 17.5537 5
      vertex 4.91756 18.3526 5
    endloop
  endfacet
  facet normal 0.195105 0.980782 -0
    outer loop
      vertex 4.91756 18.3526 5
      vertex 2.48 18.8375 10
      vertex 4.91756 18.3526 10
    endloop
  endfacet
  facet normal 0.195105 0.980782 0
    outer loop
      vertex 2.48 18.8375 10
      vertex 4.91756 18.3526 5
      vertex 2.48 18.8375 5
    endloop
  endfacet
  facet normal 0.442279 0.896878 -0
    outer loop
      vertex 9.5 16.4545 5
      vertex 7.27098 17.5537 10
      vertex 9.5 16.4545 10
    endloop
  endfacet
  facet normal 0.442279 0.896878 0
    outer loop
      vertex 7.27098 17.5537 10
      vertex 9.5 16.4545 5
      vertex 7.27098 17.5537 5
    endloop
  endfacet
  facet normal -0.896878 0.442279 0
    outer loop
      vertex -17.5537 7.27098 5
      vertex -16.4545 9.5 10
      vertex -16.4545 9.5 5
    endloop
  endfacet
  facet normal -0.896878 0.442279 0
    outer loop
      vertex -16.4545 9.5 10
      vertex -17.5537 7.27098 5
      vertex -17.5537 7.27098 10
    endloop
  endfacet
  facet normal -0.751826 0.659362 0
    outer loop
      vertex -15.0737 11.5665 5
      vertex -13.435 13.435 10
      vertex -13.435 13.435 5
    endloop
  endfacet
  facet normal -0.751826 0.659362 0
    outer loop
      vertex -13.435 13.435 10
      vertex -15.0737 11.5665 5
      vertex -15.0737 11.5665 10
    endloop
  endfacet
  facet normal -0.946927 0.321447 0
    outer loop
      vertex -18.3526 4.91756 5
      vertex -17.5537 7.27098 10
      vertex -17.5537 7.27098 5
    endloop
  endfacet
  facet normal -0.946927 0.321447 0
    outer loop
      vertex -17.5537 7.27098 10
      vertex -18.3526 4.91756 5
      vertex -18.3526 4.91756 10
    endloop
  endfacet
  facet normal -0.195105 0.980782 0
    outer loop
      vertex -2.48 18.8375 5
      vertex -4.91756 18.3526 10
      vertex -2.48 18.8375 10
    endloop
  endfacet
  facet normal -0.195105 0.980782 0
    outer loop
      vertex -4.91756 18.3526 10
      vertex -2.48 18.8375 5
      vertex -4.91756 18.3526 5
    endloop
  endfacet
  facet normal 0.980788 -0.195077 0
    outer loop
      vertex 18.3526 -4.91756 10
      vertex 18.734 -3 5
      vertex 18.734 -3 10
    endloop
  endfacet
  facet normal 0.980788 -0.195077 0
    outer loop
      vertex 18.734 -3 5
      vertex 18.3526 -4.91756 10
      vertex 18.3526 -4.91756 5
    endloop
  endfacet
  facet normal -0.659362 -0.751826 0
    outer loop
      vertex -13.435 -13.435 5
      vertex -11.5665 -15.0737 10
      vertex -13.435 -13.435 10
    endloop
  endfacet
  facet normal -0.659362 -0.751826 -0
    outer loop
      vertex -11.5665 -15.0737 10
      vertex -13.435 -13.435 5
      vertex -11.5665 -15.0737 5
    endloop
  endfacet
  facet normal -0.321447 -0.946927 0
    outer loop
      vertex -7.27098 -17.5537 5
      vertex -4.91756 -18.3526 10
      vertex -7.27098 -17.5537 10
    endloop
  endfacet
  facet normal -0.321447 -0.946927 -0
    outer loop
      vertex -4.91756 -18.3526 10
      vertex -7.27098 -17.5537 5
      vertex -4.91756 -18.3526 5
    endloop
  endfacet
  facet normal 0 0 -1
    outer loop
      vertex 16 -3 0
      vertex 28.7519 -3.78526 0
      vertex 28.0118 -7.50575 0
    endloop
  endfacet
  facet normal 0 0 -1
    outer loop
      vertex 16 -3 0
      vertex 28.0118 -7.50575 0
      vertex 26.7925 -11.0978 0
    endloop
  endfacet
  facet normal 0 0 -1
    outer loop
      vertex 16 -3 0
      vertex 26.7925 -11.0978 0
      vertex 25.1147 -14.5 0
    endloop
  endfacet
  facet normal 0 0 -1
    outer loop
      vertex 16 -3 0
      vertex 25.1147 -14.5 0
      vertex 23.0072 -17.6541 0
    endloop
  endfacet
  facet normal 0 0 -1
    outer loop
      vertex 15.6084 -2.97433 0
      vertex 23.0072 -17.6541 0
      vertex 20.5061 -20.5061 0
    endloop
  endfacet
  facet normal 0 0 -1
    outer loop
      vertex 15.2235 -2.89778 0
      vertex 20.5061 -20.5061 0
      vertex 17.6541 -23.0072 0
    endloop
  endfacet
  facet normal 0 0 -1
    outer loop
      vertex 28.7519 -3.78526 0
      vertex 16 -3 0
      vertex 28.8034 -3 0
    endloop
  endfacet
  facet normal 0 0 -1
    outer loop
      vertex 23.0072 -17.6541 0
      vertex 15.6084 -2.97433 0
      vertex 16 -3 0
    endloop
  endfacet
  facet normal 0 0 -1
    outer loop
      vertex 20.5061 -20.5061 0
      vertex 15.2235 -2.89778 0
      vertex 15.6084 -2.97433 0
    endloop
  endfacet
  facet normal 0 0 -1
    outer loop
      vertex 17.6541 -23.0072 0
      vertex 14.8519 -2.77164 0
      vertex 15.2235 -2.89778 0
    endloop
  endfacet
  facet normal 0 0 -1
    outer loop
      vertex 14.5 -25.1147 0
      vertex 14.8519 -2.77164 0
      vertex 17.6541 -23.0072 0
    endloop
  endfacet
  facet normal 0 0 -1
    outer loop
      vertex 14.5 -25.1147 0
      vertex 14.5 -2.59808 0
      vertex 14.8519 -2.77164 0
    endloop
  endfacet
  facet normal 0 0 -1
    outer loop
      vertex 14.5 -25.1147 0
      vertex 14.1737 -2.38006 0
      vertex 14.5 -2.59808 0
    endloop
  endfacet
  facet normal 0 0 -1
    outer loop
      vertex 11.0978 -26.7925 0
      vertex 14.1737 -2.38006 0
      vertex 14.5 -25.1147 0
    endloop
  endfacet
  facet normal 0 0 -1
    outer loop
      vertex 7.50575 -28.0118 0
      vertex 14.1737 -2.38006 0
      vertex 11.0978 -26.7925 0
    endloop
  endfacet
  facet normal -0 0 -1
    outer loop
      vertex 14.1737 -2.38006 0
      vertex 7.50575 -28.0118 0
      vertex 13.8787 -2.12132 0
    endloop
  endfacet
  facet normal 0 0 -1
    outer loop
      vertex 3.78526 -28.7519 0
      vertex 13.8787 -2.12132 0
      vertex 7.50575 -28.0118 0
    endloop
  endfacet
  facet normal -0 0 -1
    outer loop
      vertex 13.8787 -2.12132 0
      vertex 3.78526 -28.7519 0
      vertex 13.6199 -1.82628 0
    endloop
  endfacet
  facet normal 0 0 -1
    outer loop
      vertex 0 -29 0
      vertex 13.6199 -1.82628 0
      vertex 3.78526 -28.7519 0
    endloop
  endfacet
  facet normal 0 0 -1
    outer loop
      vertex -3.78526 -28.7519 0
      vertex 13.6199 -1.82628 0
      vertex 0 -29 0
    endloop
  endfacet
  facet normal -0 0 -1
    outer loop
      vertex 13.6199 -1.82628 0
      vertex -3.78526 -28.7519 0
      vertex 13.4019 -1.5 0
    endloop
  endfacet
  facet normal 0 0 -1
    outer loop
      vertex 16 3 0
      vertex 28.7519 3.78526 0
      vertex 28.8034 3 0
    endloop
  endfacet
  facet normal -0 0 -1
    outer loop
      vertex 28.7519 3.78526 0
      vertex 16 3 0
      vertex 28.0118 7.50575 0
    endloop
  endfacet
  facet normal -0 0 -1
    outer loop
      vertex 28.0118 7.50575 0
      vertex 16 3 0
      vertex 26.7925 11.0978 0
    endloop
  endfacet
  facet normal -0 0 -1
    outer loop
      vertex 26.7925 11.0978 0
      vertex 16 3 0
      vertex 25.1147 14.5 0
    endloop
  endfacet
  facet normal -0 0 -1
    outer loop
      vertex 25.1147 14.5 0
      vertex 16 3 0
      vertex 23.0072 17.6541 0
    endloop
  endfacet
  facet normal 0 0 -1
    outer loop
      vertex 15.6084 2.97433 0
      vertex 23.0072 17.6541 0
      vertex 16 3 0
    endloop
  endfacet
  facet normal -0 0 -1
    outer loop
      vertex 23.0072 17.6541 0
      vertex 15.6084 2.97433 0
      vertex 20.5061 20.5061 0
    endloop
  endfacet
  facet normal 0 0 -1
    outer loop
      vertex 15.2235 2.89778 0
      vertex 20.5061 20.5061 0
      vertex 15.6084 2.97433 0
    endloop
  endfacet
  facet normal -0 0 -1
    outer loop
      vertex 20.5061 20.5061 0
      vertex 15.2235 2.89778 0
      vertex 17.6541 23.0072 0
    endloop
  endfacet
  facet normal 0 0 -1
    outer loop
      vertex 14.8519 2.77164 0
      vertex 17.6541 23.0072 0
      vertex 15.2235 2.89778 0
    endloop
  endfacet
  facet normal 0 0 -1
    outer loop
      vertex 14.5 2.59808 0
      vertex 17.6541 23.0072 0
      vertex 14.8519 2.77164 0
    endloop
  endfacet
  facet normal 0 0 -1
    outer loop
      vertex 14.5 2.59808 0
      vertex 14.5 25.1147 0
      vertex 17.6541 23.0072 0
    endloop
  endfacet
  facet normal 0 0 -1
    outer loop
      vertex 14.1737 2.38006 0
      vertex 14.5 25.1147 0
      vertex 14.5 2.59808 0
    endloop
  endfacet
  facet normal 0 0 -1
    outer loop
      vertex 7.50575 28.0118 0
      vertex 14.1737 2.38006 0
      vertex 13.8787 2.12132 0
    endloop
  endfacet
  facet normal 0 0 -1
    outer loop
      vertex 3.78526 28.7519 0
      vertex 13.8787 2.12132 0
      vertex 13.6199 1.82628 0
    endloop
  endfacet
  facet normal 0 0 -1
    outer loop
      vertex -3.78526 28.7519 0
      vertex 13.6199 1.82628 0
      vertex 13.4019 1.5 0
    endloop
  endfacet
  facet normal 0 0 -1
    outer loop
      vertex -11.0978 26.7925 0
      vertex 13.4019 1.5 0
      vertex 13.2284 1.14805 0
    endloop
  endfacet
  facet normal 0 0 -1
    outer loop
      vertex -17.6541 23.0072 0
      vertex 13.2284 1.14805 0
      vertex 13.1022 0.776457 0
    endloop
  endfacet
  facet normal 0 0 -1
    outer loop
      vertex -23.0072 17.6541 0
      vertex 13.1022 0.776457 0
      vertex 13.0257 0.391578 0
    endloop
  endfacet
  facet normal 0 0 -1
    outer loop
      vertex -28.0118 7.50575 0
      vertex 13.0257 0.391578 0
      vertex 13 0 0
    endloop
  endfacet
  facet normal 0 0 -1
    outer loop
      vertex -7.50575 -28.0118 0
      vertex 13.4019 -1.5 0
      vertex -3.78526 -28.7519 0
    endloop
  endfacet
  facet normal 0 0 -1
    outer loop
      vertex 14.1737 2.38006 0
      vertex 11.0978 26.7925 0
      vertex 14.5 25.1147 0
    endloop
  endfacet
  facet normal 0 0 -1
    outer loop
      vertex -11.0978 -26.7925 0
      vertex 13.4019 -1.5 0
      vertex -7.50575 -28.0118 0
    endloop
  endfacet
  facet normal 0 0 -1
    outer loop
      vertex 14.1737 2.38006 0
      vertex 7.50575 28.0118 0
      vertex 11.0978 26.7925 0
    endloop
  endfacet
  facet normal -0 0 -1
    outer loop
      vertex 13.4019 -1.5 0
      vertex -11.0978 -26.7925 0
      vertex 13.2284 -1.14805 0
    endloop
  endfacet
  facet normal 0 0 -1
    outer loop
      vertex 13.8787 2.12132 0
      vertex 3.78526 28.7519 0
      vertex 7.50575 28.0118 0
    endloop
  endfacet
  facet normal 0 0 -1
    outer loop
      vertex -14.5 -25.1147 0
      vertex 13.2284 -1.14805 0
      vertex -11.0978 -26.7925 0
    endloop
  endfacet
  facet normal 0 0 -1
    outer loop
      vertex 13.6199 1.82628 0
      vertex 0 29 0
      vertex 3.78526 28.7519 0
    endloop
  endfacet
  facet normal 0 0 -1
    outer loop
      vertex -17.6541 -23.0072 0
      vertex 13.2284 -1.14805 0
      vertex -14.5 -25.1147 0
    endloop
  endfacet
  facet normal 0 0 -1
    outer loop
      vertex 13.6199 1.82628 0
      vertex -3.78526 28.7519 0
      vertex 0 29 0
    endloop
  endfacet
  facet normal -0 0 -1
    outer loop
      vertex 13.2284 -1.14805 0
      vertex -17.6541 -23.0072 0
      vertex 13.1022 -0.776457 0
    endloop
  endfacet
  facet normal 0 0 -1
    outer loop
      vertex 13.4019 1.5 0
      vertex -7.50575 28.0118 0
      vertex -3.78526 28.7519 0
    endloop
  endfacet
  facet normal 0 0 -1
    outer loop
      vertex -20.5061 -20.5061 0
      vertex 13.1022 -0.776457 0
      vertex -17.6541 -23.0072 0
    endloop
  endfacet
  facet normal 0 0 -1
    outer loop
      vertex 13.4019 1.5 0
      vertex -11.0978 26.7925 0
      vertex -7.50575 28.0118 0
    endloop
  endfacet
  facet normal 0 0 -1
    outer loop
      vertex -23.0072 -17.6541 0
      vertex 13.1022 -0.776457 0
      vertex -20.5061 -20.5061 0
    endloop
  endfacet
  facet normal 0 0 -1
    outer loop
      vertex 13.2284 1.14805 0
      vertex -14.5 25.1147 0
      vertex -11.0978 26.7925 0
    endloop
  endfacet
  facet normal -0 0 -1
    outer loop
      vertex 13.1022 -0.776457 0
      vertex -23.0072 -17.6541 0
      vertex 13.0257 -0.391578 0
    endloop
  endfacet
  facet normal 0 0 -1
    outer loop
      vertex 13.2284 1.14805 0
      vertex -17.6541 23.0072 0
      vertex -14.5 25.1147 0
    endloop
  endfacet
  facet normal 0 0 -1
    outer loop
      vertex -25.1147 -14.5 0
      vertex 13.0257 -0.391578 0
      vertex -23.0072 -17.6541 0
    endloop
  endfacet
  facet normal 0 0 -1
    outer loop
      vertex 13.1022 0.776457 0
      vertex -20.5061 20.5061 0
      vertex -17.6541 23.0072 0
    endloop
  endfacet
  facet normal 0 0 -1
    outer loop
      vertex -26.7925 -11.0978 0
      vertex 13.0257 -0.391578 0
      vertex -25.1147 -14.5 0
    endloop
  endfacet
  facet normal 0 0 -1
    outer loop
      vertex 13.1022 0.776457 0
      vertex -23.0072 17.6541 0
      vertex -20.5061 20.5061 0
    endloop
  endfacet
  facet normal 0 0 -1
    outer loop
      vertex -28.0118 -7.50575 0
      vertex 13.0257 -0.391578 0
      vertex -26.7925 -11.0978 0
    endloop
  endfacet
  facet normal 0 0 -1
    outer loop
      vertex 13.0257 0.391578 0
      vertex -25.1147 14.5 0
      vertex -23.0072 17.6541 0
    endloop
  endfacet
  facet normal -0 0 -1
    outer loop
      vertex 13.0257 -0.391578 0
      vertex -28.0118 -7.50575 0
      vertex 13 0 0
    endloop
  endfacet
  facet normal 0 0 -1
    outer loop
      vertex 13.0257 0.391578 0
      vertex -26.7925 11.0978 0
      vertex -25.1147 14.5 0
    endloop
  endfacet
  facet normal 0 0 -1
    outer loop
      vertex -28.7519 -3.78526 0
      vertex 13 0 0
      vertex -28.0118 -7.50575 0
    endloop
  endfacet
  facet normal 0 0 -1
    outer loop
      vertex 13.0257 0.391578 0
      vertex -28.0118 7.50575 0
      vertex -26.7925 11.0978 0
    endloop
  endfacet
  facet normal 0 0 -1
    outer loop
      vertex -29 0 0
      vertex 13 0 0
      vertex -28.7519 -3.78526 0
    endloop
  endfacet
  facet normal 0 0 -1
    outer loop
      vertex 13 0 0
      vertex -28.7519 3.78526 0
      vertex -28.0118 7.50575 0
    endloop
  endfacet
  facet normal 0 0 -1
    outer loop
      vertex 13 0 0
      vertex -29 0 0
      vertex -28.7519 3.78526 0
    endloop
  endfacet
  facet normal 0.946927 0.321447 0
    outer loop
      vertex 18.3526 4.91756 10
      vertex 17.5537 7.27098 5
      vertex 17.5537 7.27098 10
    endloop
  endfacet
  facet normal 0.946927 0.321447 0
    outer loop
      vertex 17.5537 7.27098 5
      vertex 18.3526 4.91756 10
      vertex 18.3526 4.91756 5
    endloop
  endfacet
  facet normal 0.751826 0.659362 0
    outer loop
      vertex 15.0737 11.5665 10
      vertex 13.435 13.435 5
      vertex 13.435 13.435 10
    endloop
  endfacet
  facet normal 0.751826 0.659362 0
    outer loop
      vertex 13.435 13.435 5
      vertex 15.0737 11.5665 10
      vertex 15.0737 11.5665 5
    endloop
  endfacet
  facet normal 0.555573 0.831468 -0
    outer loop
      vertex 11.5665 15.0737 5
      vertex 9.5 16.4545 10
      vertex 11.5665 15.0737 10
    endloop
  endfacet
  facet normal 0.555573 0.831468 0
    outer loop
      vertex 9.5 16.4545 10
      vertex 11.5665 15.0737 5
      vertex 9.5 16.4545 5
    endloop
  endfacet
  facet normal -0.831468 0.555573 0
    outer loop
      vertex -16.4545 9.5 5
      vertex -15.0737 11.5665 10
      vertex -15.0737 11.5665 5
    endloop
  endfacet
  facet normal -0.831468 0.555573 0
    outer loop
      vertex -15.0737 11.5665 10
      vertex -16.4545 9.5 5
      vertex -16.4545 9.5 10
    endloop
  endfacet
  facet normal -0.980782 0.195105 0
    outer loop
      vertex -18.8375 2.48 5
      vertex -18.3526 4.91756 10
      vertex -18.3526 4.91756 5
    endloop
  endfacet
  facet normal -0.980782 0.195105 0
    outer loop
      vertex -18.3526 4.91756 10
      vertex -18.8375 2.48 5
      vertex -18.8375 2.48 10
    endloop
  endfacet
  facet normal 0 0 1
    outer loop
      vertex 16 3 10
      vertex 18.3526 4.91756 10
      vertex 17.5537 7.27098 10
    endloop
  endfacet
  facet normal 0 0 1
    outer loop
      vertex 14.8519 2.77164 10
      vertex 17.5537 7.27098 10
      vertex 16.4545 9.5 10
    endloop
  endfacet
  facet normal 0 0 1
    outer loop
      vertex 18.3526 4.91756 10
      vertex 16 3 10
      vertex 18.734 3 10
    endloop
  endfacet
  facet normal 0 0 1
    outer loop
      vertex 17.5537 7.27098 10
      vertex 15.6084 2.97433 10
      vertex 16 3 10
    endloop
  endfacet
  facet normal 0 0 1
    outer loop
      vertex 17.5537 7.27098 10
      vertex 15.2235 2.89778 10
      vertex 15.6084 2.97433 10
    endloop
  endfacet
  facet normal 0 0 1
    outer loop
      vertex 14.1737 2.38006 10
      vertex 16.4545 9.5 10
      vertex 15.0737 11.5665 10
    endloop
  endfacet
  facet normal 0 0 1
    outer loop
      vertex 17.5537 7.27098 10
      vertex 14.8519 2.77164 10
      vertex 15.2235 2.89778 10
    endloop
  endfacet
  facet normal 0 0 1
    outer loop
      vertex 16.4545 9.5 10
      vertex 14.5 2.59808 10
      vertex 14.8519 2.77164 10
    endloop
  endfacet
  facet normal 0 0 1
    outer loop
      vertex 16.4545 9.5 10
      vertex 14.1737 2.38006 10
      vertex 14.5 2.59808 10
    endloop
  endfacet
  facet normal 0 0 1
    outer loop
      vertex 15.0737 11.5665 10
      vertex 13.8787 2.12132 10
      vertex 14.1737 2.38006 10
    endloop
  endfacet
  facet normal 0 0 1
    outer loop
      vertex 13.435 13.435 10
      vertex 13.8787 2.12132 10
      vertex 15.0737 11.5665 10
    endloop
  endfacet
  facet normal 0 0 1
    outer loop
      vertex 13.8787 2.12132 10
      vertex 13.435 13.435 10
      vertex 13.6199 1.82628 10
    endloop
  endfacet
  facet normal 0 0 1
    outer loop
      vertex 11.5665 15.0737 10
      vertex 13.6199 1.82628 10
      vertex 13.435 13.435 10
    endloop
  endfacet
  facet normal 0 0 1
    outer loop
      vertex 13.6199 1.82628 10
      vertex 11.5665 15.0737 10
      vertex 13.4019 1.5 10
    endloop
  endfacet
  facet normal 0 0 1
    outer loop
      vertex 9.5 16.4545 10
      vertex 13.4019 1.5 10
      vertex 11.5665 15.0737 10
    endloop
  endfacet
  facet normal 0 0 1
    outer loop
      vertex 7.27098 17.5537 10
      vertex 13.4019 1.5 10
      vertex 9.5 16.4545 10
    endloop
  endfacet
  facet normal 0 0 1
    outer loop
      vertex 13.4019 1.5 10
      vertex 7.27098 17.5537 10
      vertex 13.2284 1.14805 10
    endloop
  endfacet
  facet normal 0 0 1
    outer loop
      vertex 4.91756 18.3526 10
      vertex 13.2284 1.14805 10
      vertex 7.27098 17.5537 10
    endloop
  endfacet
  facet normal -0 0 1
    outer loop
      vertex 16 -3 10
      vertex 18.3526 -4.91756 10
      vertex 18.734 -3 10
    endloop
  endfacet
  facet normal 0 0 1
    outer loop
      vertex 18.3526 -4.91756 10
      vertex 16 -3 10
      vertex 17.5537 -7.27098 10
    endloop
  endfacet
  facet normal 0 0 1
    outer loop
      vertex 15.6084 -2.97433 10
      vertex 17.5537 -7.27098 10
      vertex 16 -3 10
    endloop
  endfacet
  facet normal 0 0 1
    outer loop
      vertex 15.2235 -2.89778 10
      vertex 17.5537 -7.27098 10
      vertex 15.6084 -2.97433 10
    endloop
  endfacet
  facet normal 0 0 1
    outer loop
      vertex 14.8519 -2.77164 10
      vertex 17.5537 -7.27098 10
      vertex 15.2235 -2.89778 10
    endloop
  endfacet
  facet normal 0 0 1
    outer loop
      vertex 17.5537 -7.27098 10
      vertex 14.8519 -2.77164 10
      vertex 16.4545 -9.5 10
    endloop
  endfacet
  facet normal 0 0 1
    outer loop
      vertex 14.5 -2.59808 10
      vertex 16.4545 -9.5 10
      vertex 14.8519 -2.77164 10
    endloop
  endfacet
  facet normal 0 0 1
    outer loop
      vertex 14.1737 -2.38006 10
      vertex 16.4545 -9.5 10
      vertex 14.5 -2.59808 10
    endloop
  endfacet
  facet normal 0 0 1
    outer loop
      vertex 16.4545 -9.5 10
      vertex 14.1737 -2.38006 10
      vertex 15.0737 -11.5665 10
    endloop
  endfacet
  facet normal 0 0 1
    outer loop
      vertex 13.8787 -2.12132 10
      vertex 15.0737 -11.5665 10
      vertex 14.1737 -2.38006 10
    endloop
  endfacet
  facet normal 0 0 1
    outer loop
      vertex 13.435 -13.435 10
      vertex 13.8787 -2.12132 10
      vertex 13.6199 -1.82628 10
    endloop
  endfacet
  facet normal 0 0 1
    outer loop
      vertex 13.8787 -2.12132 10
      vertex 13.435 -13.435 10
      vertex 15.0737 -11.5665 10
    endloop
  endfacet
  facet normal 0 0 1
    outer loop
      vertex 11.5665 -15.0737 10
      vertex 13.6199 -1.82628 10
      vertex 13.4019 -1.5 10
    endloop
  endfacet
  facet normal 0 0 1
    outer loop
      vertex 7.27098 -17.5537 10
      vertex 13.4019 -1.5 10
      vertex 13.2284 -1.14805 10
    endloop
  endfacet
  facet normal 0 0 1
    outer loop
      vertex 2.48 -18.8375 10
      vertex 13.2284 -1.14805 10
      vertex 13.1022 -0.776457 10
    endloop
  endfacet
  facet normal 0 0 1
    outer loop
      vertex -7.27098 -17.5537 10
      vertex 13.1022 -0.776457 10
      vertex 13.0257 -0.391578 10
    endloop
  endfacet
  facet normal 0 0 1
    outer loop
      vertex -16.4545 -9.5 10
      vertex 13.0257 -0.391578 10
      vertex 13 0 10
    endloop
  endfacet
  facet normal 0 0 1
    outer loop
      vertex 2.48 18.8375 10
      vertex 13.2284 1.14805 10
      vertex 4.91756 18.3526 10
    endloop
  endfacet
  facet normal 0 0 1
    outer loop
      vertex 13.6199 -1.82628 10
      vertex 11.5665 -15.0737 10
      vertex 13.435 -13.435 10
    endloop
  endfacet
  facet normal 0 0 1
    outer loop
      vertex 13.2284 1.14805 10
      vertex 2.48 18.8375 10
      vertex 13.1022 0.776457 10
    endloop
  endfacet
  facet normal 0 0 1
    outer loop
      vertex 13.4019 -1.5 10
      vertex 9.5 -16.4545 10
      vertex 11.5665 -15.0737 10
    endloop
  endfacet
  facet normal 0 0 1
    outer loop
      vertex 0 19 10
      vertex 13.1022 0.776457 10
      vertex 2.48 18.8375 10
    endloop
  endfacet
  facet normal 0 0 1
    outer loop
      vertex 13.4019 -1.5 10
      vertex 7.27098 -17.5537 10
      vertex 9.5 -16.4545 10
    endloop
  endfacet
  facet normal -0 0 1
    outer loop
      vertex -2.48 18.8375 10
      vertex 13.1022 0.776457 10
      vertex 0 19 10
    endloop
  endfacet
  facet normal 0 0 1
    outer loop
      vertex 13.2284 -1.14805 10
      vertex 4.91756 -18.3526 10
      vertex 7.27098 -17.5537 10
    endloop
  endfacet
  facet normal -0 0 1
    outer loop
      vertex -4.91756 18.3526 10
      vertex 13.1022 0.776457 10
      vertex -2.48 18.8375 10
    endloop
  endfacet
  facet normal 0 0 1
    outer loop
      vertex 13.2284 -1.14805 10
      vertex 2.48 -18.8375 10
      vertex 4.91756 -18.3526 10
    endloop
  endfacet
  facet normal -0 0 1
    outer loop
      vertex -7.27098 17.5537 10
      vertex 13.1022 0.776457 10
      vertex -4.91756 18.3526 10
    endloop
  endfacet
  facet normal 0 0 1
    outer loop
      vertex 13.1022 -0.776457 10
      vertex 0 -19 10
      vertex 2.48 -18.8375 10
    endloop
  endfacet
  facet normal 0 0 1
    outer loop
      vertex 13.1022 0.776457 10
      vertex -7.27098 17.5537 10
      vertex 13.0257 0.391578 10
    endloop
  endfacet
  facet normal 0 0 1
    outer loop
      vertex 13.1022 -0.776457 10
      vertex -2.48 -18.8375 10
      vertex 0 -19 10
    endloop
  endfacet
  facet normal -0 0 1
    outer loop
      vertex -9.5 16.4545 10
      vertex 13.0257 0.391578 10
      vertex -7.27098 17.5537 10
    endloop
  endfacet
  facet normal 0 0 1
    outer loop
      vertex 13.1022 -0.776457 10
      vertex -4.91756 -18.3526 10
      vertex -2.48 -18.8375 10
    endloop
  endfacet
  facet normal -0 0 1
    outer loop
      vertex -11.5665 15.0737 10
      vertex 13.0257 0.391578 10
      vertex -9.5 16.4545 10
    endloop
  endfacet
  facet normal 0 0 1
    outer loop
      vertex 13.1022 -0.776457 10
      vertex -7.27098 -17.5537 10
      vertex -4.91756 -18.3526 10
    endloop
  endfacet
  facet normal -0 0 1
    outer loop
      vertex -13.435 13.435 10
      vertex 13.0257 0.391578 10
      vertex -11.5665 15.0737 10
    endloop
  endfacet
  facet normal 0 0 1
    outer loop
      vertex 13.0257 -0.391578 10
      vertex -9.5 -16.4545 10
      vertex -7.27098 -17.5537 10
    endloop
  endfacet
  facet normal -0 0 1
    outer loop
      vertex -15.0737 11.5665 10
      vertex 13.0257 0.391578 10
      vertex -13.435 13.435 10
    endloop
  endfacet
  facet normal 0 0 1
    outer loop
      vertex 13.0257 -0.391578 10
      vertex -11.5665 -15.0737 10
      vertex -9.5 -16.4545 10
    endloop
  endfacet
  facet normal -0 0 1
    outer loop
      vertex -16.4545 9.5 10
      vertex 13.0257 0.391578 10
      vertex -15.0737 11.5665 10
    endloop
  endfacet
  facet normal 0 0 1
    outer loop
      vertex 13.0257 -0.391578 10
      vertex -13.435 -13.435 10
      vertex -11.5665 -15.0737 10
    endloop
  endfacet
  facet normal 0 0 1
    outer loop
      vertex 13.0257 0.391578 10
      vertex -16.4545 9.5 10
      vertex 13 0 10
    endloop
  endfacet
  facet normal 0 0 1
    outer loop
      vertex 13.0257 -0.391578 10
      vertex -15.0737 -11.5665 10
      vertex -13.435 -13.435 10
    endloop
  endfacet
  facet normal -0 0 1
    outer loop
      vertex -17.5537 7.27098 10
      vertex 13 0 10
      vertex -16.4545 9.5 10
    endloop
  endfacet
  facet normal 0 0 1
    outer loop
      vertex 13.0257 -0.391578 10
      vertex -16.4545 -9.5 10
      vertex -15.0737 -11.5665 10
    endloop
  endfacet
  facet normal -0 0 1
    outer loop
      vertex -18.3526 4.91756 10
      vertex 13 0 10
      vertex -17.5537 7.27098 10
    endloop
  endfacet
  facet normal 0 0 1
    outer loop
      vertex 13 0 10
      vertex -17.5537 -7.27098 10
      vertex -16.4545 -9.5 10
    endloop
  endfacet
  facet normal -0 0 1
    outer loop
      vertex -18.8375 2.48 10
      vertex 13 0 10
      vertex -18.3526 4.91756 10
    endloop
  endfacet
  facet normal 0 0 1
    outer loop
      vertex 13 0 10
      vertex -18.3526 -4.91756 10
      vertex -17.5537 -7.27098 10
    endloop
  endfacet
  facet normal 0 0 1
    outer loop
      vertex -19 0 10
      vertex 13 0 10
      vertex -18.8375 2.48 10
    endloop
  endfacet
  facet normal 0 0 1
    outer loop
      vertex 13 0 10
      vertex -18.8375 -2.48 10
      vertex -18.3526 -4.91756 10
    endloop
  endfacet
  facet normal 0 0 1
    outer loop
      vertex 13 0 10
      vertex -19 0 10
      vertex -18.8375 -2.48 10
    endloop
  endfacet
  facet normal -0.442279 0.896878 0
    outer loop
      vertex -7.27098 17.5537 5
      vertex -9.5 16.4545 10
      vertex -7.27098 17.5537 10
    endloop
  endfacet
  facet normal -0.442279 0.896878 0
    outer loop
      vertex -9.5 16.4545 10
      vertex -7.27098 17.5537 5
      vertex -9.5 16.4545 5
    endloop
  endfacet
  facet normal -0.555573 0.831468 0
    outer loop
      vertex -9.5 16.4545 5
      vertex -11.5665 15.0737 10
      vertex -9.5 16.4545 10
    endloop
  endfacet
  facet normal -0.555573 0.831468 0
    outer loop
      vertex -11.5665 15.0737 10
      vertex -9.5 16.4545 5
      vertex -11.5665 15.0737 5
    endloop
  endfacet
  facet normal -0.065384 0.99786 0
    outer loop
      vertex 0 19 5
      vertex -2.48 18.8375 10
      vertex 0 19 10
    endloop
  endfacet
  facet normal -0.065384 0.99786 0
    outer loop
      vertex -2.48 18.8375 10
      vertex 0 19 5
      vertex -2.48 18.8375 5
    endloop
  endfacet
  facet normal 0.065384 -0.99786 0
    outer loop
      vertex 0 -19 5
      vertex 2.48 -18.8375 10
      vertex 0 -19 10
    endloop
  endfacet
  facet normal 0.065384 -0.99786 0
    outer loop
      vertex 2.48 -18.8375 10
      vertex 0 -19 5
      vertex 2.48 -18.8375 5
    endloop
  endfacet
  facet normal 0.321447 -0.946927 0
    outer loop
      vertex 4.91756 -18.3526 5
      vertex 7.27098 -17.5537 10
      vertex 4.91756 -18.3526 10
    endloop
  endfacet
  facet normal 0.321447 -0.946927 0
    outer loop
      vertex 7.27098 -17.5537 10
      vertex 4.91756 -18.3526 5
      vertex 7.27098 -17.5537 5
    endloop
  endfacet
  facet normal 0.659362 -0.751826 0
    outer loop
      vertex 11.5665 -15.0737 5
      vertex 13.435 -13.435 10
      vertex 11.5665 -15.0737 10
    endloop
  endfacet
  facet normal 0.659362 -0.751826 0
    outer loop
      vertex 13.435 -13.435 10
      vertex 11.5665 -15.0737 5
      vertex 13.435 -13.435 5
    endloop
  endfacet
  facet normal 0.442279 -0.896878 0
    outer loop
      vertex 7.27098 -17.5537 5
      vertex 9.5 -16.4545 10
      vertex 7.27098 -17.5537 10
    endloop
  endfacet
  facet normal 0.442279 -0.896878 0
    outer loop
      vertex 9.5 -16.4545 10
      vertex 7.27098 -17.5537 5
      vertex 9.5 -16.4545 5
    endloop
  endfacet
  facet normal 0.831468 -0.555573 0
    outer loop
      vertex 15.0737 -11.5665 10
      vertex 16.4545 -9.5 5
      vertex 16.4545 -9.5 10
    endloop
  endfacet
  facet normal 0.831468 -0.555573 0
    outer loop
      vertex 16.4545 -9.5 5
      vertex 15.0737 -11.5665 10
      vertex 15.0737 -11.5665 5
    endloop
  endfacet
  facet normal 0.946927 -0.321447 0
    outer loop
      vertex 17.5537 -7.27098 10
      vertex 18.3526 -4.91756 5
      vertex 18.3526 -4.91756 10
    endloop
  endfacet
  facet normal 0.946927 -0.321447 0
    outer loop
      vertex 18.3526 -4.91756 5
      vertex 17.5537 -7.27098 10
      vertex 17.5537 -7.27098 5
    endloop
  endfacet
  facet normal -0.555573 -0.831468 0
    outer loop
      vertex -11.5665 -15.0737 5
      vertex -9.5 -16.4545 10
      vertex -11.5665 -15.0737 10
    endloop
  endfacet
  facet normal -0.555573 -0.831468 -0
    outer loop
      vertex -9.5 -16.4545 10
      vertex -11.5665 -15.0737 5
      vertex -9.5 -16.4545 5
    endloop
  endfacet
  facet normal -0.195105 -0.980782 0
    outer loop
      vertex -4.91756 -18.3526 5
      vertex -2.48 -18.8375 10
      vertex -4.91756 -18.3526 10
    endloop
  endfacet
  facet normal -0.195105 -0.980782 -0
    outer loop
      vertex -2.48 -18.8375 10
      vertex -4.91756 -18.3526 5
      vertex -2.48 -18.8375 5
    endloop
  endfacet
  facet normal -0.896878 -0.442279 0
    outer loop
      vertex -16.4545 -9.5 5
      vertex -17.5537 -7.27098 10
      vertex -17.5537 -7.27098 5
    endloop
  endfacet
  facet normal -0.896878 -0.442279 0
    outer loop
      vertex -17.5537 -7.27098 10
      vertex -16.4545 -9.5 5
      vertex -16.4545 -9.5 10
    endloop
  endfacet
  facet normal -0.946927 -0.321447 0
    outer loop
      vertex -17.5537 -7.27098 5
      vertex -18.3526 -4.91756 10
      vertex -18.3526 -4.91756 5
    endloop
  endfacet
  facet normal -0.946927 -0.321447 0
    outer loop
      vertex -18.3526 -4.91756 10
      vertex -17.5537 -7.27098 5
      vertex -17.5537 -7.27098 10
    endloop
  endfacet
  facet normal -0.99786 -0.065384 0
    outer loop
      vertex -18.8375 -2.48 5
      vertex -19 0 10
      vertex -19 0 5
    endloop
  endfacet
  facet normal -0.99786 -0.065384 0
    outer loop
      vertex -19 0 10
      vertex -18.8375 -2.48 5
      vertex -18.8375 -2.48 10
    endloop
  endfacet
  facet normal 0.195105 -0.980782 0
    outer loop
      vertex 2.48 -18.8375 5
      vertex 4.91756 -18.3526 10
      vertex 2.48 -18.8375 10
    endloop
  endfacet
  facet normal 0.195105 -0.980782 0
    outer loop
      vertex 4.91756 -18.3526 10
      vertex 2.48 -18.8375 5
      vertex 4.91756 -18.3526 5
    endloop
  endfacet
  facet normal 0.751826 -0.659362 0
    outer loop
      vertex 13.435 -13.435 10
      vertex 15.0737 -11.5665 5
      vertex 15.0737 -11.5665 10
    endloop
  endfacet
  facet normal 0.751826 -0.659362 0
    outer loop
      vertex 15.0737 -11.5665 5
      vertex 13.435 -13.435 10
      vertex 13.435 -13.435 5
    endloop
  endfacet
  facet normal 0.555573 -0.831468 0
    outer loop
      vertex 9.5 -16.4545 5
      vertex 11.5665 -15.0737 10
      vertex 9.5 -16.4545 10
    endloop
  endfacet
  facet normal 0.555573 -0.831468 0
    outer loop
      vertex 11.5665 -15.0737 10
      vertex 9.5 -16.4545 5
      vertex 11.5665 -15.0737 5
    endloop
  endfacet
  facet normal 0.896878 -0.442279 0
    outer loop
      vertex 16.4545 -9.5 10
      vertex 17.5537 -7.27098 5
      vertex 17.5537 -7.27098 10
    endloop
  endfacet
  facet normal 0.896878 -0.442279 0
    outer loop
      vertex 17.5537 -7.27098 5
      vertex 16.4545 -9.5 10
      vertex 16.4545 -9.5 5
    endloop
  endfacet
  facet normal -0.442279 -0.896878 0
    outer loop
      vertex -9.5 -16.4545 5
      vertex -7.27098 -17.5537 10
      vertex -9.5 -16.4545 10
    endloop
  endfacet
  facet normal -0.442279 -0.896878 -0
    outer loop
      vertex -7.27098 -17.5537 10
      vertex -9.5 -16.4545 5
      vertex -7.27098 -17.5537 5
    endloop
  endfacet
  facet normal -0.065384 -0.99786 0
    outer loop
      vertex -2.48 -18.8375 5
      vertex 0 -19 10
      vertex -2.48 -18.8375 10
    endloop
  endfacet
  facet normal -0.065384 -0.99786 -0
    outer loop
      vertex 0 -19 10
      vertex -2.48 -18.8375 5
      vertex 0 -19 5
    endloop
  endfacet
  facet normal -0.831468 -0.555573 0
    outer loop
      vertex -15.0737 -11.5665 5
      vertex -16.4545 -9.5 10
      vertex -16.4545 -9.5 5
    endloop
  endfacet
  facet normal -0.831468 -0.555573 0
    outer loop
      vertex -16.4545 -9.5 10
      vertex -15.0737 -11.5665 5
      vertex -15.0737 -11.5665 10
    endloop
  endfacet
  facet normal -0.980782 -0.195105 0
    outer loop
      vertex -18.3526 -4.91756 5
      vertex -18.8375 -2.48 10
      vertex -18.8375 -2.48 5
    endloop
  endfacet
  facet normal -0.980782 -0.195105 0
    outer loop
      vertex -18.8375 -2.48 10
      vertex -18.3526 -4.91756 5
      vertex -18.3526 -4.91756 10
    endloop
  endfacet
  facet normal 0.55557 0.83147 -0
    outer loop
      vertex 17.6541 23.0072 0
      vertex 14.5 25.1147 5
      vertex 17.6541 23.0072 5
    endloop
  endfacet
  facet normal 0.55557 0.83147 0
    outer loop
      vertex 14.5 25.1147 5
      vertex 17.6541 23.0072 0
      vertex 14.5 25.1147 0
    endloop
  endfacet
  facet normal -0.321431 0.946933 0
    outer loop
      vertex -7.50575 28.0118 0
      vertex -11.0978 26.7925 5
      vertex -7.50575 28.0118 5
    endloop
  endfacet
  facet normal -0.321431 0.946933 0
    outer loop
      vertex -11.0978 26.7925 5
      vertex -7.50575 28.0118 0
      vertex -11.0978 26.7925 0
    endloop
  endfacet
  facet normal -0.896871 0.442293 0
    outer loop
      vertex -26.7925 11.0978 0
      vertex -25.1147 14.5 5
      vertex -25.1147 14.5 0
    endloop
  endfacet
  facet normal -0.896871 0.442293 0
    outer loop
      vertex -25.1147 14.5 5
      vertex -26.7925 11.0978 0
      vertex -26.7925 11.0978 5
    endloop
  endfacet
  facet normal -0.946933 -0.321431 0
    outer loop
      vertex -26.7925 -11.0978 0
      vertex -28.0118 -7.50575 5
      vertex -28.0118 -7.50575 0
    endloop
  endfacet
  facet normal -0.946933 -0.321431 0
    outer loop
      vertex -28.0118 -7.50575 5
      vertex -26.7925 -11.0978 0
      vertex -26.7925 -11.0978 5
    endloop
  endfacet
  facet normal 0.896871 0.442293 0
    outer loop
      vertex 26.7925 11.0978 5
      vertex 25.1147 14.5 0
      vertex 25.1147 14.5 5
    endloop
  endfacet
  facet normal 0.896871 0.442293 0
    outer loop
      vertex 25.1147 14.5 0
      vertex 26.7925 11.0978 5
      vertex 26.7925 11.0978 0
    endloop
  endfacet
  facet normal 0.83147 0.55557 0
    outer loop
      vertex 25.1147 14.5 5
      vertex 23.0072 17.6541 0
      vertex 23.0072 17.6541 5
    endloop
  endfacet
  facet normal 0.83147 0.55557 0
    outer loop
      vertex 23.0072 17.6541 0
      vertex 25.1147 14.5 5
      vertex 25.1147 14.5 0
    endloop
  endfacet
  facet normal 0.442293 0.896871 -0
    outer loop
      vertex 14.5 25.1147 0
      vertex 11.0978 26.7925 5
      vertex 14.5 25.1147 5
    endloop
  endfacet
  facet normal 0.442293 0.896871 0
    outer loop
      vertex 11.0978 26.7925 5
      vertex 14.5 25.1147 0
      vertex 11.0978 26.7925 0
    endloop
  endfacet
  facet normal 0.0654034 0.997859 -0
    outer loop
      vertex 3.78526 28.7519 0
      vertex 0 29 5
      vertex 3.78526 28.7519 5
    endloop
  endfacet
  facet normal 0.0654034 0.997859 0
    outer loop
      vertex 0 29 5
      vertex 3.78526 28.7519 0
      vertex 0 29 0
    endloop
  endfacet
  facet normal -0.997859 0.0654034 0
    outer loop
      vertex -29 0 0
      vertex -28.7519 3.78526 5
      vertex -28.7519 3.78526 0
    endloop
  endfacet
  facet normal -0.997859 0.0654034 0
    outer loop
      vertex -28.7519 3.78526 5
      vertex -29 0 0
      vertex -29 0 5
    endloop
  endfacet
  facet normal -0.751845 0.65934 0
    outer loop
      vertex -23.0072 17.6541 0
      vertex -20.5061 20.5061 5
      vertex -20.5061 20.5061 0
    endloop
  endfacet
  facet normal -0.751845 0.65934 0
    outer loop
      vertex -20.5061 20.5061 5
      vertex -23.0072 17.6541 0
      vertex -23.0072 17.6541 5
    endloop
  endfacet
  facet normal -0.442293 0.896871 0
    outer loop
      vertex -11.0978 26.7925 0
      vertex -14.5 25.1147 5
      vertex -11.0978 26.7925 5
    endloop
  endfacet
  facet normal -0.442293 0.896871 0
    outer loop
      vertex -14.5 25.1147 5
      vertex -11.0978 26.7925 0
      vertex -14.5 25.1147 0
    endloop
  endfacet
  facet normal -0.0654034 0.997859 0
    outer loop
      vertex 0 29 0
      vertex -3.78526 28.7519 5
      vertex 0 29 5
    endloop
  endfacet
  facet normal -0.0654034 0.997859 0
    outer loop
      vertex -3.78526 28.7519 5
      vertex 0 29 0
      vertex -3.78526 28.7519 0
    endloop
  endfacet
  facet normal 0.997856 0.0654428 0
    outer loop
      vertex 28.8034 3 5
      vertex 28.7519 3.78526 0
      vertex 28.7519 3.78526 5
    endloop
  endfacet
  facet normal 0.997856 0.0654428 0
    outer loop
      vertex 28.7519 3.78526 0
      vertex 28.8034 3 5
      vertex 28.8034 3 0
    endloop
  endfacet
  facet normal 0.946933 -0.321431 0
    outer loop
      vertex 26.7925 -11.0978 5
      vertex 28.0118 -7.50575 0
      vertex 28.0118 -7.50575 5
    endloop
  endfacet
  facet normal 0.946933 -0.321431 0
    outer loop
      vertex 28.0118 -7.50575 0
      vertex 26.7925 -11.0978 5
      vertex 26.7925 -11.0978 0
    endloop
  endfacet
  facet normal 0.55557 -0.83147 0
    outer loop
      vertex 14.5 -25.1147 0
      vertex 17.6541 -23.0072 5
      vertex 14.5 -25.1147 5
    endloop
  endfacet
  facet normal 0.55557 -0.83147 0
    outer loop
      vertex 17.6541 -23.0072 5
      vertex 14.5 -25.1147 0
      vertex 17.6541 -23.0072 0
    endloop
  endfacet
  facet normal -0.0654034 -0.997859 0
    outer loop
      vertex -3.78526 -28.7519 0
      vertex 0 -29 5
      vertex -3.78526 -28.7519 5
    endloop
  endfacet
  facet normal -0.0654034 -0.997859 -0
    outer loop
      vertex 0 -29 5
      vertex -3.78526 -28.7519 0
      vertex 0 -29 0
    endloop
  endfacet
  facet normal -0.65934 -0.751845 0
    outer loop
      vertex -20.5061 -20.5061 0
      vertex -17.6541 -23.0072 5
      vertex -20.5061 -20.5061 5
    endloop
  endfacet
  facet normal -0.65934 -0.751845 -0
    outer loop
      vertex -17.6541 -23.0072 5
      vertex -20.5061 -20.5061 0
      vertex -17.6541 -23.0072 0
    endloop
  endfacet
  facet normal -0.896871 -0.442293 0
    outer loop
      vertex -25.1147 -14.5 0
      vertex -26.7925 -11.0978 5
      vertex -26.7925 -11.0978 0
    endloop
  endfacet
  facet normal -0.896871 -0.442293 0
    outer loop
      vertex -26.7925 -11.0978 5
      vertex -25.1147 -14.5 0
      vertex -25.1147 -14.5 5
    endloop
  endfacet
  facet normal -0.997859 -0.0654034 0
    outer loop
      vertex -28.7519 -3.78526 0
      vertex -29 0 5
      vertex -29 0 0
    endloop
  endfacet
  facet normal -0.997859 -0.0654034 0
    outer loop
      vertex -29 0 5
      vertex -28.7519 -3.78526 0
      vertex -28.7519 -3.78526 5
    endloop
  endfacet
  facet normal 0.980783 0.195103 0
    outer loop
      vertex 28.7519 3.78526 5
      vertex 28.0118 7.50575 0
      vertex 28.0118 7.50575 5
    endloop
  endfacet
  facet normal 0.980783 0.195103 0
    outer loop
      vertex 28.0118 7.50575 0
      vertex 28.7519 3.78526 5
      vertex 28.7519 3.78526 0
    endloop
  endfacet
  facet normal 0.946933 0.321431 0
    outer loop
      vertex 28.0118 7.50575 5
      vertex 26.7925 11.0978 0
      vertex 26.7925 11.0978 5
    endloop
  endfacet
  facet normal 0.946933 0.321431 0
    outer loop
      vertex 26.7925 11.0978 0
      vertex 28.0118 7.50575 5
      vertex 28.0118 7.50575 0
    endloop
  endfacet
  facet normal 0.751845 0.65934 0
    outer loop
      vertex 23.0072 17.6541 5
      vertex 20.5061 20.5061 0
      vertex 20.5061 20.5061 5
    endloop
  endfacet
  facet normal 0.751845 0.65934 0
    outer loop
      vertex 20.5061 20.5061 0
      vertex 23.0072 17.6541 5
      vertex 23.0072 17.6541 0
    endloop
  endfacet
  facet normal 0.65934 0.751845 -0
    outer loop
      vertex 20.5061 20.5061 0
      vertex 17.6541 23.0072 5
      vertex 20.5061 20.5061 5
    endloop
  endfacet
  facet normal 0.65934 0.751845 0
    outer loop
      vertex 17.6541 23.0072 5
      vertex 20.5061 20.5061 0
      vertex 17.6541 23.0072 0
    endloop
  endfacet
  facet normal 0.321431 0.946933 -0
    outer loop
      vertex 11.0978 26.7925 0
      vertex 7.50575 28.0118 5
      vertex 11.0978 26.7925 5
    endloop
  endfacet
  facet normal 0.321431 0.946933 0
    outer loop
      vertex 7.50575 28.0118 5
      vertex 11.0978 26.7925 0
      vertex 7.50575 28.0118 0
    endloop
  endfacet
  facet normal 0.195103 0.980783 -0
    outer loop
      vertex 7.50575 28.0118 0
      vertex 3.78526 28.7519 5
      vertex 7.50575 28.0118 5
    endloop
  endfacet
  facet normal 0.195103 0.980783 0
    outer loop
      vertex 3.78526 28.7519 5
      vertex 7.50575 28.0118 0
      vertex 3.78526 28.7519 0
    endloop
  endfacet
  facet normal 0 0 1
    outer loop
      vertex 18.734 3 5
      vertex 28.7519 3.78526 5
      vertex 28.0118 7.50575 5
    endloop
  endfacet
  facet normal 0 0 1
    outer loop
      vertex 18.3526 4.91756 5
      vertex 28.0118 7.50575 5
      vertex 26.7925 11.0978 5
    endloop
  endfacet
  facet normal 0 0 1
    outer loop
      vertex 17.5537 7.27098 5
      vertex 26.7925 11.0978 5
      vertex 25.1147 14.5 5
    endloop
  endfacet
  facet normal 0 0 1
    outer loop
      vertex 16.4545 9.5 5
      vertex 25.1147 14.5 5
      vertex 23.0072 17.6541 5
    endloop
  endfacet
  facet normal 0 0 1
    outer loop
      vertex 15.0737 11.5665 5
      vertex 23.0072 17.6541 5
      vertex 20.5061 20.5061 5
    endloop
  endfacet
  facet normal 0 0 1
    outer loop
      vertex 26.7925 11.0978 5
      vertex 17.5537 7.27098 5
      vertex 18.3526 4.91756 5
    endloop
  endfacet
  facet normal 0 0 1
    outer loop
      vertex 28.7519 3.78526 5
      vertex 18.734 3 5
      vertex 28.8034 3 5
    endloop
  endfacet
  facet normal 0 0 1
    outer loop
      vertex 13.435 13.435 5
      vertex 20.5061 20.5061 5
      vertex 17.6541 23.0072 5
    endloop
  endfacet
  facet normal 0 -0 1
    outer loop
      vertex 18.734 3 5
      vertex 28.0118 7.50575 5
      vertex 18.3526 4.91756 5
    endloop
  endfacet
  facet normal 0 0 1
    outer loop
      vertex 25.1147 14.5 5
      vertex 16.4545 9.5 5
      vertex 17.5537 7.27098 5
    endloop
  endfacet
  facet normal 0 0 1
    outer loop
      vertex 23.0072 17.6541 5
      vertex 15.0737 11.5665 5
      vertex 16.4545 9.5 5
    endloop
  endfacet
  facet normal 0 0 1
    outer loop
      vertex 11.5665 15.0737 5
      vertex 17.6541 23.0072 5
      vertex 14.5 25.1147 5
    endloop
  endfacet
  facet normal 0 0 1
    outer loop
      vertex 20.5061 20.5061 5
      vertex 13.435 13.435 5
      vertex 15.0737 11.5665 5
    endloop
  endfacet
  facet normal 0 0 1
    outer loop
      vertex 17.6541 23.0072 5
      vertex 11.5665 15.0737 5
      vertex 13.435 13.435 5
    endloop
  endfacet
  facet normal 0 0 1
    outer loop
      vertex 9.5 16.4545 5
      vertex 14.5 25.1147 5
      vertex 11.0978 26.7925 5
    endloop
  endfacet
  facet normal 0 0 1
    outer loop
      vertex 14.5 25.1147 5
      vertex 9.5 16.4545 5
      vertex 11.5665 15.0737 5
    endloop
  endfacet
  facet normal 0 0 1
    outer loop
      vertex 7.27098 17.5537 5
      vertex 11.0978 26.7925 5
      vertex 7.50575 28.0118 5
    endloop
  endfacet
  facet normal 0 0 1
    outer loop
      vertex 11.0978 26.7925 5
      vertex 7.27098 17.5537 5
      vertex 9.5 16.4545 5
    endloop
  endfacet
  facet normal 0 0 1
    outer loop
      vertex 7.50575 28.0118 5
      vertex 4.91756 18.3526 5
      vertex 7.27098 17.5537 5
    endloop
  endfacet
  facet normal 0 0 1
    outer loop
      vertex 3.78526 28.7519 5
      vertex 4.91756 18.3526 5
      vertex 7.50575 28.0118 5
    endloop
  endfacet
  facet normal 0 0 1
    outer loop
      vertex 3.78526 28.7519 5
      vertex 2.48 18.8375 5
      vertex 4.91756 18.3526 5
    endloop
  endfacet
  facet normal 0 0 1
    outer loop
      vertex 0 29 5
      vertex 2.48 18.8375 5
      vertex 3.78526 28.7519 5
    endloop
  endfacet
  facet normal 0 0 1
    outer loop
      vertex 0 29 5
      vertex 0 19 5
      vertex 2.48 18.8375 5
    endloop
  endfacet
  facet normal 0 0 1
    outer loop
      vertex 0 29 5
      vertex -2.48 18.8375 5
      vertex 0 19 5
    endloop
  endfacet
  facet normal -0 0 1
    outer loop
      vertex -3.78526 28.7519 5
      vertex -2.48 18.8375 5
      vertex 0 29 5
    endloop
  endfacet
  facet normal 0 0 1
    outer loop
      vertex -3.78526 28.7519 5
      vertex -4.91756 18.3526 5
      vertex -2.48 18.8375 5
    endloop
  endfacet
  facet normal -0 0 1
    outer loop
      vertex -7.50575 28.0118 5
      vertex -4.91756 18.3526 5
      vertex -3.78526 28.7519 5
    endloop
  endfacet
  facet normal 0 0 1
    outer loop
      vertex -4.91756 18.3526 5
      vertex -7.50575 28.0118 5
      vertex -7.27098 17.5537 5
    endloop
  endfacet
  facet normal -0 0 1
    outer loop
      vertex -11.0978 26.7925 5
      vertex -7.27098 17.5537 5
      vertex -7.50575 28.0118 5
    endloop
  endfacet
  facet normal 0 0 1
    outer loop
      vertex -7.27098 17.5537 5
      vertex -11.0978 26.7925 5
      vertex -9.5 16.4545 5
    endloop
  endfacet
  facet normal -0 0 1
    outer loop
      vertex -14.5 25.1147 5
      vertex -9.5 16.4545 5
      vertex -11.0978 26.7925 5
    endloop
  endfacet
  facet normal 0 0 1
    outer loop
      vertex -9.5 16.4545 5
      vertex -14.5 25.1147 5
      vertex -11.5665 15.0737 5
    endloop
  endfacet
  facet normal -0 0 1
    outer loop
      vertex -17.6541 23.0072 5
      vertex -11.5665 15.0737 5
      vertex -14.5 25.1147 5
    endloop
  endfacet
  facet normal 0 0 1
    outer loop
      vertex -11.5665 15.0737 5
      vertex -17.6541 23.0072 5
      vertex -13.435 13.435 5
    endloop
  endfacet
  facet normal -0 0 1
    outer loop
      vertex -20.5061 20.5061 5
      vertex -13.435 13.435 5
      vertex -17.6541 23.0072 5
    endloop
  endfacet
  facet normal 0 0 1
    outer loop
      vertex -13.435 13.435 5
      vertex -20.5061 20.5061 5
      vertex -15.0737 11.5665 5
    endloop
  endfacet
  facet normal -0 0 1
    outer loop
      vertex -23.0072 17.6541 5
      vertex -15.0737 11.5665 5
      vertex -20.5061 20.5061 5
    endloop
  endfacet
  facet normal 0 0 1
    outer loop
      vertex -15.0737 11.5665 5
      vertex -23.0072 17.6541 5
      vertex -16.4545 9.5 5
    endloop
  endfacet
  facet normal -0 0 1
    outer loop
      vertex -25.1147 14.5 5
      vertex -16.4545 9.5 5
      vertex -23.0072 17.6541 5
    endloop
  endfacet
  facet normal 0 0 1
    outer loop
      vertex -16.4545 9.5 5
      vertex -25.1147 14.5 5
      vertex -17.5537 7.27098 5
    endloop
  endfacet
  facet normal -0 0 1
    outer loop
      vertex -26.7925 11.0978 5
      vertex -17.5537 7.27098 5
      vertex -25.1147 14.5 5
    endloop
  endfacet
  facet normal -0 0 1
    outer loop
      vertex 18.734 -3 5
      vertex 28.7519 -3.78526 5
      vertex 28.8034 -3 5
    endloop
  endfacet
  facet normal 0 0 1
    outer loop
      vertex 28.7519 -3.78526 5
      vertex 18.734 -3 5
      vertex 28.0118 -7.50575 5
    endloop
  endfacet
  facet normal 0 0 1
    outer loop
      vertex 28.0118 -7.50575 5
      vertex 18.3526 -4.91756 5
      vertex 26.7925 -11.0978 5
    endloop
  endfacet
  facet normal -0 0 1
    outer loop
      vertex 17.5537 -7.27098 5
      vertex 26.7925 -11.0978 5
      vertex 18.3526 -4.91756 5
    endloop
  endfacet
  facet normal -0 0 1
    outer loop
      vertex 16.4545 -9.5 5
      vertex 25.1147 -14.5 5
      vertex 17.5537 -7.27098 5
    endloop
  endfacet
  facet normal 0 0 1
    outer loop
      vertex 28.0118 -7.50575 5
      vertex 18.734 -3 5
      vertex 18.3526 -4.91756 5
    endloop
  endfacet
  facet normal 0 0 1
    outer loop
      vertex 26.7925 -11.0978 5
      vertex 17.5537 -7.27098 5
      vertex 25.1147 -14.5 5
    endloop
  endfacet
  facet normal 0 0 1
    outer loop
      vertex 25.1147 -14.5 5
      vertex 16.4545 -9.5 5
      vertex 23.0072 -17.6541 5
    endloop
  endfacet
  facet normal -0 0 1
    outer loop
      vertex 15.0737 -11.5665 5
      vertex 23.0072 -17.6541 5
      vertex 16.4545 -9.5 5
    endloop
  endfacet
  facet normal 0 0 1
    outer loop
      vertex 23.0072 -17.6541 5
      vertex 15.0737 -11.5665 5
      vertex 20.5061 -20.5061 5
    endloop
  endfacet
  facet normal -0 0 1
    outer loop
      vertex 13.435 -13.435 5
      vertex 20.5061 -20.5061 5
      vertex 15.0737 -11.5665 5
    endloop
  endfacet
  facet normal 0 0 1
    outer loop
      vertex 20.5061 -20.5061 5
      vertex 13.435 -13.435 5
      vertex 17.6541 -23.0072 5
    endloop
  endfacet
  facet normal -0 0 1
    outer loop
      vertex 11.5665 -15.0737 5
      vertex 17.6541 -23.0072 5
      vertex 13.435 -13.435 5
    endloop
  endfacet
  facet normal 0 0 1
    outer loop
      vertex 17.6541 -23.0072 5
      vertex 11.5665 -15.0737 5
      vertex 14.5 -25.1147 5
    endloop
  endfacet
  facet normal -0 0 1
    outer loop
      vertex 9.5 -16.4545 5
      vertex 14.5 -25.1147 5
      vertex 11.5665 -15.0737 5
    endloop
  endfacet
  facet normal 0 0 1
    outer loop
      vertex 14.5 -25.1147 5
      vertex 9.5 -16.4545 5
      vertex 11.0978 -26.7925 5
    endloop
  endfacet
  facet normal -0 0 1
    outer loop
      vertex 7.27098 -17.5537 5
      vertex 11.0978 -26.7925 5
      vertex 9.5 -16.4545 5
    endloop
  endfacet
  facet normal 0 0 1
    outer loop
      vertex 11.0978 -26.7925 5
      vertex 7.27098 -17.5537 5
      vertex 7.50575 -28.0118 5
    endloop
  endfacet
  facet normal -0 0 1
    outer loop
      vertex 4.91756 -18.3526 5
      vertex 7.50575 -28.0118 5
      vertex 7.27098 -17.5537 5
    endloop
  endfacet
  facet normal 0 0 1
    outer loop
      vertex 4.91756 -18.3526 5
      vertex 3.78526 -28.7519 5
      vertex 7.50575 -28.0118 5
    endloop
  endfacet
  facet normal -0 0 1
    outer loop
      vertex 2.48 -18.8375 5
      vertex 3.78526 -28.7519 5
      vertex 4.91756 -18.3526 5
    endloop
  endfacet
  facet normal -0 0 1
    outer loop
      vertex 0 -19 5
      vertex 3.78526 -28.7519 5
      vertex 2.48 -18.8375 5
    endloop
  endfacet
  facet normal 0 0 1
    outer loop
      vertex 0 -19 5
      vertex 0 -29 5
      vertex 3.78526 -28.7519 5
    endloop
  endfacet
  facet normal 0 0 1
    outer loop
      vertex -2.48 -18.8375 5
      vertex 0 -29 5
      vertex 0 -19 5
    endloop
  endfacet
  facet normal 0 0 1
    outer loop
      vertex -2.48 -18.8375 5
      vertex -3.78526 -28.7519 5
      vertex 0 -29 5
    endloop
  endfacet
  facet normal 0 0 1
    outer loop
      vertex -4.91756 -18.3526 5
      vertex -3.78526 -28.7519 5
      vertex -2.48 -18.8375 5
    endloop
  endfacet
  facet normal 0 0 1
    outer loop
      vertex -7.50575 -28.0118 5
      vertex -4.91756 -18.3526 5
      vertex -7.27098 -17.5537 5
    endloop
  endfacet
  facet normal 0 0 1
    outer loop
      vertex -4.91756 -18.3526 5
      vertex -7.50575 -28.0118 5
      vertex -3.78526 -28.7519 5
    endloop
  endfacet
  facet normal 0 0 1
    outer loop
      vertex -11.0978 -26.7925 5
      vertex -7.27098 -17.5537 5
      vertex -9.5 -16.4545 5
    endloop
  endfacet
  facet normal 0 0 1
    outer loop
      vertex -7.27098 -17.5537 5
      vertex -11.0978 -26.7925 5
      vertex -7.50575 -28.0118 5
    endloop
  endfacet
  facet normal 0 0 1
    outer loop
      vertex -14.5 -25.1147 5
      vertex -9.5 -16.4545 5
      vertex -11.5665 -15.0737 5
    endloop
  endfacet
  facet normal 0 0 1
    outer loop
      vertex -17.6541 -23.0072 5
      vertex -11.5665 -15.0737 5
      vertex -13.435 -13.435 5
    endloop
  endfacet
  facet normal 0 0 1
    outer loop
      vertex -9.5 -16.4545 5
      vertex -14.5 -25.1147 5
      vertex -11.0978 -26.7925 5
    endloop
  endfacet
  facet normal 0 0 1
    outer loop
      vertex -20.5061 -20.5061 5
      vertex -13.435 -13.435 5
      vertex -15.0737 -11.5665 5
    endloop
  endfacet
  facet normal 0 0 1
    outer loop
      vertex -23.0072 -17.6541 5
      vertex -15.0737 -11.5665 5
      vertex -16.4545 -9.5 5
    endloop
  endfacet
  facet normal 0 0 1
    outer loop
      vertex -25.1147 -14.5 5
      vertex -16.4545 -9.5 5
      vertex -17.5537 -7.27098 5
    endloop
  endfacet
  facet normal 0 0 1
    outer loop
      vertex -11.5665 -15.0737 5
      vertex -17.6541 -23.0072 5
      vertex -14.5 -25.1147 5
    endloop
  endfacet
  facet normal 0 0 1
    outer loop
      vertex -26.7925 -11.0978 5
      vertex -17.5537 -7.27098 5
      vertex -18.3526 -4.91756 5
    endloop
  endfacet
  facet normal 0 0 1
    outer loop
      vertex -28.0118 -7.50575 5
      vertex -18.3526 -4.91756 5
      vertex -18.8375 -2.48 5
    endloop
  endfacet
  facet normal 0 0 1
    outer loop
      vertex -28.7519 -3.78526 5
      vertex -18.8375 -2.48 5
      vertex -19 0 5
    endloop
  endfacet
  facet normal 0 0 1
    outer loop
      vertex -17.5537 7.27098 5
      vertex -26.7925 11.0978 5
      vertex -18.3526 4.91756 5
    endloop
  endfacet
  facet normal 0 0 1
    outer loop
      vertex -13.435 -13.435 5
      vertex -20.5061 -20.5061 5
      vertex -17.6541 -23.0072 5
    endloop
  endfacet
  facet normal -0 0 1
    outer loop
      vertex -28.0118 7.50575 5
      vertex -18.3526 4.91756 5
      vertex -26.7925 11.0978 5
    endloop
  endfacet
  facet normal 0 0 1
    outer loop
      vertex -15.0737 -11.5665 5
      vertex -23.0072 -17.6541 5
      vertex -20.5061 -20.5061 5
    endloop
  endfacet
  facet normal 0 0 1
    outer loop
      vertex -18.3526 4.91756 5
      vertex -28.0118 7.50575 5
      vertex -18.8375 2.48 5
    endloop
  endfacet
  facet normal 0 0 1
    outer loop
      vertex -16.4545 -9.5 5
      vertex -25.1147 -14.5 5
      vertex -23.0072 -17.6541 5
    endloop
  endfacet
  facet normal -0 0 1
    outer loop
      vertex -28.7519 3.78526 5
      vertex -18.8375 2.48 5
      vertex -28.0118 7.50575 5
    endloop
  endfacet
  facet normal 0 0 1
    outer loop
      vertex -17.5537 -7.27098 5
      vertex -26.7925 -11.0978 5
      vertex -25.1147 -14.5 5
    endloop
  endfacet
  facet normal 0 0 1
    outer loop
      vertex -18.8375 2.48 5
      vertex -28.7519 3.78526 5
      vertex -19 0 5
    endloop
  endfacet
  facet normal 0 0 1
    outer loop
      vertex -18.3526 -4.91756 5
      vertex -28.0118 -7.50575 5
      vertex -26.7925 -11.0978 5
    endloop
  endfacet
  facet normal 0 0 1
    outer loop
      vertex -29 0 5
      vertex -19 0 5
      vertex -28.7519 3.78526 5
    endloop
  endfacet
  facet normal 0 0 1
    outer loop
      vertex -18.8375 -2.48 5
      vertex -28.7519 -3.78526 5
      vertex -28.0118 -7.50575 5
    endloop
  endfacet
  facet normal 0 0 1
    outer loop
      vertex -19 0 5
      vertex -29 0 5
      vertex -28.7519 -3.78526 5
    endloop
  endfacet
  facet normal -0.946933 0.321431 0
    outer loop
      vertex -28.0118 7.50575 0
      vertex -26.7925 11.0978 5
      vertex -26.7925 11.0978 0
    endloop
  endfacet
  facet normal -0.946933 0.321431 0
    outer loop
      vertex -26.7925 11.0978 5
      vertex -28.0118 7.50575 0
      vertex -28.0118 7.50575 5
    endloop
  endfacet
  facet normal -0.980783 0.195103 0
    outer loop
      vertex -28.7519 3.78526 0
      vertex -28.0118 7.50575 5
      vertex -28.0118 7.50575 0
    endloop
  endfacet
  facet normal -0.980783 0.195103 0
    outer loop
      vertex -28.0118 7.50575 5
      vertex -28.7519 3.78526 0
      vertex -28.7519 3.78526 5
    endloop
  endfacet
  facet normal -0.83147 0.55557 0
    outer loop
      vertex -25.1147 14.5 0
      vertex -23.0072 17.6541 5
      vertex -23.0072 17.6541 0
    endloop
  endfacet
  facet normal -0.83147 0.55557 0
    outer loop
      vertex -23.0072 17.6541 5
      vertex -25.1147 14.5 0
      vertex -25.1147 14.5 5
    endloop
  endfacet
  facet normal -0.195103 0.980783 0
    outer loop
      vertex -3.78526 28.7519 0
      vertex -7.50575 28.0118 5
      vertex -3.78526 28.7519 5
    endloop
  endfacet
  facet normal -0.195103 0.980783 0
    outer loop
      vertex -7.50575 28.0118 5
      vertex -3.78526 28.7519 0
      vertex -7.50575 28.0118 0
    endloop
  endfacet
  facet normal -0.55557 0.83147 0
    outer loop
      vertex -14.5 25.1147 0
      vertex -17.6541 23.0072 5
      vertex -14.5 25.1147 5
    endloop
  endfacet
  facet normal -0.55557 0.83147 0
    outer loop
      vertex -17.6541 23.0072 5
      vertex -14.5 25.1147 0
      vertex -17.6541 23.0072 0
    endloop
  endfacet
  facet normal -0.65934 0.751845 0
    outer loop
      vertex -17.6541 23.0072 0
      vertex -20.5061 20.5061 5
      vertex -17.6541 23.0072 5
    endloop
  endfacet
  facet normal -0.65934 0.751845 0
    outer loop
      vertex -20.5061 20.5061 5
      vertex -17.6541 23.0072 0
      vertex -20.5061 20.5061 0
    endloop
  endfacet
  facet normal 0.997856 -0.0654428 0
    outer loop
      vertex 28.7519 -3.78526 5
      vertex 28.8034 -3 0
      vertex 28.8034 -3 5
    endloop
  endfacet
  facet normal 0.997856 -0.0654428 0
    outer loop
      vertex 28.8034 -3 0
      vertex 28.7519 -3.78526 5
      vertex 28.7519 -3.78526 0
    endloop
  endfacet
  facet normal 0.0654034 -0.997859 0
    outer loop
      vertex 0 -29 0
      vertex 3.78526 -28.7519 5
      vertex 0 -29 5
    endloop
  endfacet
  facet normal 0.0654034 -0.997859 0
    outer loop
      vertex 3.78526 -28.7519 5
      vertex 0 -29 0
      vertex 3.78526 -28.7519 0
    endloop
  endfacet
  facet normal 0.83147 -0.55557 0
    outer loop
      vertex 23.0072 -17.6541 5
      vertex 25.1147 -14.5 0
      vertex 25.1147 -14.5 5
    endloop
  endfacet
  facet normal 0.83147 -0.55557 0
    outer loop
      vertex 25.1147 -14.5 0
      vertex 23.0072 -17.6541 5
      vertex 23.0072 -17.6541 0
    endloop
  endfacet
  facet normal 0.896871 -0.442293 0
    outer loop
      vertex 25.1147 -14.5 5
      vertex 26.7925 -11.0978 0
      vertex 26.7925 -11.0978 5
    endloop
  endfacet
  facet normal 0.896871 -0.442293 0
    outer loop
      vertex 26.7925 -11.0978 0
      vertex 25.1147 -14.5 5
      vertex 25.1147 -14.5 0
    endloop
  endfacet
  facet normal 0.195103 -0.980783 0
    outer loop
      vertex 3.78526 -28.7519 0
      vertex 7.50575 -28.0118 5
      vertex 3.78526 -28.7519 5
    endloop
  endfacet
  facet normal 0.195103 -0.980783 0
    outer loop
      vertex 7.50575 -28.0118 5
      vertex 3.78526 -28.7519 0
      vertex 7.50575 -28.0118 0
    endloop
  endfacet
  facet normal 0.321431 -0.946933 0
    outer loop
      vertex 7.50575 -28.0118 0
      vertex 11.0978 -26.7925 5
      vertex 7.50575 -28.0118 5
    endloop
  endfacet
  facet normal 0.321431 -0.946933 0
    outer loop
      vertex 11.0978 -26.7925 5
      vertex 7.50575 -28.0118 0
      vertex 11.0978 -26.7925 0
    endloop
  endfacet
  facet normal 0.65934 -0.751845 0
    outer loop
      vertex 17.6541 -23.0072 0
      vertex 20.5061 -20.5061 5
      vertex 17.6541 -23.0072 5
    endloop
  endfacet
  facet normal 0.65934 -0.751845 0
    outer loop
      vertex 20.5061 -20.5061 5
      vertex 17.6541 -23.0072 0
      vertex 20.5061 -20.5061 0
    endloop
  endfacet
  facet normal -0.321431 -0.946933 0
    outer loop
      vertex -11.0978 -26.7925 0
      vertex -7.50575 -28.0118 5
      vertex -11.0978 -26.7925 5
    endloop
  endfacet
  facet normal -0.321431 -0.946933 -0
    outer loop
      vertex -7.50575 -28.0118 5
      vertex -11.0978 -26.7925 0
      vertex -7.50575 -28.0118 0
    endloop
  endfacet
  facet normal -0.442293 -0.896871 0
    outer loop
      vertex -14.5 -25.1147 0
      vertex -11.0978 -26.7925 5
      vertex -14.5 -25.1147 5
    endloop
  endfacet
  facet normal -0.442293 -0.896871 -0
    outer loop
      vertex -11.0978 -26.7925 5
      vertex -14.5 -25.1147 0
      vertex -11.0978 -26.7925 0
    endloop
  endfacet
  facet normal -0.980783 -0.195103 0
    outer loop
      vertex -28.0118 -7.50575 0
      vertex -28.7519 -3.78526 5
      vertex -28.7519 -3.78526 0
    endloop
  endfacet
  facet normal -0.980783 -0.195103 0
    outer loop
      vertex -28.7519 -3.78526 5
      vertex -28.0118 -7.50575 0
      vertex -28.0118 -7.50575 5
    endloop
  endfacet
  facet normal -0.83147 -0.55557 0
    outer loop
      vertex -23.0072 -17.6541 0
      vertex -25.1147 -14.5 5
      vertex -25.1147 -14.5 0
    endloop
  endfacet
  facet normal -0.83147 -0.55557 0
    outer loop
      vertex -25.1147 -14.5 5
      vertex -23.0072 -17.6541 0
      vertex -23.0072 -17.6541 5
    endloop
  endfacet
  facet normal -0.751845 -0.65934 0
    outer loop
      vertex -20.5061 -20.5061 0
      vertex -23.0072 -17.6541 5
      vertex -23.0072 -17.6541 0
    endloop
  endfacet
  facet normal -0.751845 -0.65934 0
    outer loop
      vertex -23.0072 -17.6541 5
      vertex -20.5061 -20.5061 0
      vertex -20.5061 -20.5061 5
    endloop
  endfacet
  facet normal 0.980783 -0.195103 0
    outer loop
      vertex 28.0118 -7.50575 5
      vertex 28.7519 -3.78526 0
      vertex 28.7519 -3.78526 5
    endloop
  endfacet
  facet normal 0.980783 -0.195103 0
    outer loop
      vertex 28.7519 -3.78526 0
      vertex 28.0118 -7.50575 5
      vertex 28.0118 -7.50575 0
    endloop
  endfacet
  facet normal 0.442293 -0.896871 0
    outer loop
      vertex 11.0978 -26.7925 0
      vertex 14.5 -25.1147 5
      vertex 11.0978 -26.7925 5
    endloop
  endfacet
  facet normal 0.442293 -0.896871 0
    outer loop
      vertex 14.5 -25.1147 5
      vertex 11.0978 -26.7925 0
      vertex 14.5 -25.1147 0
    endloop
  endfacet
  facet normal 0.751845 -0.65934 0
    outer loop
      vertex 20.5061 -20.5061 5
      vertex 23.0072 -17.6541 0
      vertex 23.0072 -17.6541 5
    endloop
  endfacet
  facet normal 0.751845 -0.65934 0
    outer loop
      vertex 23.0072 -17.6541 0
      vertex 20.5061 -20.5061 5
      vertex 20.5061 -20.5061 0
    endloop
  endfacet
  facet normal -0.195103 -0.980783 0
    outer loop
      vertex -7.50575 -28.0118 0
      vertex -3.78526 -28.7519 5
      vertex -7.50575 -28.0118 5
    endloop
  endfacet
  facet normal -0.195103 -0.980783 -0
    outer loop
      vertex -3.78526 -28.7519 5
      vertex -7.50575 -28.0118 0
      vertex -3.78526 -28.7519 0
    endloop
  endfacet
  facet normal -0.55557 -0.83147 0
    outer loop
      vertex -17.6541 -23.0072 0
      vertex -14.5 -25.1147 5
      vertex -17.6541 -23.0072 5
    endloop
  endfacet
  facet normal -0.55557 -0.83147 -0
    outer loop
      vertex -14.5 -25.1147 5
      vertex -17.6541 -23.0072 0
      vertex -14.5 -25.1147 0
    endloop
  endfacet
  facet normal 0.980813 -0.19495 0
    outer loop
      vertex 13.0257 0.391578 10
      vertex 13.1022 0.776457 0
      vertex 13.1022 0.776457 10
    endloop
  endfacet
  facet normal 0.980813 -0.19495 0
    outer loop
      vertex 13.1022 0.776457 0
      vertex 13.0257 0.391578 10
      vertex 13.0257 0.391578 0
    endloop
  endfacet
  facet normal 0.442334 -0.89685 0
    outer loop
      vertex 14.5 2.59808 0
      vertex 14.8519 2.77164 10
      vertex 14.5 2.59808 10
    endloop
  endfacet
  facet normal 0.442334 -0.89685 0
    outer loop
      vertex 14.8519 2.77164 10
      vertex 14.5 2.59808 0
      vertex 14.8519 2.77164 0
    endloop
  endfacet
  facet normal 0.946883 -0.321579 0
    outer loop
      vertex 13.1022 0.776457 10
      vertex 13.2284 1.14805 0
      vertex 13.2284 1.14805 10
    endloop
  endfacet
  facet normal 0.946883 -0.321579 0
    outer loop
      vertex 13.2284 1.14805 0
      vertex 13.1022 0.776457 10
      vertex 13.1022 0.776457 0
    endloop
  endfacet
  facet normal 0.0654112 -0.997858 0
    outer loop
      vertex 15.6084 2.97433 0
      vertex 16 3 10
      vertex 15.6084 2.97433 10
    endloop
  endfacet
  facet normal 0.0654112 -0.997858 0
    outer loop
      vertex 16 3 10
      vertex 15.6084 2.97433 0
      vertex 16 3 0
    endloop
  endfacet
  facet normal 0.831485 -0.555547 0
    outer loop
      vertex 13.4019 1.5 10
      vertex 13.6199 1.82628 0
      vertex 13.6199 1.82628 10
    endloop
  endfacet
  facet normal 0.831485 -0.555547 0
    outer loop
      vertex 13.6199 1.82628 0
      vertex 13.4019 1.5 10
      vertex 13.4019 1.5 0
    endloop
  endfacet
  facet normal 0.195062 -0.980791 0
    outer loop
      vertex 15.2235 2.89778 0
      vertex 15.6084 2.97433 10
      vertex 15.2235 2.89778 10
    endloop
  endfacet
  facet normal 0.195062 -0.980791 0
    outer loop
      vertex 15.6084 2.97433 10
      vertex 15.2235 2.89778 0
      vertex 15.6084 2.97433 0
    endloop
  endfacet
  facet normal 0.751768 -0.659428 0
    outer loop
      vertex 13.6199 1.82628 10
      vertex 13.8787 2.12132 0
      vertex 13.8787 2.12132 10
    endloop
  endfacet
  facet normal 0.751768 -0.659428 0
    outer loop
      vertex 13.8787 2.12132 0
      vertex 13.6199 1.82628 10
      vertex 13.6199 1.82628 0
    endloop
  endfacet
  facet normal 0.997853 0.065491 0
    outer loop
      vertex 13.0257 -0.391578 10
      vertex 13 0 0
      vertex 13 0 10
    endloop
  endfacet
  facet normal 0.997853 0.065491 0
    outer loop
      vertex 13 0 0
      vertex 13.0257 -0.391578 10
      vertex 13.0257 -0.391578 0
    endloop
  endfacet
  facet normal 0.896936 -0.44216 0
    outer loop
      vertex 13.2284 1.14805 10
      vertex 13.4019 1.5 0
      vertex 13.4019 1.5 10
    endloop
  endfacet
  facet normal 0.896936 -0.44216 0
    outer loop
      vertex 13.4019 1.5 0
      vertex 13.2284 1.14805 10
      vertex 13.2284 1.14805 0
    endloop
  endfacet
  facet normal 0.321437 -0.946931 0
    outer loop
      vertex 14.8519 2.77164 0
      vertex 15.2235 2.89778 10
      vertex 14.8519 2.77164 10
    endloop
  endfacet
  facet normal 0.321437 -0.946931 0
    outer loop
      vertex 15.2235 2.89778 10
      vertex 14.8519 2.77164 0
      vertex 15.2235 2.89778 0
    endloop
  endfacet
  facet normal 0.659392 -0.751799 0
    outer loop
      vertex 13.8787 2.12132 0
      vertex 14.1737 2.38006 10
      vertex 13.8787 2.12132 10
    endloop
  endfacet
  facet normal 0.659392 -0.751799 0
    outer loop
      vertex 14.1737 2.38006 10
      vertex 13.8787 2.12132 0
      vertex 14.1737 2.38006 0
    endloop
  endfacet
  facet normal 0.555558 -0.831477 0
    outer loop
      vertex 14.1737 2.38006 0
      vertex 14.5 2.59808 10
      vertex 14.1737 2.38006 10
    endloop
  endfacet
  facet normal 0.555558 -0.831477 0
    outer loop
      vertex 14.5 2.59808 10
      vertex 14.1737 2.38006 0
      vertex 14.5 2.59808 0
    endloop
  endfacet
  facet normal 0.980813 0.19495 0
    outer loop
      vertex 13.1022 -0.776457 10
      vertex 13.0257 -0.391578 0
      vertex 13.0257 -0.391578 10
    endloop
  endfacet
  facet normal 0.980813 0.19495 0
    outer loop
      vertex 13.0257 -0.391578 0
      vertex 13.1022 -0.776457 10
      vertex 13.1022 -0.776457 0
    endloop
  endfacet
  facet normal 0.831485 0.555547 0
    outer loop
      vertex 13.6199 -1.82628 10
      vertex 13.4019 -1.5 0
      vertex 13.4019 -1.5 10
    endloop
  endfacet
  facet normal 0.831485 0.555547 0
    outer loop
      vertex 13.4019 -1.5 0
      vertex 13.6199 -1.82628 10
      vertex 13.6199 -1.82628 0
    endloop
  endfacet
  facet normal 0.997853 -0.065491 0
    outer loop
      vertex 13 0 10
      vertex 13.0257 0.391578 0
      vertex 13.0257 0.391578 10
    endloop
  endfacet
  facet normal 0.997853 -0.065491 0
    outer loop
      vertex 13.0257 0.391578 0
      vertex 13 0 10
      vertex 13 0 0
    endloop
  endfacet
  facet normal 0.896936 0.44216 0
    outer loop
      vertex 13.4019 -1.5 10
      vertex 13.2284 -1.14805 0
      vertex 13.2284 -1.14805 10
    endloop
  endfacet
  facet normal 0.896936 0.44216 0
    outer loop
      vertex 13.2284 -1.14805 0
      vertex 13.4019 -1.5 10
      vertex 13.4019 -1.5 0
    endloop
  endfacet
  facet normal 0.946883 0.321579 0
    outer loop
      vertex 13.2284 -1.14805 10
      vertex 13.1022 -0.776457 0
      vertex 13.1022 -0.776457 10
    endloop
  endfacet
  facet normal 0.946883 0.321579 0
    outer loop
      vertex 13.1022 -0.776457 0
      vertex 13.2284 -1.14805 10
      vertex 13.2284 -1.14805 0
    endloop
  endfacet
  facet normal 0.555558 0.831477 -0
    outer loop
      vertex 14.5 -2.59808 0
      vertex 14.1737 -2.38006 10
      vertex 14.5 -2.59808 10
    endloop
  endfacet
  facet normal 0.555558 0.831477 0
    outer loop
      vertex 14.1737 -2.38006 10
      vertex 14.5 -2.59808 0
      vertex 14.1737 -2.38006 0
    endloop
  endfacet
  facet normal 0.195062 0.980791 -0
    outer loop
      vertex 15.6084 -2.97433 0
      vertex 15.2235 -2.89778 10
      vertex 15.6084 -2.97433 10
    endloop
  endfacet
  facet normal 0.195062 0.980791 0
    outer loop
      vertex 15.2235 -2.89778 10
      vertex 15.6084 -2.97433 0
      vertex 15.2235 -2.89778 0
    endloop
  endfacet
  facet normal 0.751768 0.659428 0
    outer loop
      vertex 13.8787 -2.12132 10
      vertex 13.6199 -1.82628 0
      vertex 13.6199 -1.82628 10
    endloop
  endfacet
  facet normal 0.751768 0.659428 0
    outer loop
      vertex 13.6199 -1.82628 0
      vertex 13.8787 -2.12132 10
      vertex 13.8787 -2.12132 0
    endloop
  endfacet
  facet normal 0.659392 0.751799 -0
    outer loop
      vertex 14.1737 -2.38006 0
      vertex 13.8787 -2.12132 10
      vertex 14.1737 -2.38006 10
    endloop
  endfacet
  facet normal 0.659392 0.751799 0
    outer loop
      vertex 13.8787 -2.12132 10
      vertex 14.1737 -2.38006 0
      vertex 13.8787 -2.12132 0
    endloop
  endfacet
  facet normal 0.442334 0.89685 -0
    outer loop
      vertex 14.8519 -2.77164 0
      vertex 14.5 -2.59808 10
      vertex 14.8519 -2.77164 10
    endloop
  endfacet
  facet normal 0.442334 0.89685 0
    outer loop
      vertex 14.5 -2.59808 10
      vertex 14.8519 -2.77164 0
      vertex 14.5 -2.59808 0
    endloop
  endfacet
  facet normal 0.0654112 0.997858 -0
    outer loop
      vertex 16 -3 0
      vertex 15.6084 -2.97433 10
      vertex 16 -3 10
    endloop
  endfacet
  facet normal 0.0654112 0.997858 0
    outer loop
      vertex 15.6084 -2.97433 10
      vertex 16 -3 0
      vertex 15.6084 -2.97433 0
    endloop
  endfacet
  facet normal 0.321437 0.946931 -0
    outer loop
      vertex 15.2235 -2.89778 0
      vertex 14.8519 -2.77164 10
      vertex 15.2235 -2.89778 10
    endloop
  endfacet
  facet normal 0.321437 0.946931 0
    outer loop
      vertex 14.8519 -2.77164 10
      vertex 15.2235 -2.89778 0
      vertex 14.8519 -2.77164 0
    endloop
  endfacet
  facet normal 0 1 0
    outer loop
      vertex 28.8034 -3 5
      vertex 28.8034 -3 0
      vertex 18.734 -3 5
    endloop
  endfacet
  facet normal 0 1 -0
    outer loop
      vertex 18.734 -3 5
      vertex 16 -3 10
      vertex 18.734 -3 10
    endloop
  endfacet
  facet normal 0 1 0
    outer loop
      vertex 18.734 -3 5
      vertex 16 -3 0
      vertex 16 -3 10
    endloop
  endfacet
  facet normal 0 1 0
    outer loop
      vertex 16 -3 0
      vertex 18.734 -3 5
      vertex 28.8034 -3 0
    endloop
  endfacet
  facet normal 0 -1 0
    outer loop
      vertex 16 3 10
      vertex 18.734 3 5
      vertex 18.734 3 10
    endloop
  endfacet
  facet normal 0 -1 0
    outer loop
      vertex 16 3 0
      vertex 18.734 3 5
      vertex 16 3 10
    endloop
  endfacet
  facet normal 0 -1 0
    outer loop
      vertex 28.8034 3 0
      vertex 18.734 3 5
      vertex 16 3 0
    endloop
  endfacet
  facet normal 0 -1 0
    outer loop
      vertex 18.734 3 5
      vertex 28.8034 3 0
      vertex 28.8034 3 5
    endloop
  endfacet
endsolid OpenSCAD_Model
