solid OpenSCAD_Model
  facet normal 0.555567 0.831472 -0
    outer loop
      vertex 5.60061 7.29885 5
      vertex 4.6 7.96743 10
      vertex 5.60061 7.29885 10
    endloop
  endfacet
  facet normal 0.555567 0.831472 0
    outer loop
      vertex 4.6 7.96743 10
      vertex 5.60061 7.29885 5
      vertex 4.6 7.96743 5
    endloop
  endfacet
  facet normal -0.94693 0.321441 0
    outer loop
      vertex -8.88652 2.38113 5
      vertex -8.49969 3.52069 10
      vertex -8.49969 3.52069 5
    endloop
  endfacet
  facet normal -0.94693 0.321441 0
    outer loop
      vertex -8.49969 3.52069 10
      vertex -8.88652 2.38113 5
      vertex -8.88652 2.38113 10
    endloop
  endfacet
  facet normal -0.321441 -0.94693 0
    outer loop
      vertex -3.52069 -8.49969 5
      vertex -2.38113 -8.88652 10
      vertex -3.52069 -8.49969 10
    endloop
  endfacet
  facet normal -0.321441 -0.94693 -0
    outer loop
      vertex -2.38113 -8.88652 10
      vertex -3.52069 -8.49969 5
      vertex -2.38113 -8.88652 5
    endloop
  endfacet
  facet normal -0.321441 0.94693 0
    outer loop
      vertex -2.38113 8.88652 5
      vertex -3.52069 8.49969 10
      vertex -2.38113 8.88652 10
    endloop
  endfacet
  facet normal -0.321441 0.94693 0
    outer loop
      vertex -3.52069 8.49969 10
      vertex -2.38113 8.88652 5
      vertex -3.52069 8.49969 5
    endloop
  endfacet
  facet normal -0.896872 0.442291 0
    outer loop
      vertex -8.49969 3.52069 5
      vertex -7.96743 4.6 10
      vertex -7.96743 4.6 5
    endloop
  endfacet
  facet normal -0.896872 0.442291 0
    outer loop
      vertex -7.96743 4.6 10
      vertex -8.49969 3.52069 5
      vertex -8.49969 3.52069 10
    endloop
  endfacet
  facet normal -0.442291 -0.896872 0
    outer loop
      vertex -4.6 -7.96743 5
      vertex -3.52069 -8.49969 10
      vertex -4.6 -7.96743 10
    endloop
  endfacet
  facet normal -0.442291 -0.896872 -0
    outer loop
      vertex -3.52069 -8.49969 10
      vertex -4.6 -7.96743 5
      vertex -3.52069 -8.49969 5
    endloop
  endfacet
  facet normal 0.896853 0.442328 0
    outer loop
      vertex 8.01675 4.5 10
      vertex 7.96743 4.6 5
      vertex 7.96743 4.6 10
    endloop
  endfacet
  facet normal 0.896853 0.442328 0
    outer loop
      vertex 7.96743 4.6 5
      vertex 8.01675 4.5 10
      vertex 8.01675 4.5 5
    endloop
  endfacet
  facet normal 0.831472 0.555567 0
    outer loop
      vertex 7.96743 4.6 10
      vertex 7.29885 5.60061 5
      vertex 7.29885 5.60061 10
    endloop
  endfacet
  facet normal 0.831472 0.555567 0
    outer loop
      vertex 7.29885 5.60061 5
      vertex 7.96743 4.6 10
      vertex 7.96743 4.6 5
    endloop
  endfacet
  facet normal 0.321441 0.94693 -0
    outer loop
      vertex 3.52069 8.49969 5
      vertex 2.38113 8.88652 10
      vertex 3.52069 8.49969 10
    endloop
  endfacet
  facet normal 0.321441 0.94693 0
    outer loop
      vertex 2.38113 8.88652 10
      vertex 3.52069 8.49969 5
      vertex 2.38113 8.88652 5
    endloop
  endfacet
  facet normal 0.0654054 0.997859 -0
    outer loop
      vertex 1.20084 9.12129 5
      vertex 0 9.2 10
      vertex 1.20084 9.12129 10
    endloop
  endfacet
  facet normal 0.0654054 0.997859 0
    outer loop
      vertex 0 9.2 10
      vertex 1.20084 9.12129 5
      vertex 0 9.2 5
    endloop
  endfacet
  facet normal -0.751837 0.65935 0
    outer loop
      vertex -7.29885 5.60061 5
      vertex -6.50538 6.50538 10
      vertex -6.50538 6.50538 5
    endloop
  endfacet
  facet normal -0.751837 0.65935 0
    outer loop
      vertex -6.50538 6.50538 10
      vertex -7.29885 5.60061 5
      vertex -7.29885 5.60061 10
    endloop
  endfacet
  facet normal -0.195087 0.980786 0
    outer loop
      vertex -1.20084 9.12129 5
      vertex -2.38113 8.88652 10
      vertex -1.20084 9.12129 10
    endloop
  endfacet
  facet normal -0.195087 0.980786 0
    outer loop
      vertex -2.38113 8.88652 10
      vertex -1.20084 9.12129 5
      vertex -2.38113 8.88652 5
    endloop
  endfacet
  facet normal -0.65935 0.751837 0
    outer loop
      vertex -5.60061 7.29885 5
      vertex -6.50538 6.50538 10
      vertex -5.60061 7.29885 10
    endloop
  endfacet
  facet normal -0.65935 0.751837 0
    outer loop
      vertex -6.50538 6.50538 10
      vertex -5.60061 7.29885 5
      vertex -6.50538 6.50538 5
    endloop
  endfacet
  facet normal 0.321441 -0.94693 0
    outer loop
      vertex 2.38113 -8.88652 5
      vertex 3.52069 -8.49969 10
      vertex 2.38113 -8.88652 10
    endloop
  endfacet
  facet normal 0.321441 -0.94693 0
    outer loop
      vertex 3.52069 -8.49969 10
      vertex 2.38113 -8.88652 5
      vertex 3.52069 -8.49969 5
    endloop
  endfacet
  facet normal 0.831472 -0.555567 0
    outer loop
      vertex 7.29885 -5.60061 10
      vertex 7.96743 -4.6 5
      vertex 7.96743 -4.6 10
    endloop
  endfacet
  facet normal 0.831472 -0.555567 0
    outer loop
      vertex 7.96743 -4.6 5
      vertex 7.29885 -5.60061 10
      vertex 7.29885 -5.60061 5
    endloop
  endfacet
  facet normal -0.195087 -0.980786 0
    outer loop
      vertex -2.38113 -8.88652 5
      vertex -1.20084 -9.12129 10
      vertex -2.38113 -8.88652 10
    endloop
  endfacet
  facet normal -0.195087 -0.980786 -0
    outer loop
      vertex -1.20084 -9.12129 10
      vertex -2.38113 -8.88652 5
      vertex -1.20084 -9.12129 5
    endloop
  endfacet
  facet normal -0.65935 -0.751837 0
    outer loop
      vertex -6.50538 -6.50538 5
      vertex -5.60061 -7.29885 10
      vertex -6.50538 -6.50538 10
    endloop
  endfacet
  facet normal -0.65935 -0.751837 -0
    outer loop
      vertex -5.60061 -7.29885 10
      vertex -6.50538 -6.50538 5
      vertex -5.60061 -7.29885 5
    endloop
  endfacet
  facet normal -0.980786 -0.195087 0
    outer loop
      vertex -8.88652 -2.38113 5
      vertex -9.12129 -1.20084 10
      vertex -9.12129 -1.20084 5
    endloop
  endfacet
  facet normal -0.980786 -0.195087 0
    outer loop
      vertex -9.12129 -1.20084 10
      vertex -8.88652 -2.38113 5
      vertex -8.88652 -2.38113 10
    endloop
  endfacet
  facet normal 0 0 -1
    outer loop
      vertex 17.7385 -7.34752 0
      vertex 18.6391 -4.5 0
      vertex 18.5458 -4.96933 0
    endloop
  endfacet
  facet normal 0 0 -1
    outer loop
      vertex -4.3 -4.5 0
      vertex 17.7385 -7.34752 0
      vertex 16.6277 -9.6 0
    endloop
  endfacet
  facet normal 0 0 -1
    outer loop
      vertex -4.3 -4.5 0
      vertex 16.6277 -9.6 0
      vertex 15.2324 -11.6882 0
    endloop
  endfacet
  facet normal 0 0 -1
    outer loop
      vertex -4.3 -4.5 0
      vertex 15.2324 -11.6882 0
      vertex 13.5764 -13.5764 0
    endloop
  endfacet
  facet normal 0 0 -1
    outer loop
      vertex -4.3 -4.5 0
      vertex 13.5764 -13.5764 0
      vertex 11.6882 -15.2324 0
    endloop
  endfacet
  facet normal 0 0 -1
    outer loop
      vertex -4.3 -4.5 0
      vertex 11.6882 -15.2324 0
      vertex 9.6 -16.6277 0
    endloop
  endfacet
  facet normal 0 0 -1
    outer loop
      vertex -4.3 -4.5 0
      vertex 9.6 -16.6277 0
      vertex 7.34752 -17.7385 0
    endloop
  endfacet
  facet normal 0 0 -1
    outer loop
      vertex -4.3 -4.5 0
      vertex 7.34752 -17.7385 0
      vertex 4.96933 -18.5458 0
    endloop
  endfacet
  facet normal 0 0 -1
    outer loop
      vertex -4.3 -4.5 0
      vertex 4.96933 -18.5458 0
      vertex 2.5061 -19.0357 0
    endloop
  endfacet
  facet normal 0 0 -1
    outer loop
      vertex -4.3 -4.5 0
      vertex 2.5061 -19.0357 0
      vertex 0 -19.2 0
    endloop
  endfacet
  facet normal 0 0 -1
    outer loop
      vertex -4.3 -4.5 0
      vertex 0 -19.2 0
      vertex -2.5061 -19.0357 0
    endloop
  endfacet
  facet normal 0 0 -1
    outer loop
      vertex 17.7385 -7.34752 0
      vertex -4.3 -4.5 0
      vertex 18.6391 -4.5 0
    endloop
  endfacet
  facet normal 0 0 -1
    outer loop
      vertex -4.96933 -18.5458 0
      vertex -4.3 -4.5 0
      vertex -2.5061 -19.0357 0
    endloop
  endfacet
  facet normal 0 0 -1
    outer loop
      vertex -7.34752 -17.7385 0
      vertex -4.3 -4.5 0
      vertex -4.96933 -18.5458 0
    endloop
  endfacet
  facet normal -0 0 -1
    outer loop
      vertex -4.3 -4.5 0
      vertex -7.34752 -17.7385 0
      vertex -4.88737 -4.4615 0
    endloop
  endfacet
  facet normal 0 0 -1
    outer loop
      vertex -9.6 -16.6277 0
      vertex -4.88737 -4.4615 0
      vertex -7.34752 -17.7385 0
    endloop
  endfacet
  facet normal -0 0 -1
    outer loop
      vertex -4.88737 -4.4615 0
      vertex -9.6 -16.6277 0
      vertex -5.46469 -4.34667 0
    endloop
  endfacet
  facet normal 0 0 -1
    outer loop
      vertex -11.6882 -15.2324 0
      vertex -5.46469 -4.34667 0
      vertex -9.6 -16.6277 0
    endloop
  endfacet
  facet normal -0 0 -1
    outer loop
      vertex -5.46469 -4.34667 0
      vertex -11.6882 -15.2324 0
      vertex -6.02207 -4.15746 0
    endloop
  endfacet
  facet normal 0 0 -1
    outer loop
      vertex -13.5764 -13.5764 0
      vertex -6.02207 -4.15746 0
      vertex -11.6882 -15.2324 0
    endloop
  endfacet
  facet normal -0 0 -1
    outer loop
      vertex -6.02207 -4.15746 0
      vertex -13.5764 -13.5764 0
      vertex -6.55 -3.89711 0
    endloop
  endfacet
  facet normal 0 0 -1
    outer loop
      vertex -15.2324 -11.6882 0
      vertex -6.55 -3.89711 0
      vertex -13.5764 -13.5764 0
    endloop
  endfacet
  facet normal -0 0 -1
    outer loop
      vertex -6.55 -3.89711 0
      vertex -15.2324 -11.6882 0
      vertex -7.03943 -3.57009 0
    endloop
  endfacet
  facet normal -0 0 -1
    outer loop
      vertex -7.03943 -3.57009 0
      vertex -15.2324 -11.6882 0
      vertex -7.48198 -3.18198 0
    endloop
  endfacet
  facet normal 0 0 -1
    outer loop
      vertex -16.6277 -9.6 0
      vertex -7.48198 -3.18198 0
      vertex -15.2324 -11.6882 0
    endloop
  endfacet
  facet normal 0 0 -1
    outer loop
      vertex -17.7385 -7.34752 0
      vertex -7.87009 -2.73943 0
      vertex -16.6277 -9.6 0
    endloop
  endfacet
  facet normal -0 0 -1
    outer loop
      vertex -7.48198 -3.18198 0
      vertex -16.6277 -9.6 0
      vertex -7.87009 -2.73943 0
    endloop
  endfacet
  facet normal 0 0 -1
    outer loop
      vertex 18.6391 4.5 0
      vertex 17.7385 7.34752 0
      vertex 18.5458 4.96933 0
    endloop
  endfacet
  facet normal 0 0 -1
    outer loop
      vertex -4.3 4.5 0
      vertex 17.7385 7.34752 0
      vertex 18.6391 4.5 0
    endloop
  endfacet
  facet normal -0 0 -1
    outer loop
      vertex 17.7385 7.34752 0
      vertex -4.3 4.5 0
      vertex 16.6277 9.6 0
    endloop
  endfacet
  facet normal -0 0 -1
    outer loop
      vertex 16.6277 9.6 0
      vertex -4.3 4.5 0
      vertex 15.2324 11.6882 0
    endloop
  endfacet
  facet normal -0 0 -1
    outer loop
      vertex 15.2324 11.6882 0
      vertex -4.3 4.5 0
      vertex 13.5764 13.5764 0
    endloop
  endfacet
  facet normal -0 0 -1
    outer loop
      vertex 13.5764 13.5764 0
      vertex -4.3 4.5 0
      vertex 11.6882 15.2324 0
    endloop
  endfacet
  facet normal -0 0 -1
    outer loop
      vertex 11.6882 15.2324 0
      vertex -4.3 4.5 0
      vertex 9.6 16.6277 0
    endloop
  endfacet
  facet normal -0 0 -1
    outer loop
      vertex 9.6 16.6277 0
      vertex -4.3 4.5 0
      vertex 7.34752 17.7385 0
    endloop
  endfacet
  facet normal -0 0 -1
    outer loop
      vertex 7.34752 17.7385 0
      vertex -4.3 4.5 0
      vertex 4.96933 18.5458 0
    endloop
  endfacet
  facet normal -0 0 -1
    outer loop
      vertex 4.96933 18.5458 0
      vertex -4.3 4.5 0
      vertex 2.5061 19.0357 0
    endloop
  endfacet
  facet normal -0 0 -1
    outer loop
      vertex 2.5061 19.0357 0
      vertex -4.3 4.5 0
      vertex 0 19.2 0
    endloop
  endfacet
  facet normal 0 0 -1
    outer loop
      vertex 0 19.2 0
      vertex -4.3 4.5 0
      vertex -2.5061 19.0357 0
    endloop
  endfacet
  facet normal 0 0 -1
    outer loop
      vertex -7.34752 17.7385 0
      vertex -4.3 4.5 0
      vertex -4.88737 4.4615 0
    endloop
  endfacet
  facet normal 0 0 -1
    outer loop
      vertex -4.3 4.5 0
      vertex -4.96933 18.5458 0
      vertex -2.5061 19.0357 0
    endloop
  endfacet
  facet normal 0 0 -1
    outer loop
      vertex -9.6 16.6277 0
      vertex -4.88737 4.4615 0
      vertex -5.46469 4.34667 0
    endloop
  endfacet
  facet normal 0 0 -1
    outer loop
      vertex -11.6882 15.2324 0
      vertex -5.46469 4.34667 0
      vertex -6.02207 4.15746 0
    endloop
  endfacet
  facet normal 0 0 -1
    outer loop
      vertex -13.5764 13.5764 0
      vertex -6.02207 4.15746 0
      vertex -6.55 3.89711 0
    endloop
  endfacet
  facet normal 0 0 -1
    outer loop
      vertex -15.2324 11.6882 0
      vertex -6.55 3.89711 0
      vertex -7.03943 3.57009 0
    endloop
  endfacet
  facet normal 0 0 -1
    outer loop
      vertex -4.3 4.5 0
      vertex -7.34752 17.7385 0
      vertex -4.96933 18.5458 0
    endloop
  endfacet
  facet normal 0 0 -1
    outer loop
      vertex -15.2324 11.6882 0
      vertex -7.03943 3.57009 0
      vertex -7.48198 3.18198 0
    endloop
  endfacet
  facet normal 0 0 -1
    outer loop
      vertex -16.6277 9.6 0
      vertex -7.48198 3.18198 0
      vertex -7.87009 2.73943 0
    endloop
  endfacet
  facet normal 0 0 -1
    outer loop
      vertex -17.7385 7.34752 0
      vertex -7.87009 2.73943 0
      vertex -8.19711 2.25 0
    endloop
  endfacet
  facet normal 0 0 -1
    outer loop
      vertex -18.5458 4.96933 0
      vertex -8.19711 2.25 0
      vertex -8.45746 1.72207 0
    endloop
  endfacet
  facet normal 0 0 -1
    outer loop
      vertex -18.5458 4.96933 0
      vertex -8.45746 1.72207 0
      vertex -8.64667 1.16469 0
    endloop
  endfacet
  facet normal 0 0 -1
    outer loop
      vertex -19.0357 2.5061 0
      vertex -8.64667 1.16469 0
      vertex -8.7615 0.587367 0
    endloop
  endfacet
  facet normal 0 0 -1
    outer loop
      vertex -4.88737 4.4615 0
      vertex -9.6 16.6277 0
      vertex -7.34752 17.7385 0
    endloop
  endfacet
  facet normal 0 0 -1
    outer loop
      vertex -19.2 0 0
      vertex -8.7615 0.587367 0
      vertex -8.8 0 0
    endloop
  endfacet
  facet normal -0 0 -1
    outer loop
      vertex -7.87009 -2.73943 0
      vertex -17.7385 -7.34752 0
      vertex -8.19711 -2.25 0
    endloop
  endfacet
  facet normal 0 0 -1
    outer loop
      vertex -18.5458 -4.96933 0
      vertex -8.19711 -2.25 0
      vertex -17.7385 -7.34752 0
    endloop
  endfacet
  facet normal 0 0 -1
    outer loop
      vertex -5.46469 4.34667 0
      vertex -11.6882 15.2324 0
      vertex -9.6 16.6277 0
    endloop
  endfacet
  facet normal -0 0 -1
    outer loop
      vertex -8.19711 -2.25 0
      vertex -18.5458 -4.96933 0
      vertex -8.45746 -1.72207 0
    endloop
  endfacet
  facet normal 0 0 -1
    outer loop
      vertex -6.02207 4.15746 0
      vertex -13.5764 13.5764 0
      vertex -11.6882 15.2324 0
    endloop
  endfacet
  facet normal -0 0 -1
    outer loop
      vertex -8.45746 -1.72207 0
      vertex -18.5458 -4.96933 0
      vertex -8.64667 -1.16469 0
    endloop
  endfacet
  facet normal 0 0 -1
    outer loop
      vertex -6.55 3.89711 0
      vertex -15.2324 11.6882 0
      vertex -13.5764 13.5764 0
    endloop
  endfacet
  facet normal 0 0 -1
    outer loop
      vertex -19.0357 -2.5061 0
      vertex -8.64667 -1.16469 0
      vertex -18.5458 -4.96933 0
    endloop
  endfacet
  facet normal 0 0 -1
    outer loop
      vertex -7.48198 3.18198 0
      vertex -16.6277 9.6 0
      vertex -15.2324 11.6882 0
    endloop
  endfacet
  facet normal -0 0 -1
    outer loop
      vertex -8.64667 -1.16469 0
      vertex -19.0357 -2.5061 0
      vertex -8.7615 -0.587367 0
    endloop
  endfacet
  facet normal 0 0 -1
    outer loop
      vertex -7.87009 2.73943 0
      vertex -17.7385 7.34752 0
      vertex -16.6277 9.6 0
    endloop
  endfacet
  facet normal 0 0 -1
    outer loop
      vertex -19.2 0 0
      vertex -8.7615 -0.587367 0
      vertex -19.0357 -2.5061 0
    endloop
  endfacet
  facet normal 0 0 -1
    outer loop
      vertex -8.19711 2.25 0
      vertex -18.5458 4.96933 0
      vertex -17.7385 7.34752 0
    endloop
  endfacet
  facet normal 0 0 -1
    outer loop
      vertex -8.7615 -0.587367 0
      vertex -19.2 0 0
      vertex -8.8 0 0
    endloop
  endfacet
  facet normal 0 0 -1
    outer loop
      vertex -8.64667 1.16469 0
      vertex -19.0357 2.5061 0
      vertex -18.5458 4.96933 0
    endloop
  endfacet
  facet normal -0 0 -1
    outer loop
      vertex -8.7615 0.587367 0
      vertex -19.2 0 0
      vertex -19.0357 2.5061 0
    endloop
  endfacet
  facet normal -0.751837 -0.65935 0
    outer loop
      vertex -6.50538 -6.50538 5
      vertex -7.29885 -5.60061 10
      vertex -7.29885 -5.60061 5
    endloop
  endfacet
  facet normal -0.751837 -0.65935 0
    outer loop
      vertex -7.29885 -5.60061 10
      vertex -6.50538 -6.50538 5
      vertex -6.50538 -6.50538 10
    endloop
  endfacet
  facet normal 0.751837 0.65935 0
    outer loop
      vertex 7.29885 5.60061 10
      vertex 6.50538 6.50538 5
      vertex 6.50538 6.50538 10
    endloop
  endfacet
  facet normal 0.751837 0.65935 0
    outer loop
      vertex 6.50538 6.50538 5
      vertex 7.29885 5.60061 10
      vertex 7.29885 5.60061 5
    endloop
  endfacet
  facet normal 0.65935 0.751837 -0
    outer loop
      vertex 6.50538 6.50538 5
      vertex 5.60061 7.29885 10
      vertex 6.50538 6.50538 10
    endloop
  endfacet
  facet normal 0.65935 0.751837 0
    outer loop
      vertex 5.60061 7.29885 10
      vertex 6.50538 6.50538 5
      vertex 5.60061 7.29885 5
    endloop
  endfacet
  facet normal 0.442291 0.896872 -0
    outer loop
      vertex 4.6 7.96743 5
      vertex 3.52069 8.49969 10
      vertex 4.6 7.96743 10
    endloop
  endfacet
  facet normal 0.442291 0.896872 0
    outer loop
      vertex 3.52069 8.49969 10
      vertex 4.6 7.96743 5
      vertex 3.52069 8.49969 5
    endloop
  endfacet
  facet normal 0.195087 0.980786 -0
    outer loop
      vertex 2.38113 8.88652 5
      vertex 1.20084 9.12129 10
      vertex 2.38113 8.88652 10
    endloop
  endfacet
  facet normal 0.195087 0.980786 0
    outer loop
      vertex 1.20084 9.12129 10
      vertex 2.38113 8.88652 5
      vertex 1.20084 9.12129 5
    endloop
  endfacet
  facet normal -0.997859 0.0654054 0
    outer loop
      vertex -9.2 0 5
      vertex -9.12129 1.20084 10
      vertex -9.12129 1.20084 5
    endloop
  endfacet
  facet normal -0.997859 0.0654054 0
    outer loop
      vertex -9.12129 1.20084 10
      vertex -9.2 0 5
      vertex -9.2 0 10
    endloop
  endfacet
  facet normal -0.831472 0.555567 0
    outer loop
      vertex -7.96743 4.6 5
      vertex -7.29885 5.60061 10
      vertex -7.29885 5.60061 5
    endloop
  endfacet
  facet normal -0.831472 0.555567 0
    outer loop
      vertex -7.29885 5.60061 10
      vertex -7.96743 4.6 5
      vertex -7.96743 4.6 10
    endloop
  endfacet
  facet normal -0.0654054 0.997859 0
    outer loop
      vertex 0 9.2 5
      vertex -1.20084 9.12129 10
      vertex 0 9.2 10
    endloop
  endfacet
  facet normal -0.0654054 0.997859 0
    outer loop
      vertex -1.20084 9.12129 10
      vertex 0 9.2 5
      vertex -1.20084 9.12129 5
    endloop
  endfacet
  facet normal -0.555567 0.831472 0
    outer loop
      vertex -4.6 7.96743 5
      vertex -5.60061 7.29885 10
      vertex -4.6 7.96743 10
    endloop
  endfacet
  facet normal -0.555567 0.831472 0
    outer loop
      vertex -5.60061 7.29885 10
      vertex -4.6 7.96743 5
      vertex -5.60061 7.29885 5
    endloop
  endfacet
  facet normal -0.442291 0.896872 0
    outer loop
      vertex -3.52069 8.49969 5
      vertex -4.6 7.96743 10
      vertex -3.52069 8.49969 10
    endloop
  endfacet
  facet normal -0.442291 0.896872 0
    outer loop
      vertex -4.6 7.96743 10
      vertex -3.52069 8.49969 5
      vertex -4.6 7.96743 5
    endloop
  endfacet
  facet normal 0.0654054 -0.997859 0
    outer loop
      vertex 0 -9.2 5
      vertex 1.20084 -9.12129 10
      vertex 0 -9.2 10
    endloop
  endfacet
  facet normal 0.0654054 -0.997859 0
    outer loop
      vertex 1.20084 -9.12129 10
      vertex 0 -9.2 5
      vertex 1.20084 -9.12129 5
    endloop
  endfacet
  facet normal 0.195087 -0.980786 0
    outer loop
      vertex 1.20084 -9.12129 5
      vertex 2.38113 -8.88652 10
      vertex 1.20084 -9.12129 10
    endloop
  endfacet
  facet normal 0.195087 -0.980786 0
    outer loop
      vertex 2.38113 -8.88652 10
      vertex 1.20084 -9.12129 5
      vertex 2.38113 -8.88652 5
    endloop
  endfacet
  facet normal 0.751837 -0.65935 0
    outer loop
      vertex 6.50538 -6.50538 10
      vertex 7.29885 -5.60061 5
      vertex 7.29885 -5.60061 10
    endloop
  endfacet
  facet normal 0.751837 -0.65935 0
    outer loop
      vertex 7.29885 -5.60061 5
      vertex 6.50538 -6.50538 10
      vertex 6.50538 -6.50538 5
    endloop
  endfacet
  facet normal 0.65935 -0.751837 0
    outer loop
      vertex 5.60061 -7.29885 5
      vertex 6.50538 -6.50538 10
      vertex 5.60061 -7.29885 10
    endloop
  endfacet
  facet normal 0.65935 -0.751837 0
    outer loop
      vertex 6.50538 -6.50538 10
      vertex 5.60061 -7.29885 5
      vertex 6.50538 -6.50538 5
    endloop
  endfacet
  facet normal 0.442291 -0.896872 0
    outer loop
      vertex 3.52069 -8.49969 5
      vertex 4.6 -7.96743 10
      vertex 3.52069 -8.49969 10
    endloop
  endfacet
  facet normal 0.442291 -0.896872 0
    outer loop
      vertex 4.6 -7.96743 10
      vertex 3.52069 -8.49969 5
      vertex 4.6 -7.96743 5
    endloop
  endfacet
  facet normal 0.896853 -0.442328 0
    outer loop
      vertex 7.96743 -4.6 10
      vertex 8.01675 -4.5 5
      vertex 8.01675 -4.5 10
    endloop
  endfacet
  facet normal 0.896853 -0.442328 0
    outer loop
      vertex 8.01675 -4.5 5
      vertex 7.96743 -4.6 10
      vertex 7.96743 -4.6 5
    endloop
  endfacet
  facet normal -0.0654054 -0.997859 0
    outer loop
      vertex -1.20084 -9.12129 5
      vertex 0 -9.2 10
      vertex -1.20084 -9.12129 10
    endloop
  endfacet
  facet normal -0.0654054 -0.997859 -0
    outer loop
      vertex 0 -9.2 10
      vertex -1.20084 -9.12129 5
      vertex 0 -9.2 5
    endloop
  endfacet
  facet normal -0.555567 -0.831472 0
    outer loop
      vertex -5.60061 -7.29885 5
      vertex -4.6 -7.96743 10
      vertex -5.60061 -7.29885 10
    endloop
  endfacet
  facet normal -0.555567 -0.831472 -0
    outer loop
      vertex -4.6 -7.96743 10
      vertex -5.60061 -7.29885 5
      vertex -4.6 -7.96743 5
    endloop
  endfacet
  facet normal -0.94693 -0.321441 0
    outer loop
      vertex -8.49969 -3.52069 5
      vertex -8.88652 -2.38113 10
      vertex -8.88652 -2.38113 5
    endloop
  endfacet
  facet normal -0.94693 -0.321441 0
    outer loop
      vertex -8.88652 -2.38113 10
      vertex -8.49969 -3.52069 5
      vertex -8.49969 -3.52069 10
    endloop
  endfacet
  facet normal -0.997859 -0.0654054 0
    outer loop
      vertex -9.12129 -1.20084 5
      vertex -9.2 0 10
      vertex -9.2 0 5
    endloop
  endfacet
  facet normal -0.997859 -0.0654054 0
    outer loop
      vertex -9.2 0 10
      vertex -9.12129 -1.20084 5
      vertex -9.12129 -1.20084 10
    endloop
  endfacet
  facet normal -0.896872 -0.442291 0
    outer loop
      vertex -7.96743 -4.6 5
      vertex -8.49969 -3.52069 10
      vertex -8.49969 -3.52069 5
    endloop
  endfacet
  facet normal -0.896872 -0.442291 0
    outer loop
      vertex -8.49969 -3.52069 10
      vertex -7.96743 -4.6 5
      vertex -7.96743 -4.6 10
    endloop
  endfacet
  facet normal 0 0 1
    outer loop
      vertex 7.29885 5.60061 10
      vertex 8.01675 4.5 10
      vertex 7.96743 4.6 10
    endloop
  endfacet
  facet normal 0 0 1
    outer loop
      vertex -4.3 4.5 10
      vertex 7.29885 5.60061 10
      vertex 6.50538 6.50538 10
    endloop
  endfacet
  facet normal 0 0 1
    outer loop
      vertex -4.3 4.5 10
      vertex 6.50538 6.50538 10
      vertex 5.60061 7.29885 10
    endloop
  endfacet
  facet normal 0 0 1
    outer loop
      vertex -4.3 4.5 10
      vertex 5.60061 7.29885 10
      vertex 4.6 7.96743 10
    endloop
  endfacet
  facet normal 0 0 1
    outer loop
      vertex -4.3 4.5 10
      vertex 4.6 7.96743 10
      vertex 3.52069 8.49969 10
    endloop
  endfacet
  facet normal 0 0 1
    outer loop
      vertex -4.3 4.5 10
      vertex 3.52069 8.49969 10
      vertex 2.38113 8.88652 10
    endloop
  endfacet
  facet normal 0 0 1
    outer loop
      vertex -4.3 4.5 10
      vertex 2.38113 8.88652 10
      vertex 1.20084 9.12129 10
    endloop
  endfacet
  facet normal 0 0 1
    outer loop
      vertex -4.3 4.5 10
      vertex 1.20084 9.12129 10
      vertex 0 9.2 10
    endloop
  endfacet
  facet normal 0 0 1
    outer loop
      vertex -4.3 4.5 10
      vertex 0 9.2 10
      vertex -1.20084 9.12129 10
    endloop
  endfacet
  facet normal 0 0 1
    outer loop
      vertex -4.3 4.5 10
      vertex -1.20084 9.12129 10
      vertex -2.38113 8.88652 10
    endloop
  endfacet
  facet normal 0 0 1
    outer loop
      vertex -4.3 4.5 10
      vertex -2.38113 8.88652 10
      vertex -3.52069 8.49969 10
    endloop
  endfacet
  facet normal 0 0 1
    outer loop
      vertex 7.29885 5.60061 10
      vertex -4.3 4.5 10
      vertex 8.01675 4.5 10
    endloop
  endfacet
  facet normal -0 0 1
    outer loop
      vertex -4.6 7.96743 10
      vertex -4.3 4.5 10
      vertex -3.52069 8.49969 10
    endloop
  endfacet
  facet normal -0 0 1
    outer loop
      vertex -5.60061 7.29885 10
      vertex -4.3 4.5 10
      vertex -4.6 7.96743 10
    endloop
  endfacet
  facet normal 0 0 1
    outer loop
      vertex -4.3 4.5 10
      vertex -5.60061 7.29885 10
      vertex -4.88737 4.4615 10
    endloop
  endfacet
  facet normal -0 0 1
    outer loop
      vertex -6.50538 6.50538 10
      vertex -4.88737 4.4615 10
      vertex -5.60061 7.29885 10
    endloop
  endfacet
  facet normal 0 0 1
    outer loop
      vertex -4.88737 4.4615 10
      vertex -6.50538 6.50538 10
      vertex -5.46469 4.34667 10
    endloop
  endfacet
  facet normal 0 0 1
    outer loop
      vertex -5.46469 4.34667 10
      vertex -6.50538 6.50538 10
      vertex -6.02207 4.15746 10
    endloop
  endfacet
  facet normal -0 0 1
    outer loop
      vertex -7.29885 5.60061 10
      vertex -6.02207 4.15746 10
      vertex -6.50538 6.50538 10
    endloop
  endfacet
  facet normal 0 0 1
    outer loop
      vertex -6.02207 4.15746 10
      vertex -7.29885 5.60061 10
      vertex -6.55 3.89711 10
    endloop
  endfacet
  facet normal -0 0 1
    outer loop
      vertex -7.96743 4.6 10
      vertex -6.55 3.89711 10
      vertex -7.29885 5.60061 10
    endloop
  endfacet
  facet normal 0 0 1
    outer loop
      vertex -6.55 3.89711 10
      vertex -7.96743 4.6 10
      vertex -7.03943 3.57009 10
    endloop
  endfacet
  facet normal 0 0 1
    outer loop
      vertex -7.03943 3.57009 10
      vertex -7.96743 4.6 10
      vertex -7.48198 3.18198 10
    endloop
  endfacet
  facet normal -0 0 1
    outer loop
      vertex -8.49969 3.52069 10
      vertex -7.48198 3.18198 10
      vertex -7.96743 4.6 10
    endloop
  endfacet
  facet normal 0 0 1
    outer loop
      vertex -7.48198 3.18198 10
      vertex -8.49969 3.52069 10
      vertex -7.87009 2.73943 10
    endloop
  endfacet
  facet normal 0 0 1
    outer loop
      vertex -8.88652 2.38113 10
      vertex -7.87009 2.73943 10
      vertex -8.49969 3.52069 10
    endloop
  endfacet
  facet normal 0 0 1
    outer loop
      vertex -7.87009 2.73943 10
      vertex -8.88652 2.38113 10
      vertex -8.19711 2.25 10
    endloop
  endfacet
  facet normal 0 0 1
    outer loop
      vertex -8.19711 2.25 10
      vertex -8.88652 2.38113 10
      vertex -8.45746 1.72207 10
    endloop
  endfacet
  facet normal 0 0 1
    outer loop
      vertex -9.12129 1.20084 10
      vertex -8.45746 1.72207 10
      vertex -8.88652 2.38113 10
    endloop
  endfacet
  facet normal 0 0 1
    outer loop
      vertex -8.64667 1.16469 10
      vertex -9.12129 1.20084 10
      vertex -8.7615 0.587367 10
    endloop
  endfacet
  facet normal 0 0 1
    outer loop
      vertex -8.45746 1.72207 10
      vertex -9.12129 1.20084 10
      vertex -8.64667 1.16469 10
    endloop
  endfacet
  facet normal 0 0 1
    outer loop
      vertex 8.01675 -4.5 10
      vertex 7.29885 -5.60061 10
      vertex 7.96743 -4.6 10
    endloop
  endfacet
  facet normal -0 0 1
    outer loop
      vertex -4.3 -4.5 10
      vertex 7.29885 -5.60061 10
      vertex 8.01675 -4.5 10
    endloop
  endfacet
  facet normal 0 0 1
    outer loop
      vertex 7.29885 -5.60061 10
      vertex -4.3 -4.5 10
      vertex 6.50538 -6.50538 10
    endloop
  endfacet
  facet normal 0 0 1
    outer loop
      vertex 6.50538 -6.50538 10
      vertex -4.3 -4.5 10
      vertex 5.60061 -7.29885 10
    endloop
  endfacet
  facet normal 0 0 1
    outer loop
      vertex 5.60061 -7.29885 10
      vertex -4.3 -4.5 10
      vertex 4.6 -7.96743 10
    endloop
  endfacet
  facet normal 0 0 1
    outer loop
      vertex 4.6 -7.96743 10
      vertex -4.3 -4.5 10
      vertex 3.52069 -8.49969 10
    endloop
  endfacet
  facet normal 0 0 1
    outer loop
      vertex 3.52069 -8.49969 10
      vertex -4.3 -4.5 10
      vertex 2.38113 -8.88652 10
    endloop
  endfacet
  facet normal 0 0 1
    outer loop
      vertex 2.38113 -8.88652 10
      vertex -4.3 -4.5 10
      vertex 1.20084 -9.12129 10
    endloop
  endfacet
  facet normal 0 0 1
    outer loop
      vertex 1.20084 -9.12129 10
      vertex -4.3 -4.5 10
      vertex 0 -9.2 10
    endloop
  endfacet
  facet normal 0 0 1
    outer loop
      vertex 0 -9.2 10
      vertex -4.3 -4.5 10
      vertex -1.20084 -9.12129 10
    endloop
  endfacet
  facet normal 0 0 1
    outer loop
      vertex -1.20084 -9.12129 10
      vertex -4.3 -4.5 10
      vertex -2.38113 -8.88652 10
    endloop
  endfacet
  facet normal 0 0 1
    outer loop
      vertex -2.38113 -8.88652 10
      vertex -4.3 -4.5 10
      vertex -3.52069 -8.49969 10
    endloop
  endfacet
  facet normal 0 0 1
    outer loop
      vertex -4.3 -4.5 10
      vertex -4.6 -7.96743 10
      vertex -3.52069 -8.49969 10
    endloop
  endfacet
  facet normal 0 0 1
    outer loop
      vertex -5.60061 -7.29885 10
      vertex -4.3 -4.5 10
      vertex -4.88737 -4.4615 10
    endloop
  endfacet
  facet normal 0 0 1
    outer loop
      vertex -6.50538 -6.50538 10
      vertex -4.88737 -4.4615 10
      vertex -5.46469 -4.34667 10
    endloop
  endfacet
  facet normal 0 0 1
    outer loop
      vertex -4.3 -4.5 10
      vertex -5.60061 -7.29885 10
      vertex -4.6 -7.96743 10
    endloop
  endfacet
  facet normal 0 0 1
    outer loop
      vertex -6.50538 -6.50538 10
      vertex -5.46469 -4.34667 10
      vertex -6.02207 -4.15746 10
    endloop
  endfacet
  facet normal 0 0 1
    outer loop
      vertex -4.88737 -4.4615 10
      vertex -6.50538 -6.50538 10
      vertex -5.60061 -7.29885 10
    endloop
  endfacet
  facet normal 0 0 1
    outer loop
      vertex -7.29885 -5.60061 10
      vertex -6.02207 -4.15746 10
      vertex -6.55 -3.89711 10
    endloop
  endfacet
  facet normal 0 0 1
    outer loop
      vertex -7.96743 -4.6 10
      vertex -6.55 -3.89711 10
      vertex -7.03943 -3.57009 10
    endloop
  endfacet
  facet normal 0 0 1
    outer loop
      vertex -6.02207 -4.15746 10
      vertex -7.29885 -5.60061 10
      vertex -6.50538 -6.50538 10
    endloop
  endfacet
  facet normal 0 0 1
    outer loop
      vertex -7.96743 -4.6 10
      vertex -7.03943 -3.57009 10
      vertex -7.48198 -3.18198 10
    endloop
  endfacet
  facet normal 0 0 1
    outer loop
      vertex -8.49969 -3.52069 10
      vertex -7.48198 -3.18198 10
      vertex -7.87009 -2.73943 10
    endloop
  endfacet
  facet normal 0 0 1
    outer loop
      vertex -6.55 -3.89711 10
      vertex -7.96743 -4.6 10
      vertex -7.29885 -5.60061 10
    endloop
  endfacet
  facet normal -0 0 1
    outer loop
      vertex -8.88652 -2.38113 10
      vertex -7.87009 -2.73943 10
      vertex -8.19711 -2.25 10
    endloop
  endfacet
  facet normal 0 0 1
    outer loop
      vertex -8.88652 -2.38113 10
      vertex -8.19711 -2.25 10
      vertex -8.45746 -1.72207 10
    endloop
  endfacet
  facet normal 0 0 1
    outer loop
      vertex -7.48198 -3.18198 10
      vertex -8.49969 -3.52069 10
      vertex -7.96743 -4.6 10
    endloop
  endfacet
  facet normal -0 0 1
    outer loop
      vertex -9.12129 -1.20084 10
      vertex -8.45746 -1.72207 10
      vertex -8.64667 -1.16469 10
    endloop
  endfacet
  facet normal 0 0 1
    outer loop
      vertex -9.12129 -1.20084 10
      vertex -8.64667 -1.16469 10
      vertex -8.7615 -0.587367 10
    endloop
  endfacet
  facet normal 0 0 1
    outer loop
      vertex -7.87009 -2.73943 10
      vertex -8.88652 -2.38113 10
      vertex -8.49969 -3.52069 10
    endloop
  endfacet
  facet normal -0 0 1
    outer loop
      vertex -9.2 0 10
      vertex -8.7615 -0.587367 10
      vertex -8.8 0 10
    endloop
  endfacet
  facet normal 0 0 1
    outer loop
      vertex -9.2 0 10
      vertex -8.7615 0.587367 10
      vertex -9.12129 1.20084 10
    endloop
  endfacet
  facet normal 0 0 1
    outer loop
      vertex -8.7615 0.587367 10
      vertex -9.2 0 10
      vertex -8.8 0 10
    endloop
  endfacet
  facet normal 0 0 1
    outer loop
      vertex -8.45746 -1.72207 10
      vertex -9.12129 -1.20084 10
      vertex -8.88652 -2.38113 10
    endloop
  endfacet
  facet normal 0 0 1
    outer loop
      vertex -8.7615 -0.587367 10
      vertex -9.2 0 10
      vertex -9.12129 -1.20084 10
    endloop
  endfacet
  facet normal -0.980786 0.195087 0
    outer loop
      vertex -9.12129 1.20084 5
      vertex -8.88652 2.38113 10
      vertex -8.88652 2.38113 5
    endloop
  endfacet
  facet normal -0.980786 0.195087 0
    outer loop
      vertex -8.88652 2.38113 10
      vertex -9.12129 1.20084 5
      vertex -9.12129 1.20084 10
    endloop
  endfacet
  facet normal 0.555567 -0.831472 0
    outer loop
      vertex 4.6 -7.96743 5
      vertex 5.60061 -7.29885 10
      vertex 4.6 -7.96743 10
    endloop
  endfacet
  facet normal 0.555567 -0.831472 0
    outer loop
      vertex 5.60061 -7.29885 10
      vertex 4.6 -7.96743 5
      vertex 5.60061 -7.29885 5
    endloop
  endfacet
  facet normal -0.831472 -0.555567 0
    outer loop
      vertex -7.29885 -5.60061 5
      vertex -7.96743 -4.6 10
      vertex -7.96743 -4.6 5
    endloop
  endfacet
  facet normal -0.831472 -0.555567 0
    outer loop
      vertex -7.96743 -4.6 10
      vertex -7.29885 -5.60061 5
      vertex -7.29885 -5.60061 10
    endloop
  endfacet
  facet normal -0.997858 0.0654196 0
    outer loop
      vertex -19.2 0 0
      vertex -19.0357 2.5061 5
      vertex -19.0357 2.5061 0
    endloop
  endfacet
  facet normal -0.997858 0.0654196 0
    outer loop
      vertex -19.0357 2.5061 5
      vertex -19.2 0 0
      vertex -19.2 0 5
    endloop
  endfacet
  facet normal 0.0654196 0.997858 -0
    outer loop
      vertex 2.5061 19.0357 0
      vertex 0 19.2 5
      vertex 2.5061 19.0357 5
    endloop
  endfacet
  facet normal 0.0654196 0.997858 0
    outer loop
      vertex 0 19.2 5
      vertex 2.5061 19.0357 0
      vertex 0 19.2 0
    endloop
  endfacet
  facet normal 0.659367 0.751821 -0
    outer loop
      vertex 13.5764 13.5764 0
      vertex 11.6882 15.2324 5
      vertex 13.5764 13.5764 5
    endloop
  endfacet
  facet normal 0.659367 0.751821 0
    outer loop
      vertex 11.6882 15.2324 5
      vertex 13.5764 13.5764 0
      vertex 11.6882 15.2324 0
    endloop
  endfacet
  facet normal -0.659367 0.751821 0
    outer loop
      vertex -11.6882 15.2324 0
      vertex -13.5764 13.5764 5
      vertex -11.6882 15.2324 5
    endloop
  endfacet
  facet normal -0.659367 0.751821 0
    outer loop
      vertex -13.5764 13.5764 5
      vertex -11.6882 15.2324 0
      vertex -13.5764 13.5764 0
    endloop
  endfacet
  facet normal -0.321444 0.946929 0
    outer loop
      vertex -4.96933 18.5458 0
      vertex -7.34752 17.7385 5
      vertex -4.96933 18.5458 5
    endloop
  endfacet
  facet normal -0.321444 0.946929 0
    outer loop
      vertex -7.34752 17.7385 5
      vertex -4.96933 18.5458 0
      vertex -7.34752 17.7385 0
    endloop
  endfacet
  facet normal -0.751821 -0.659367 0
    outer loop
      vertex -13.5764 -13.5764 0
      vertex -15.2324 -11.6882 5
      vertex -15.2324 -11.6882 0
    endloop
  endfacet
  facet normal -0.751821 -0.659367 0
    outer loop
      vertex -15.2324 -11.6882 5
      vertex -13.5764 -13.5764 0
      vertex -13.5764 -13.5764 5
    endloop
  endfacet
  facet normal 0.946929 0.321444 0
    outer loop
      vertex 18.5458 4.96933 5
      vertex 17.7385 7.34752 0
      vertex 17.7385 7.34752 5
    endloop
  endfacet
  facet normal 0.946929 0.321444 0
    outer loop
      vertex 17.7385 7.34752 0
      vertex 18.5458 4.96933 5
      vertex 18.5458 4.96933 0
    endloop
  endfacet
  facet normal 0.980807 0.194979 0
    outer loop
      vertex 18.6391 4.5 5
      vertex 18.5458 4.96933 0
      vertex 18.5458 4.96933 5
    endloop
  endfacet
  facet normal 0.980807 0.194979 0
    outer loop
      vertex 18.5458 4.96933 0
      vertex 18.6391 4.5 5
      vertex 18.6391 4.5 0
    endloop
  endfacet
  facet normal 0.831468 0.555573 0
    outer loop
      vertex 16.6277 9.6 5
      vertex 15.2324 11.6882 0
      vertex 15.2324 11.6882 5
    endloop
  endfacet
  facet normal 0.831468 0.555573 0
    outer loop
      vertex 15.2324 11.6882 0
      vertex 16.6277 9.6 5
      vertex 16.6277 9.6 0
    endloop
  endfacet
  facet normal 0.321444 0.946929 -0
    outer loop
      vertex 7.34752 17.7385 0
      vertex 4.96933 18.5458 5
      vertex 7.34752 17.7385 5
    endloop
  endfacet
  facet normal 0.321444 0.946929 0
    outer loop
      vertex 4.96933 18.5458 5
      vertex 7.34752 17.7385 0
      vertex 4.96933 18.5458 0
    endloop
  endfacet
  facet normal 0.195065 0.98079 -0
    outer loop
      vertex 4.96933 18.5458 0
      vertex 2.5061 19.0357 5
      vertex 4.96933 18.5458 5
    endloop
  endfacet
  facet normal 0.195065 0.98079 0
    outer loop
      vertex 2.5061 19.0357 5
      vertex 4.96933 18.5458 0
      vertex 2.5061 19.0357 0
    endloop
  endfacet
  facet normal 0.555573 0.831468 -0
    outer loop
      vertex 11.6882 15.2324 0
      vertex 9.6 16.6277 5
      vertex 11.6882 15.2324 5
    endloop
  endfacet
  facet normal 0.555573 0.831468 0
    outer loop
      vertex 9.6 16.6277 5
      vertex 11.6882 15.2324 0
      vertex 9.6 16.6277 0
    endloop
  endfacet
  facet normal -0.831468 0.555573 0
    outer loop
      vertex -16.6277 9.6 0
      vertex -15.2324 11.6882 5
      vertex -15.2324 11.6882 0
    endloop
  endfacet
  facet normal -0.831468 0.555573 0
    outer loop
      vertex -15.2324 11.6882 5
      vertex -16.6277 9.6 0
      vertex -16.6277 9.6 5
    endloop
  endfacet
  facet normal -0.751821 0.659367 0
    outer loop
      vertex -15.2324 11.6882 0
      vertex -13.5764 13.5764 5
      vertex -13.5764 13.5764 0
    endloop
  endfacet
  facet normal -0.751821 0.659367 0
    outer loop
      vertex -13.5764 13.5764 5
      vertex -15.2324 11.6882 0
      vertex -15.2324 11.6882 5
    endloop
  endfacet
  facet normal -0.946929 0.321444 0
    outer loop
      vertex -18.5458 4.96933 0
      vertex -17.7385 7.34752 5
      vertex -17.7385 7.34752 0
    endloop
  endfacet
  facet normal -0.946929 0.321444 0
    outer loop
      vertex -17.7385 7.34752 5
      vertex -18.5458 4.96933 0
      vertex -18.5458 4.96933 5
    endloop
  endfacet
  facet normal -0.555573 0.831468 0
    outer loop
      vertex -9.6 16.6277 0
      vertex -11.6882 15.2324 5
      vertex -9.6 16.6277 5
    endloop
  endfacet
  facet normal -0.555573 0.831468 0
    outer loop
      vertex -11.6882 15.2324 5
      vertex -9.6 16.6277 0
      vertex -11.6882 15.2324 0
    endloop
  endfacet
  facet normal -0.0654196 0.997858 0
    outer loop
      vertex 0 19.2 0
      vertex -2.5061 19.0357 5
      vertex 0 19.2 5
    endloop
  endfacet
  facet normal -0.0654196 0.997858 0
    outer loop
      vertex -2.5061 19.0357 5
      vertex 0 19.2 0
      vertex -2.5061 19.0357 0
    endloop
  endfacet
  facet normal 0.321444 -0.946929 0
    outer loop
      vertex 4.96933 -18.5458 0
      vertex 7.34752 -17.7385 5
      vertex 4.96933 -18.5458 5
    endloop
  endfacet
  facet normal 0.321444 -0.946929 0
    outer loop
      vertex 7.34752 -17.7385 5
      vertex 4.96933 -18.5458 0
      vertex 7.34752 -17.7385 0
    endloop
  endfacet
  facet normal 0.751821 -0.659367 0
    outer loop
      vertex 13.5764 -13.5764 5
      vertex 15.2324 -11.6882 0
      vertex 15.2324 -11.6882 5
    endloop
  endfacet
  facet normal 0.751821 -0.659367 0
    outer loop
      vertex 15.2324 -11.6882 0
      vertex 13.5764 -13.5764 5
      vertex 13.5764 -13.5764 0
    endloop
  endfacet
  facet normal 0.555573 -0.831468 0
    outer loop
      vertex 9.6 -16.6277 0
      vertex 11.6882 -15.2324 5
      vertex 9.6 -16.6277 5
    endloop
  endfacet
  facet normal 0.555573 -0.831468 0
    outer loop
      vertex 11.6882 -15.2324 5
      vertex 9.6 -16.6277 0
      vertex 11.6882 -15.2324 0
    endloop
  endfacet
  facet normal -0.659367 -0.751821 0
    outer loop
      vertex -13.5764 -13.5764 0
      vertex -11.6882 -15.2324 5
      vertex -13.5764 -13.5764 5
    endloop
  endfacet
  facet normal -0.659367 -0.751821 -0
    outer loop
      vertex -11.6882 -15.2324 5
      vertex -13.5764 -13.5764 0
      vertex -11.6882 -15.2324 0
    endloop
  endfacet
  facet normal -0.321444 -0.946929 0
    outer loop
      vertex -7.34752 -17.7385 0
      vertex -4.96933 -18.5458 5
      vertex -7.34752 -17.7385 5
    endloop
  endfacet
  facet normal -0.321444 -0.946929 -0
    outer loop
      vertex -4.96933 -18.5458 5
      vertex -7.34752 -17.7385 0
      vertex -4.96933 -18.5458 0
    endloop
  endfacet
  facet normal -0.98079 -0.195065 0
    outer loop
      vertex -18.5458 -4.96933 0
      vertex -19.0357 -2.5061 5
      vertex -19.0357 -2.5061 0
    endloop
  endfacet
  facet normal -0.98079 -0.195065 0
    outer loop
      vertex -19.0357 -2.5061 5
      vertex -18.5458 -4.96933 0
      vertex -18.5458 -4.96933 5
    endloop
  endfacet
  facet normal 0.896873 0.442289 0
    outer loop
      vertex 17.7385 7.34752 5
      vertex 16.6277 9.6 0
      vertex 16.6277 9.6 5
    endloop
  endfacet
  facet normal 0.896873 0.442289 0
    outer loop
      vertex 16.6277 9.6 0
      vertex 17.7385 7.34752 5
      vertex 17.7385 7.34752 0
    endloop
  endfacet
  facet normal 0.751821 0.659367 0
    outer loop
      vertex 15.2324 11.6882 5
      vertex 13.5764 13.5764 0
      vertex 13.5764 13.5764 5
    endloop
  endfacet
  facet normal 0.751821 0.659367 0
    outer loop
      vertex 13.5764 13.5764 0
      vertex 15.2324 11.6882 5
      vertex 15.2324 11.6882 0
    endloop
  endfacet
  facet normal 0.442289 0.896873 -0
    outer loop
      vertex 9.6 16.6277 0
      vertex 7.34752 17.7385 5
      vertex 9.6 16.6277 5
    endloop
  endfacet
  facet normal 0.442289 0.896873 0
    outer loop
      vertex 7.34752 17.7385 5
      vertex 9.6 16.6277 0
      vertex 7.34752 17.7385 0
    endloop
  endfacet
  facet normal -0.896873 0.442289 0
    outer loop
      vertex -17.7385 7.34752 0
      vertex -16.6277 9.6 5
      vertex -16.6277 9.6 0
    endloop
  endfacet
  facet normal -0.896873 0.442289 0
    outer loop
      vertex -16.6277 9.6 5
      vertex -17.7385 7.34752 0
      vertex -17.7385 7.34752 5
    endloop
  endfacet
  facet normal -0.98079 0.195065 0
    outer loop
      vertex -19.0357 2.5061 0
      vertex -18.5458 4.96933 5
      vertex -18.5458 4.96933 0
    endloop
  endfacet
  facet normal -0.98079 0.195065 0
    outer loop
      vertex -18.5458 4.96933 5
      vertex -19.0357 2.5061 0
      vertex -19.0357 2.5061 5
    endloop
  endfacet
  facet normal -0.442289 0.896873 0
    outer loop
      vertex -7.34752 17.7385 0
      vertex -9.6 16.6277 5
      vertex -7.34752 17.7385 5
    endloop
  endfacet
  facet normal -0.442289 0.896873 0
    outer loop
      vertex -9.6 16.6277 5
      vertex -7.34752 17.7385 0
      vertex -9.6 16.6277 0
    endloop
  endfacet
  facet normal -0.195065 0.98079 0
    outer loop
      vertex -2.5061 19.0357 0
      vertex -4.96933 18.5458 5
      vertex -2.5061 19.0357 5
    endloop
  endfacet
  facet normal -0.195065 0.98079 0
    outer loop
      vertex -4.96933 18.5458 5
      vertex -2.5061 19.0357 0
      vertex -4.96933 18.5458 0
    endloop
  endfacet
  facet normal 0.0654196 -0.997858 0
    outer loop
      vertex 0 -19.2 0
      vertex 2.5061 -19.0357 5
      vertex 0 -19.2 5
    endloop
  endfacet
  facet normal 0.0654196 -0.997858 0
    outer loop
      vertex 2.5061 -19.0357 5
      vertex 0 -19.2 0
      vertex 2.5061 -19.0357 0
    endloop
  endfacet
  facet normal 0.195065 -0.98079 0
    outer loop
      vertex 2.5061 -19.0357 0
      vertex 4.96933 -18.5458 5
      vertex 2.5061 -19.0357 5
    endloop
  endfacet
  facet normal 0.195065 -0.98079 0
    outer loop
      vertex 4.96933 -18.5458 5
      vertex 2.5061 -19.0357 0
      vertex 4.96933 -18.5458 0
    endloop
  endfacet
  facet normal 0.659367 -0.751821 0
    outer loop
      vertex 11.6882 -15.2324 0
      vertex 13.5764 -13.5764 5
      vertex 11.6882 -15.2324 5
    endloop
  endfacet
  facet normal 0.659367 -0.751821 0
    outer loop
      vertex 13.5764 -13.5764 5
      vertex 11.6882 -15.2324 0
      vertex 13.5764 -13.5764 0
    endloop
  endfacet
  facet normal 0.831468 -0.555573 0
    outer loop
      vertex 15.2324 -11.6882 5
      vertex 16.6277 -9.6 0
      vertex 16.6277 -9.6 5
    endloop
  endfacet
  facet normal 0.831468 -0.555573 0
    outer loop
      vertex 16.6277 -9.6 0
      vertex 15.2324 -11.6882 5
      vertex 15.2324 -11.6882 0
    endloop
  endfacet
  facet normal 0.946929 -0.321444 0
    outer loop
      vertex 17.7385 -7.34752 5
      vertex 18.5458 -4.96933 0
      vertex 18.5458 -4.96933 5
    endloop
  endfacet
  facet normal 0.946929 -0.321444 0
    outer loop
      vertex 18.5458 -4.96933 0
      vertex 17.7385 -7.34752 5
      vertex 17.7385 -7.34752 0
    endloop
  endfacet
  facet normal 0.980807 -0.194979 0
    outer loop
      vertex 18.5458 -4.96933 5
      vertex 18.6391 -4.5 0
      vertex 18.6391 -4.5 5
    endloop
  endfacet
  facet normal 0.980807 -0.194979 0
    outer loop
      vertex 18.6391 -4.5 0
      vertex 18.5458 -4.96933 5
      vertex 18.5458 -4.96933 0
    endloop
  endfacet
  facet normal -0.195065 -0.98079 0
    outer loop
      vertex -4.96933 -18.5458 0
      vertex -2.5061 -19.0357 5
      vertex -4.96933 -18.5458 5
    endloop
  endfacet
  facet normal -0.195065 -0.98079 -0
    outer loop
      vertex -2.5061 -19.0357 5
      vertex -4.96933 -18.5458 0
      vertex -2.5061 -19.0357 0
    endloop
  endfacet
  facet normal -0.555573 -0.831468 0
    outer loop
      vertex -11.6882 -15.2324 0
      vertex -9.6 -16.6277 5
      vertex -11.6882 -15.2324 5
    endloop
  endfacet
  facet normal -0.555573 -0.831468 -0
    outer loop
      vertex -9.6 -16.6277 5
      vertex -11.6882 -15.2324 0
      vertex -9.6 -16.6277 0
    endloop
  endfacet
  facet normal -0.0654196 -0.997858 0
    outer loop
      vertex -2.5061 -19.0357 0
      vertex 0 -19.2 5
      vertex -2.5061 -19.0357 5
    endloop
  endfacet
  facet normal -0.0654196 -0.997858 -0
    outer loop
      vertex 0 -19.2 5
      vertex -2.5061 -19.0357 0
      vertex 0 -19.2 0
    endloop
  endfacet
  facet normal -0.896873 -0.442289 0
    outer loop
      vertex -16.6277 -9.6 0
      vertex -17.7385 -7.34752 5
      vertex -17.7385 -7.34752 0
    endloop
  endfacet
  facet normal -0.896873 -0.442289 0
    outer loop
      vertex -17.7385 -7.34752 5
      vertex -16.6277 -9.6 0
      vertex -16.6277 -9.6 5
    endloop
  endfacet
  facet normal -0.946929 -0.321444 0
    outer loop
      vertex -17.7385 -7.34752 0
      vertex -18.5458 -4.96933 5
      vertex -18.5458 -4.96933 0
    endloop
  endfacet
  facet normal -0.946929 -0.321444 0
    outer loop
      vertex -18.5458 -4.96933 5
      vertex -17.7385 -7.34752 0
      vertex -17.7385 -7.34752 5
    endloop
  endfacet
  facet normal -0.997858 -0.0654196 0
    outer loop
      vertex -19.0357 -2.5061 0
      vertex -19.2 0 5
      vertex -19.2 0 0
    endloop
  endfacet
  facet normal -0.997858 -0.0654196 0
    outer loop
      vertex -19.2 0 5
      vertex -19.0357 -2.5061 0
      vertex -19.0357 -2.5061 5
    endloop
  endfacet
  facet normal 0 0 1
    outer loop
      vertex 8.01675 4.5 5
      vertex 18.5458 4.96933 5
      vertex 17.7385 7.34752 5
    endloop
  endfacet
  facet normal 0 0 1
    outer loop
      vertex 8.01675 4.5 5
      vertex 17.7385 7.34752 5
      vertex 16.6277 9.6 5
    endloop
  endfacet
  facet normal 0 0 1
    outer loop
      vertex 7.96743 4.6 5
      vertex 16.6277 9.6 5
      vertex 15.2324 11.6882 5
    endloop
  endfacet
  facet normal 0 0 1
    outer loop
      vertex 7.29885 5.60061 5
      vertex 15.2324 11.6882 5
      vertex 13.5764 13.5764 5
    endloop
  endfacet
  facet normal 0 0 1
    outer loop
      vertex 6.50538 6.50538 5
      vertex 13.5764 13.5764 5
      vertex 11.6882 15.2324 5
    endloop
  endfacet
  facet normal 0 0 1
    outer loop
      vertex 5.60061 7.29885 5
      vertex 11.6882 15.2324 5
      vertex 9.6 16.6277 5
    endloop
  endfacet
  facet normal 0 0 1
    outer loop
      vertex 15.2324 11.6882 5
      vertex 7.29885 5.60061 5
      vertex 7.96743 4.6 5
    endloop
  endfacet
  facet normal 0 0 1
    outer loop
      vertex 18.5458 4.96933 5
      vertex 8.01675 4.5 5
      vertex 18.6391 4.5 5
    endloop
  endfacet
  facet normal 0 0 1
    outer loop
      vertex 4.6 7.96743 5
      vertex 9.6 16.6277 5
      vertex 7.34752 17.7385 5
    endloop
  endfacet
  facet normal 0 0 1
    outer loop
      vertex 16.6277 9.6 5
      vertex 7.96743 4.6 5
      vertex 8.01675 4.5 5
    endloop
  endfacet
  facet normal 0 0 1
    outer loop
      vertex 13.5764 13.5764 5
      vertex 6.50538 6.50538 5
      vertex 7.29885 5.60061 5
    endloop
  endfacet
  facet normal 0 0 1
    outer loop
      vertex 11.6882 15.2324 5
      vertex 5.60061 7.29885 5
      vertex 6.50538 6.50538 5
    endloop
  endfacet
  facet normal 0 0 1
    outer loop
      vertex 3.52069 8.49969 5
      vertex 7.34752 17.7385 5
      vertex 4.96933 18.5458 5
    endloop
  endfacet
  facet normal 0 0 1
    outer loop
      vertex 9.6 16.6277 5
      vertex 4.6 7.96743 5
      vertex 5.60061 7.29885 5
    endloop
  endfacet
  facet normal 0 0 1
    outer loop
      vertex 7.34752 17.7385 5
      vertex 3.52069 8.49969 5
      vertex 4.6 7.96743 5
    endloop
  endfacet
  facet normal 0 0 1
    outer loop
      vertex 2.38113 8.88652 5
      vertex 4.96933 18.5458 5
      vertex 2.5061 19.0357 5
    endloop
  endfacet
  facet normal 0 0 1
    outer loop
      vertex 4.96933 18.5458 5
      vertex 2.38113 8.88652 5
      vertex 3.52069 8.49969 5
    endloop
  endfacet
  facet normal 0 0 1
    outer loop
      vertex 2.5061 19.0357 5
      vertex 1.20084 9.12129 5
      vertex 2.38113 8.88652 5
    endloop
  endfacet
  facet normal 0 0 1
    outer loop
      vertex 0 19.2 5
      vertex 1.20084 9.12129 5
      vertex 2.5061 19.0357 5
    endloop
  endfacet
  facet normal 0 0 1
    outer loop
      vertex 0 19.2 5
      vertex 0 9.2 5
      vertex 1.20084 9.12129 5
    endloop
  endfacet
  facet normal 0 0 1
    outer loop
      vertex 0 19.2 5
      vertex -1.20084 9.12129 5
      vertex 0 9.2 5
    endloop
  endfacet
  facet normal -0 0 1
    outer loop
      vertex -2.5061 19.0357 5
      vertex -1.20084 9.12129 5
      vertex 0 19.2 5
    endloop
  endfacet
  facet normal 0 0 1
    outer loop
      vertex -1.20084 9.12129 5
      vertex -2.5061 19.0357 5
      vertex -2.38113 8.88652 5
    endloop
  endfacet
  facet normal -0 0 1
    outer loop
      vertex -4.96933 18.5458 5
      vertex -2.38113 8.88652 5
      vertex -2.5061 19.0357 5
    endloop
  endfacet
  facet normal 0 0 1
    outer loop
      vertex -2.38113 8.88652 5
      vertex -4.96933 18.5458 5
      vertex -3.52069 8.49969 5
    endloop
  endfacet
  facet normal -0 0 1
    outer loop
      vertex -7.34752 17.7385 5
      vertex -3.52069 8.49969 5
      vertex -4.96933 18.5458 5
    endloop
  endfacet
  facet normal 0 0 1
    outer loop
      vertex -3.52069 8.49969 5
      vertex -7.34752 17.7385 5
      vertex -4.6 7.96743 5
    endloop
  endfacet
  facet normal -0 0 1
    outer loop
      vertex -9.6 16.6277 5
      vertex -4.6 7.96743 5
      vertex -7.34752 17.7385 5
    endloop
  endfacet
  facet normal 0 0 1
    outer loop
      vertex -4.6 7.96743 5
      vertex -9.6 16.6277 5
      vertex -5.60061 7.29885 5
    endloop
  endfacet
  facet normal -0 0 1
    outer loop
      vertex -11.6882 15.2324 5
      vertex -5.60061 7.29885 5
      vertex -9.6 16.6277 5
    endloop
  endfacet
  facet normal 0 0 1
    outer loop
      vertex -5.60061 7.29885 5
      vertex -11.6882 15.2324 5
      vertex -6.50538 6.50538 5
    endloop
  endfacet
  facet normal -0 0 1
    outer loop
      vertex -13.5764 13.5764 5
      vertex -6.50538 6.50538 5
      vertex -11.6882 15.2324 5
    endloop
  endfacet
  facet normal 0 0 1
    outer loop
      vertex -6.50538 6.50538 5
      vertex -13.5764 13.5764 5
      vertex -7.29885 5.60061 5
    endloop
  endfacet
  facet normal -0 0 1
    outer loop
      vertex -15.2324 11.6882 5
      vertex -7.29885 5.60061 5
      vertex -13.5764 13.5764 5
    endloop
  endfacet
  facet normal -0 0 1
    outer loop
      vertex -16.6277 9.6 5
      vertex -7.96743 4.6 5
      vertex -15.2324 11.6882 5
    endloop
  endfacet
  facet normal 0 0 1
    outer loop
      vertex -7.29885 5.60061 5
      vertex -15.2324 11.6882 5
      vertex -7.96743 4.6 5
    endloop
  endfacet
  facet normal -0 0 1
    outer loop
      vertex 8.01675 -4.5 5
      vertex 18.5458 -4.96933 5
      vertex 18.6391 -4.5 5
    endloop
  endfacet
  facet normal 0 0 1
    outer loop
      vertex 18.5458 -4.96933 5
      vertex 8.01675 -4.5 5
      vertex 17.7385 -7.34752 5
    endloop
  endfacet
  facet normal 0 0 1
    outer loop
      vertex 17.7385 -7.34752 5
      vertex 8.01675 -4.5 5
      vertex 16.6277 -9.6 5
    endloop
  endfacet
  facet normal -0 0 1
    outer loop
      vertex 7.96743 -4.6 5
      vertex 16.6277 -9.6 5
      vertex 8.01675 -4.5 5
    endloop
  endfacet
  facet normal -0 0 1
    outer loop
      vertex 7.29885 -5.60061 5
      vertex 15.2324 -11.6882 5
      vertex 7.96743 -4.6 5
    endloop
  endfacet
  facet normal 0 0 1
    outer loop
      vertex 15.2324 -11.6882 5
      vertex 7.29885 -5.60061 5
      vertex 13.5764 -13.5764 5
    endloop
  endfacet
  facet normal 0 0 1
    outer loop
      vertex 16.6277 -9.6 5
      vertex 7.96743 -4.6 5
      vertex 15.2324 -11.6882 5
    endloop
  endfacet
  facet normal -0 0 1
    outer loop
      vertex 6.50538 -6.50538 5
      vertex 13.5764 -13.5764 5
      vertex 7.29885 -5.60061 5
    endloop
  endfacet
  facet normal 0 0 1
    outer loop
      vertex 13.5764 -13.5764 5
      vertex 6.50538 -6.50538 5
      vertex 11.6882 -15.2324 5
    endloop
  endfacet
  facet normal -0 0 1
    outer loop
      vertex 5.60061 -7.29885 5
      vertex 11.6882 -15.2324 5
      vertex 6.50538 -6.50538 5
    endloop
  endfacet
  facet normal 0 0 1
    outer loop
      vertex 11.6882 -15.2324 5
      vertex 5.60061 -7.29885 5
      vertex 9.6 -16.6277 5
    endloop
  endfacet
  facet normal -0 0 1
    outer loop
      vertex 4.6 -7.96743 5
      vertex 9.6 -16.6277 5
      vertex 5.60061 -7.29885 5
    endloop
  endfacet
  facet normal 0 0 1
    outer loop
      vertex 9.6 -16.6277 5
      vertex 4.6 -7.96743 5
      vertex 7.34752 -17.7385 5
    endloop
  endfacet
  facet normal -0 0 1
    outer loop
      vertex 3.52069 -8.49969 5
      vertex 7.34752 -17.7385 5
      vertex 4.6 -7.96743 5
    endloop
  endfacet
  facet normal 0 0 1
    outer loop
      vertex 7.34752 -17.7385 5
      vertex 3.52069 -8.49969 5
      vertex 4.96933 -18.5458 5
    endloop
  endfacet
  facet normal -0 0 1
    outer loop
      vertex 2.38113 -8.88652 5
      vertex 4.96933 -18.5458 5
      vertex 3.52069 -8.49969 5
    endloop
  endfacet
  facet normal 0 0 1
    outer loop
      vertex 4.96933 -18.5458 5
      vertex 2.38113 -8.88652 5
      vertex 2.5061 -19.0357 5
    endloop
  endfacet
  facet normal -0 0 1
    outer loop
      vertex 1.20084 -9.12129 5
      vertex 2.5061 -19.0357 5
      vertex 2.38113 -8.88652 5
    endloop
  endfacet
  facet normal -0 0 1
    outer loop
      vertex 0 -9.2 5
      vertex 2.5061 -19.0357 5
      vertex 1.20084 -9.12129 5
    endloop
  endfacet
  facet normal 0 0 1
    outer loop
      vertex 0 -9.2 5
      vertex 0 -19.2 5
      vertex 2.5061 -19.0357 5
    endloop
  endfacet
  facet normal 0 0 1
    outer loop
      vertex -1.20084 -9.12129 5
      vertex 0 -19.2 5
      vertex 0 -9.2 5
    endloop
  endfacet
  facet normal 0 0 1
    outer loop
      vertex -2.5061 -19.0357 5
      vertex -1.20084 -9.12129 5
      vertex -2.38113 -8.88652 5
    endloop
  endfacet
  facet normal 0 0 1
    outer loop
      vertex -1.20084 -9.12129 5
      vertex -2.5061 -19.0357 5
      vertex 0 -19.2 5
    endloop
  endfacet
  facet normal 0 0 1
    outer loop
      vertex -4.96933 -18.5458 5
      vertex -2.38113 -8.88652 5
      vertex -3.52069 -8.49969 5
    endloop
  endfacet
  facet normal 0 0 1
    outer loop
      vertex -7.34752 -17.7385 5
      vertex -3.52069 -8.49969 5
      vertex -4.6 -7.96743 5
    endloop
  endfacet
  facet normal 0 0 1
    outer loop
      vertex -2.38113 -8.88652 5
      vertex -4.96933 -18.5458 5
      vertex -2.5061 -19.0357 5
    endloop
  endfacet
  facet normal 0 0 1
    outer loop
      vertex -9.6 -16.6277 5
      vertex -4.6 -7.96743 5
      vertex -5.60061 -7.29885 5
    endloop
  endfacet
  facet normal 0 0 1
    outer loop
      vertex -11.6882 -15.2324 5
      vertex -5.60061 -7.29885 5
      vertex -6.50538 -6.50538 5
    endloop
  endfacet
  facet normal 0 0 1
    outer loop
      vertex -13.5764 -13.5764 5
      vertex -6.50538 -6.50538 5
      vertex -7.29885 -5.60061 5
    endloop
  endfacet
  facet normal 0 0 1
    outer loop
      vertex -3.52069 -8.49969 5
      vertex -7.34752 -17.7385 5
      vertex -4.96933 -18.5458 5
    endloop
  endfacet
  facet normal 0 0 1
    outer loop
      vertex -15.2324 -11.6882 5
      vertex -7.29885 -5.60061 5
      vertex -7.96743 -4.6 5
    endloop
  endfacet
  facet normal 0 0 1
    outer loop
      vertex -16.6277 -9.6 5
      vertex -7.96743 -4.6 5
      vertex -8.49969 -3.52069 5
    endloop
  endfacet
  facet normal 0 0 1
    outer loop
      vertex -17.7385 -7.34752 5
      vertex -8.49969 -3.52069 5
      vertex -8.88652 -2.38113 5
    endloop
  endfacet
  facet normal 0 0 1
    outer loop
      vertex -18.5458 -4.96933 5
      vertex -8.88652 -2.38113 5
      vertex -9.12129 -1.20084 5
    endloop
  endfacet
  facet normal 0 0 1
    outer loop
      vertex -4.6 -7.96743 5
      vertex -9.6 -16.6277 5
      vertex -7.34752 -17.7385 5
    endloop
  endfacet
  facet normal 0 0 1
    outer loop
      vertex -19.0357 -2.5061 5
      vertex -9.12129 -1.20084 5
      vertex -9.2 0 5
    endloop
  endfacet
  facet normal 0 0 1
    outer loop
      vertex -7.96743 4.6 5
      vertex -16.6277 9.6 5
      vertex -8.49969 3.52069 5
    endloop
  endfacet
  facet normal -0 0 1
    outer loop
      vertex -17.7385 7.34752 5
      vertex -8.49969 3.52069 5
      vertex -16.6277 9.6 5
    endloop
  endfacet
  facet normal 0 0 1
    outer loop
      vertex -5.60061 -7.29885 5
      vertex -11.6882 -15.2324 5
      vertex -9.6 -16.6277 5
    endloop
  endfacet
  facet normal 0 0 1
    outer loop
      vertex -8.49969 3.52069 5
      vertex -17.7385 7.34752 5
      vertex -8.88652 2.38113 5
    endloop
  endfacet
  facet normal 0 0 1
    outer loop
      vertex -6.50538 -6.50538 5
      vertex -13.5764 -13.5764 5
      vertex -11.6882 -15.2324 5
    endloop
  endfacet
  facet normal -0 0 1
    outer loop
      vertex -18.5458 4.96933 5
      vertex -8.88652 2.38113 5
      vertex -17.7385 7.34752 5
    endloop
  endfacet
  facet normal 0 0 1
    outer loop
      vertex -7.29885 -5.60061 5
      vertex -15.2324 -11.6882 5
      vertex -13.5764 -13.5764 5
    endloop
  endfacet
  facet normal 0 0 1
    outer loop
      vertex -8.88652 2.38113 5
      vertex -18.5458 4.96933 5
      vertex -9.12129 1.20084 5
    endloop
  endfacet
  facet normal 0 0 1
    outer loop
      vertex -7.96743 -4.6 5
      vertex -16.6277 -9.6 5
      vertex -15.2324 -11.6882 5
    endloop
  endfacet
  facet normal -0 0 1
    outer loop
      vertex -19.0357 2.5061 5
      vertex -9.12129 1.20084 5
      vertex -18.5458 4.96933 5
    endloop
  endfacet
  facet normal 0 0 1
    outer loop
      vertex -8.49969 -3.52069 5
      vertex -17.7385 -7.34752 5
      vertex -16.6277 -9.6 5
    endloop
  endfacet
  facet normal 0 0 1
    outer loop
      vertex -9.12129 1.20084 5
      vertex -19.0357 2.5061 5
      vertex -9.2 0 5
    endloop
  endfacet
  facet normal 0 0 1
    outer loop
      vertex -8.88652 -2.38113 5
      vertex -18.5458 -4.96933 5
      vertex -17.7385 -7.34752 5
    endloop
  endfacet
  facet normal 0 0 1
    outer loop
      vertex -19.2 0 5
      vertex -9.2 0 5
      vertex -19.0357 2.5061 5
    endloop
  endfacet
  facet normal 0 0 1
    outer loop
      vertex -9.12129 -1.20084 5
      vertex -19.0357 -2.5061 5
      vertex -18.5458 -4.96933 5
    endloop
  endfacet
  facet normal 0 0 1
    outer loop
      vertex -9.2 0 5
      vertex -19.2 0 5
      vertex -19.0357 -2.5061 5
    endloop
  endfacet
  facet normal 0.442289 -0.896873 0
    outer loop
      vertex 7.34752 -17.7385 0
      vertex 9.6 -16.6277 5
      vertex 7.34752 -17.7385 5
    endloop
  endfacet
  facet normal 0.442289 -0.896873 0
    outer loop
      vertex 9.6 -16.6277 5
      vertex 7.34752 -17.7385 0
      vertex 9.6 -16.6277 0
    endloop
  endfacet
  facet normal 0.896873 -0.442289 0
    outer loop
      vertex 16.6277 -9.6 5
      vertex 17.7385 -7.34752 0
      vertex 17.7385 -7.34752 5
    endloop
  endfacet
  facet normal 0.896873 -0.442289 0
    outer loop
      vertex 17.7385 -7.34752 0
      vertex 16.6277 -9.6 5
      vertex 16.6277 -9.6 0
    endloop
  endfacet
  facet normal -0.442289 -0.896873 0
    outer loop
      vertex -9.6 -16.6277 0
      vertex -7.34752 -17.7385 5
      vertex -9.6 -16.6277 5
    endloop
  endfacet
  facet normal -0.442289 -0.896873 -0
    outer loop
      vertex -7.34752 -17.7385 5
      vertex -9.6 -16.6277 0
      vertex -7.34752 -17.7385 0
    endloop
  endfacet
  facet normal -0.831468 -0.555573 0
    outer loop
      vertex -15.2324 -11.6882 0
      vertex -16.6277 -9.6 5
      vertex -16.6277 -9.6 0
    endloop
  endfacet
  facet normal -0.831468 -0.555573 0
    outer loop
      vertex -16.6277 -9.6 5
      vertex -15.2324 -11.6882 0
      vertex -15.2324 -11.6882 5
    endloop
  endfacet
  facet normal 0.980787 -0.195079 0
    outer loop
      vertex -8.7615 0.587367 10
      vertex -8.64667 1.16469 0
      vertex -8.64667 1.16469 10
    endloop
  endfacet
  facet normal 0.980787 -0.195079 0
    outer loop
      vertex -8.64667 1.16469 0
      vertex -8.7615 0.587367 10
      vertex -8.7615 0.587367 0
    endloop
  endfacet
  facet normal 0.442294 -0.89687 0
    outer loop
      vertex -6.55 3.89711 0
      vertex -6.02207 4.15746 10
      vertex -6.55 3.89711 10
    endloop
  endfacet
  facet normal 0.442294 -0.89687 0
    outer loop
      vertex -6.02207 4.15746 10
      vertex -6.55 3.89711 0
      vertex -6.02207 4.15746 0
    endloop
  endfacet
  facet normal 0.946928 -0.321447 0
    outer loop
      vertex -8.64667 1.16469 10
      vertex -8.45746 1.72207 0
      vertex -8.45746 1.72207 10
    endloop
  endfacet
  facet normal 0.946928 -0.321447 0
    outer loop
      vertex -8.45746 1.72207 0
      vertex -8.64667 1.16469 10
      vertex -8.64667 1.16469 0
    endloop
  endfacet
  facet normal 0.0654061 -0.997859 0
    outer loop
      vertex -4.88737 4.4615 0
      vertex -4.3 4.5 10
      vertex -4.88737 4.4615 10
    endloop
  endfacet
  facet normal 0.0654061 -0.997859 0
    outer loop
      vertex -4.3 4.5 10
      vertex -4.88737 4.4615 0
      vertex -4.3 4.5 0
    endloop
  endfacet
  facet normal 0.997859 0.0654064 0
    outer loop
      vertex -8.7615 -0.587367 10
      vertex -8.8 0 0
      vertex -8.8 0 10
    endloop
  endfacet
  facet normal 0.997859 0.0654064 0
    outer loop
      vertex -8.8 0 0
      vertex -8.7615 -0.587367 10
      vertex -8.7615 -0.587367 0
    endloop
  endfacet
  facet normal 0.831475 -0.555562 0
    outer loop
      vertex -8.19711 2.25 10
      vertex -7.87009 2.73943 0
      vertex -7.87009 2.73943 10
    endloop
  endfacet
  facet normal 0.831475 -0.555562 0
    outer loop
      vertex -7.87009 2.73943 0
      vertex -8.19711 2.25 10
      vertex -8.19711 2.25 0
    endloop
  endfacet
  facet normal 0.751836 -0.65935 0
    outer loop
      vertex -7.87009 2.73943 10
      vertex -7.48198 3.18198 0
      vertex -7.48198 3.18198 10
    endloop
  endfacet
  facet normal 0.751836 -0.65935 0
    outer loop
      vertex -7.48198 3.18198 0
      vertex -7.87009 2.73943 10
      vertex -7.87009 2.73943 0
    endloop
  endfacet
  facet normal 0.19508 -0.980787 0
    outer loop
      vertex -5.46469 4.34667 0
      vertex -4.88737 4.4615 10
      vertex -5.46469 4.34667 10
    endloop
  endfacet
  facet normal 0.19508 -0.980787 0
    outer loop
      vertex -4.88737 4.4615 10
      vertex -5.46469 4.34667 0
      vertex -4.88737 4.4615 0
    endloop
  endfacet
  facet normal 0.321447 -0.946928 0
    outer loop
      vertex -6.02207 4.15746 0
      vertex -5.46469 4.34667 10
      vertex -6.02207 4.15746 10
    endloop
  endfacet
  facet normal 0.321447 -0.946928 0
    outer loop
      vertex -5.46469 4.34667 10
      vertex -6.02207 4.15746 0
      vertex -5.46469 4.34667 0
    endloop
  endfacet
  facet normal 0.555562 -0.831475 0
    outer loop
      vertex -7.03943 3.57009 0
      vertex -6.55 3.89711 10
      vertex -7.03943 3.57009 10
    endloop
  endfacet
  facet normal 0.555562 -0.831475 0
    outer loop
      vertex -6.55 3.89711 10
      vertex -7.03943 3.57009 0
      vertex -6.55 3.89711 0
    endloop
  endfacet
  facet normal 0.65935 -0.751836 0
    outer loop
      vertex -7.48198 3.18198 0
      vertex -7.03943 3.57009 10
      vertex -7.48198 3.18198 10
    endloop
  endfacet
  facet normal 0.65935 -0.751836 0
    outer loop
      vertex -7.03943 3.57009 10
      vertex -7.48198 3.18198 0
      vertex -7.03943 3.57009 0
    endloop
  endfacet
  facet normal 0.980787 0.195079 0
    outer loop
      vertex -8.64667 -1.16469 10
      vertex -8.7615 -0.587367 0
      vertex -8.7615 -0.587367 10
    endloop
  endfacet
  facet normal 0.980787 0.195079 0
    outer loop
      vertex -8.7615 -0.587367 0
      vertex -8.64667 -1.16469 10
      vertex -8.64667 -1.16469 0
    endloop
  endfacet
  facet normal 0.946928 0.321447 0
    outer loop
      vertex -8.45746 -1.72207 10
      vertex -8.64667 -1.16469 0
      vertex -8.64667 -1.16469 10
    endloop
  endfacet
  facet normal 0.946928 0.321447 0
    outer loop
      vertex -8.64667 -1.16469 0
      vertex -8.45746 -1.72207 10
      vertex -8.45746 -1.72207 0
    endloop
  endfacet
  facet normal 0.997859 -0.0654064 0
    outer loop
      vertex -8.8 0 10
      vertex -8.7615 0.587367 0
      vertex -8.7615 0.587367 10
    endloop
  endfacet
  facet normal 0.997859 -0.0654064 0
    outer loop
      vertex -8.7615 0.587367 0
      vertex -8.8 0 10
      vertex -8.8 0 0
    endloop
  endfacet
  facet normal 0.89687 -0.442294 0
    outer loop
      vertex -8.45746 1.72207 10
      vertex -8.19711 2.25 0
      vertex -8.19711 2.25 10
    endloop
  endfacet
  facet normal 0.89687 -0.442294 0
    outer loop
      vertex -8.19711 2.25 0
      vertex -8.45746 1.72207 10
      vertex -8.45746 1.72207 0
    endloop
  endfacet
  facet normal 0.89687 0.442294 0
    outer loop
      vertex -8.19711 -2.25 10
      vertex -8.45746 -1.72207 0
      vertex -8.45746 -1.72207 10
    endloop
  endfacet
  facet normal 0.89687 0.442294 0
    outer loop
      vertex -8.45746 -1.72207 0
      vertex -8.19711 -2.25 10
      vertex -8.19711 -2.25 0
    endloop
  endfacet
  facet normal 0.65935 0.751836 -0
    outer loop
      vertex -7.03943 -3.57009 0
      vertex -7.48198 -3.18198 10
      vertex -7.03943 -3.57009 10
    endloop
  endfacet
  facet normal 0.65935 0.751836 0
    outer loop
      vertex -7.48198 -3.18198 10
      vertex -7.03943 -3.57009 0
      vertex -7.48198 -3.18198 0
    endloop
  endfacet
  facet normal 0.831475 0.555562 0
    outer loop
      vertex -7.87009 -2.73943 10
      vertex -8.19711 -2.25 0
      vertex -8.19711 -2.25 10
    endloop
  endfacet
  facet normal 0.831475 0.555562 0
    outer loop
      vertex -8.19711 -2.25 0
      vertex -7.87009 -2.73943 10
      vertex -7.87009 -2.73943 0
    endloop
  endfacet
  facet normal 0.555562 0.831475 -0
    outer loop
      vertex -6.55 -3.89711 0
      vertex -7.03943 -3.57009 10
      vertex -6.55 -3.89711 10
    endloop
  endfacet
  facet normal 0.555562 0.831475 0
    outer loop
      vertex -7.03943 -3.57009 10
      vertex -6.55 -3.89711 0
      vertex -7.03943 -3.57009 0
    endloop
  endfacet
  facet normal 0.0654061 0.997859 -0
    outer loop
      vertex -4.3 -4.5 0
      vertex -4.88737 -4.4615 10
      vertex -4.3 -4.5 10
    endloop
  endfacet
  facet normal 0.0654061 0.997859 0
    outer loop
      vertex -4.88737 -4.4615 10
      vertex -4.3 -4.5 0
      vertex -4.88737 -4.4615 0
    endloop
  endfacet
  facet normal 0.19508 0.980787 -0
    outer loop
      vertex -4.88737 -4.4615 0
      vertex -5.46469 -4.34667 10
      vertex -4.88737 -4.4615 10
    endloop
  endfacet
  facet normal 0.19508 0.980787 0
    outer loop
      vertex -5.46469 -4.34667 10
      vertex -4.88737 -4.4615 0
      vertex -5.46469 -4.34667 0
    endloop
  endfacet
  facet normal 0.751836 0.65935 0
    outer loop
      vertex -7.48198 -3.18198 10
      vertex -7.87009 -2.73943 0
      vertex -7.87009 -2.73943 10
    endloop
  endfacet
  facet normal 0.751836 0.65935 0
    outer loop
      vertex -7.87009 -2.73943 0
      vertex -7.48198 -3.18198 10
      vertex -7.48198 -3.18198 0
    endloop
  endfacet
  facet normal 0.442294 0.89687 -0
    outer loop
      vertex -6.02207 -4.15746 0
      vertex -6.55 -3.89711 10
      vertex -6.02207 -4.15746 10
    endloop
  endfacet
  facet normal 0.442294 0.89687 0
    outer loop
      vertex -6.55 -3.89711 10
      vertex -6.02207 -4.15746 0
      vertex -6.55 -3.89711 0
    endloop
  endfacet
  facet normal 0.321447 0.946928 -0
    outer loop
      vertex -5.46469 -4.34667 0
      vertex -6.02207 -4.15746 10
      vertex -5.46469 -4.34667 10
    endloop
  endfacet
  facet normal 0.321447 0.946928 0
    outer loop
      vertex -6.02207 -4.15746 10
      vertex -5.46469 -4.34667 0
      vertex -6.02207 -4.15746 0
    endloop
  endfacet
  facet normal 0 1 0
    outer loop
      vertex 18.6391 -4.5 5
      vertex 18.6391 -4.5 0
      vertex 8.01675 -4.5 5
    endloop
  endfacet
  facet normal 0 1 -0
    outer loop
      vertex 8.01675 -4.5 5
      vertex -4.3 -4.5 10
      vertex 8.01675 -4.5 10
    endloop
  endfacet
  facet normal 0 1 0
    outer loop
      vertex -4.3 -4.5 0
      vertex 8.01675 -4.5 5
      vertex 18.6391 -4.5 0
    endloop
  endfacet
  facet normal 0 1 0
    outer loop
      vertex 8.01675 -4.5 5
      vertex -4.3 -4.5 0
      vertex -4.3 -4.5 10
    endloop
  endfacet
  facet normal 0 -1 0
    outer loop
      vertex -4.3 4.5 10
      vertex 8.01675 4.5 5
      vertex 8.01675 4.5 10
    endloop
  endfacet
  facet normal 0 -1 0
    outer loop
      vertex -4.3 4.5 0
      vertex 8.01675 4.5 5
      vertex -4.3 4.5 10
    endloop
  endfacet
  facet normal 0 -1 0
    outer loop
      vertex 18.6391 4.5 0
      vertex 8.01675 4.5 5
      vertex -4.3 4.5 0
    endloop
  endfacet
  facet normal 0 -1 0
    outer loop
      vertex 8.01675 4.5 5
      vertex 18.6391 4.5 0
      vertex 18.6391 4.5 5
    endloop
  endfacet
endsolid OpenSCAD_Model
