solid OpenSCAD_Model
  facet normal -0.997858 0.0654183 0
    outer loop
      vertex -14 0 5
      vertex -13.8802 1.82737 10
      vertex -13.8802 1.82737 5
    endloop
  endfacet
  facet normal -0.997858 0.0654183 0
    outer loop
      vertex -13.8802 1.82737 10
      vertex -14 0 5
      vertex -14 0 10
    endloop
  endfacet
  facet normal 0.0654183 0.997858 -0
    outer loop
      vertex 1.82737 13.8802 5
      vertex 0 14 10
      vertex 1.82737 13.8802 10
    endloop
  endfacet
  facet normal 0.0654183 0.997858 0
    outer loop
      vertex 0 14 10
      vertex 1.82737 13.8802 5
      vertex 0 14 5
    endloop
  endfacet
  facet normal -0.0654183 -0.997858 0
    outer loop
      vertex -1.82737 -13.8802 5
      vertex 0 -14 10
      vertex -1.82737 -13.8802 10
    endloop
  endfacet
  facet normal -0.0654183 -0.997858 -0
    outer loop
      vertex 0 -14 10
      vertex -1.82737 -13.8802 5
      vertex 0 -14 5
    endloop
  endfacet
  facet normal -0.75185 -0.659334 0
    outer loop
      vertex -9.89949 -9.89949 5
      vertex -11.1069 -8.52266 10
      vertex -11.1069 -8.52266 5
    endloop
  endfacet
  facet normal -0.75185 -0.659334 0
    outer loop
      vertex -11.1069 -8.52266 10
      vertex -9.89949 -9.89949 5
      vertex -9.89949 -9.89949 10
    endloop
  endfacet
  facet normal 0.75185 0.659334 0
    outer loop
      vertex 11.1069 8.52266 10
      vertex 9.89949 9.89949 5
      vertex 9.89949 9.89949 10
    endloop
  endfacet
  facet normal 0.75185 0.659334 0
    outer loop
      vertex 9.89949 9.89949 5
      vertex 11.1069 8.52266 10
      vertex 11.1069 8.52266 5
    endloop
  endfacet
  facet normal -0.659334 0.75185 0
    outer loop
      vertex -8.52266 11.1069 5
      vertex -9.89949 9.89949 10
      vertex -8.52266 11.1069 10
    endloop
  endfacet
  facet normal -0.659334 0.75185 0
    outer loop
      vertex -9.89949 9.89949 10
      vertex -8.52266 11.1069 5
      vertex -9.89949 9.89949 5
    endloop
  endfacet
  facet normal -0.321465 0.946921 0
    outer loop
      vertex -3.62347 13.523 5
      vertex -5.35757 12.9343 10
      vertex -3.62347 13.523 10
    endloop
  endfacet
  facet normal -0.321465 0.946921 0
    outer loop
      vertex -5.35757 12.9343 10
      vertex -3.62347 13.523 5
      vertex -5.35757 12.9343 5
    endloop
  endfacet
  facet normal -0.946921 -0.321465 0
    outer loop
      vertex -12.9343 -5.35757 5
      vertex -13.523 -3.62347 10
      vertex -13.523 -3.62347 5
    endloop
  endfacet
  facet normal -0.946921 -0.321465 0
    outer loop
      vertex -13.523 -3.62347 10
      vertex -12.9343 -5.35757 5
      vertex -12.9343 -5.35757 10
    endloop
  endfacet
  facet normal 0 0 -1
    outer loop
      vertex 11.5 -2.5 0
      vertex 23.7947 -3.13263 0
      vertex 23.1822 -6.21166 0
    endloop
  endfacet
  facet normal 0 0 -1
    outer loop
      vertex 11.5 -2.5 0
      vertex 23.1822 -6.21166 0
      vertex 22.1731 -9.1844 0
    endloop
  endfacet
  facet normal 0 0 -1
    outer loop
      vertex 11.5 -2.5 0
      vertex 22.1731 -9.1844 0
      vertex 20.7846 -12 0
    endloop
  endfacet
  facet normal 0 0 -1
    outer loop
      vertex 11.5 -2.5 0
      vertex 20.7846 -12 0
      vertex 19.0405 -14.6103 0
    endloop
  endfacet
  facet normal 0 0 -1
    outer loop
      vertex 11.5 -2.5 0
      vertex 19.0405 -14.6103 0
      vertex 16.9706 -16.9706 0
    endloop
  endfacet
  facet normal 0 0 -1
    outer loop
      vertex 11.1737 -2.47861 0
      vertex 16.9706 -16.9706 0
      vertex 14.6103 -19.0405 0
    endloop
  endfacet
  facet normal 0 0 -1
    outer loop
      vertex 10.853 -2.41481 0
      vertex 14.6103 -19.0405 0
      vertex 12 -20.7846 0
    endloop
  endfacet
  facet normal 0 0 -1
    outer loop
      vertex 23.7947 -3.13263 0
      vertex 11.5 -2.5 0
      vertex 23.8361 -2.5 0
    endloop
  endfacet
  facet normal 0 0 -1
    outer loop
      vertex 16.9706 -16.9706 0
      vertex 11.1737 -2.47861 0
      vertex 11.5 -2.5 0
    endloop
  endfacet
  facet normal 0 0 -1
    outer loop
      vertex 14.6103 -19.0405 0
      vertex 10.853 -2.41481 0
      vertex 11.1737 -2.47861 0
    endloop
  endfacet
  facet normal 0 0 -1
    outer loop
      vertex 12 -20.7846 0
      vertex 10.5433 -2.3097 0
      vertex 10.853 -2.41481 0
    endloop
  endfacet
  facet normal 0 0 -1
    outer loop
      vertex 9.1844 -22.1731 0
      vertex 10.5433 -2.3097 0
      vertex 12 -20.7846 0
    endloop
  endfacet
  facet normal -0 0 -1
    outer loop
      vertex 10.5433 -2.3097 0
      vertex 9.1844 -22.1731 0
      vertex 10.25 -2.16506 0
    endloop
  endfacet
  facet normal 0 0 -1
    outer loop
      vertex 6.21166 -23.1822 0
      vertex 10.25 -2.16506 0
      vertex 9.1844 -22.1731 0
    endloop
  endfacet
  facet normal -0 0 -1
    outer loop
      vertex 10.25 -2.16506 0
      vertex 6.21166 -23.1822 0
      vertex 9.9781 -1.98338 0
    endloop
  endfacet
  facet normal 0 0 -1
    outer loop
      vertex 3.13263 -23.7947 0
      vertex 9.9781 -1.98338 0
      vertex 6.21166 -23.1822 0
    endloop
  endfacet
  facet normal -0 0 -1
    outer loop
      vertex 9.9781 -1.98338 0
      vertex 3.13263 -23.7947 0
      vertex 9.73223 -1.76777 0
    endloop
  endfacet
  facet normal 0 0 -1
    outer loop
      vertex 0 -24 0
      vertex 9.73223 -1.76777 0
      vertex 3.13263 -23.7947 0
    endloop
  endfacet
  facet normal -0 0 -1
    outer loop
      vertex 9.73223 -1.76777 0
      vertex 0 -24 0
      vertex 9.51662 -1.5219 0
    endloop
  endfacet
  facet normal 0 0 -1
    outer loop
      vertex -3.13263 -23.7947 0
      vertex 9.51662 -1.5219 0
      vertex 0 -24 0
    endloop
  endfacet
  facet normal 0 0 -1
    outer loop
      vertex -6.21166 -23.1822 0
      vertex 9.51662 -1.5219 0
      vertex -3.13263 -23.7947 0
    endloop
  endfacet
  facet normal -0 0 -1
    outer loop
      vertex 9.51662 -1.5219 0
      vertex -6.21166 -23.1822 0
      vertex 9.33494 -1.25 0
    endloop
  endfacet
  facet normal 0 0 -1
    outer loop
      vertex 11.5 2.5 0
      vertex 23.7947 3.13263 0
      vertex 23.8361 2.5 0
    endloop
  endfacet
  facet normal -0 0 -1
    outer loop
      vertex 23.7947 3.13263 0
      vertex 11.5 2.5 0
      vertex 23.1822 6.21166 0
    endloop
  endfacet
  facet normal -0 0 -1
    outer loop
      vertex 23.1822 6.21166 0
      vertex 11.5 2.5 0
      vertex 22.1731 9.1844 0
    endloop
  endfacet
  facet normal -0 0 -1
    outer loop
      vertex 22.1731 9.1844 0
      vertex 11.5 2.5 0
      vertex 20.7846 12 0
    endloop
  endfacet
  facet normal -0 0 -1
    outer loop
      vertex 20.7846 12 0
      vertex 11.5 2.5 0
      vertex 19.0405 14.6103 0
    endloop
  endfacet
  facet normal -0 0 -1
    outer loop
      vertex 19.0405 14.6103 0
      vertex 11.5 2.5 0
      vertex 16.9706 16.9706 0
    endloop
  endfacet
  facet normal 0 0 -1
    outer loop
      vertex 11.1737 2.47861 0
      vertex 16.9706 16.9706 0
      vertex 11.5 2.5 0
    endloop
  endfacet
  facet normal -0 0 -1
    outer loop
      vertex 16.9706 16.9706 0
      vertex 11.1737 2.47861 0
      vertex 14.6103 19.0405 0
    endloop
  endfacet
  facet normal 0 0 -1
    outer loop
      vertex 10.853 2.41481 0
      vertex 14.6103 19.0405 0
      vertex 11.1737 2.47861 0
    endloop
  endfacet
  facet normal -0 0 -1
    outer loop
      vertex 14.6103 19.0405 0
      vertex 10.853 2.41481 0
      vertex 12 20.7846 0
    endloop
  endfacet
  facet normal 0 0 -1
    outer loop
      vertex 10.5433 2.3097 0
      vertex 12 20.7846 0
      vertex 10.853 2.41481 0
    endloop
  endfacet
  facet normal 0 0 -1
    outer loop
      vertex 9.1844 22.1731 0
      vertex 10.5433 2.3097 0
      vertex 10.25 2.16506 0
    endloop
  endfacet
  facet normal 0 0 -1
    outer loop
      vertex 6.21166 23.1822 0
      vertex 10.25 2.16506 0
      vertex 9.9781 1.98338 0
    endloop
  endfacet
  facet normal 0 0 -1
    outer loop
      vertex 3.13263 23.7947 0
      vertex 9.9781 1.98338 0
      vertex 9.73223 1.76777 0
    endloop
  endfacet
  facet normal 0 0 -1
    outer loop
      vertex 0 24 0
      vertex 9.73223 1.76777 0
      vertex 9.51662 1.5219 0
    endloop
  endfacet
  facet normal 0 0 -1
    outer loop
      vertex -6.21166 23.1822 0
      vertex 9.51662 1.5219 0
      vertex 9.33494 1.25 0
    endloop
  endfacet
  facet normal 0 0 -1
    outer loop
      vertex -12 20.7846 0
      vertex 9.33494 1.25 0
      vertex 9.1903 0.956708 0
    endloop
  endfacet
  facet normal 0 0 -1
    outer loop
      vertex 10.5433 2.3097 0
      vertex 9.1844 22.1731 0
      vertex 12 20.7846 0
    endloop
  endfacet
  facet normal 0 0 -1
    outer loop
      vertex -16.9706 16.9706 0
      vertex 9.1903 0.956708 0
      vertex 9.08519 0.647047 0
    endloop
  endfacet
  facet normal 0 0 -1
    outer loop
      vertex -20.7846 12 0
      vertex 9.08519 0.647047 0
      vertex 9.02139 0.326315 0
    endloop
  endfacet
  facet normal 0 0 -1
    outer loop
      vertex -23.7947 3.13263 0
      vertex 9.02139 0.326315 0
      vertex 9 0 0
    endloop
  endfacet
  facet normal 0 0 -1
    outer loop
      vertex -9.1844 -22.1731 0
      vertex 9.33494 -1.25 0
      vertex -6.21166 -23.1822 0
    endloop
  endfacet
  facet normal 0 0 -1
    outer loop
      vertex 10.25 2.16506 0
      vertex 6.21166 23.1822 0
      vertex 9.1844 22.1731 0
    endloop
  endfacet
  facet normal 0 0 -1
    outer loop
      vertex -12 -20.7846 0
      vertex 9.33494 -1.25 0
      vertex -9.1844 -22.1731 0
    endloop
  endfacet
  facet normal 0 0 -1
    outer loop
      vertex 9.9781 1.98338 0
      vertex 3.13263 23.7947 0
      vertex 6.21166 23.1822 0
    endloop
  endfacet
  facet normal -0 0 -1
    outer loop
      vertex 9.33494 -1.25 0
      vertex -12 -20.7846 0
      vertex 9.1903 -0.956708 0
    endloop
  endfacet
  facet normal 0 0 -1
    outer loop
      vertex 9.73223 1.76777 0
      vertex 0 24 0
      vertex 3.13263 23.7947 0
    endloop
  endfacet
  facet normal 0 0 -1
    outer loop
      vertex -14.6103 -19.0405 0
      vertex 9.1903 -0.956708 0
      vertex -12 -20.7846 0
    endloop
  endfacet
  facet normal 0 0 -1
    outer loop
      vertex 9.51662 1.5219 0
      vertex -3.13263 23.7947 0
      vertex 0 24 0
    endloop
  endfacet
  facet normal 0 0 -1
    outer loop
      vertex -16.9706 -16.9706 0
      vertex 9.1903 -0.956708 0
      vertex -14.6103 -19.0405 0
    endloop
  endfacet
  facet normal 0 0 -1
    outer loop
      vertex 9.51662 1.5219 0
      vertex -6.21166 23.1822 0
      vertex -3.13263 23.7947 0
    endloop
  endfacet
  facet normal -0 0 -1
    outer loop
      vertex 9.1903 -0.956708 0
      vertex -16.9706 -16.9706 0
      vertex 9.08519 -0.647047 0
    endloop
  endfacet
  facet normal 0 0 -1
    outer loop
      vertex 9.33494 1.25 0
      vertex -9.1844 22.1731 0
      vertex -6.21166 23.1822 0
    endloop
  endfacet
  facet normal 0 0 -1
    outer loop
      vertex -19.0405 -14.6103 0
      vertex 9.08519 -0.647047 0
      vertex -16.9706 -16.9706 0
    endloop
  endfacet
  facet normal 0 0 -1
    outer loop
      vertex 9.33494 1.25 0
      vertex -12 20.7846 0
      vertex -9.1844 22.1731 0
    endloop
  endfacet
  facet normal 0 0 -1
    outer loop
      vertex -20.7846 -12 0
      vertex 9.08519 -0.647047 0
      vertex -19.0405 -14.6103 0
    endloop
  endfacet
  facet normal 0 0 -1
    outer loop
      vertex 9.1903 0.956708 0
      vertex -14.6103 19.0405 0
      vertex -12 20.7846 0
    endloop
  endfacet
  facet normal -0 0 -1
    outer loop
      vertex 9.08519 -0.647047 0
      vertex -20.7846 -12 0
      vertex 9.02139 -0.326315 0
    endloop
  endfacet
  facet normal 0 0 -1
    outer loop
      vertex 9.1903 0.956708 0
      vertex -16.9706 16.9706 0
      vertex -14.6103 19.0405 0
    endloop
  endfacet
  facet normal 0 0 -1
    outer loop
      vertex -22.1731 -9.1844 0
      vertex 9.02139 -0.326315 0
      vertex -20.7846 -12 0
    endloop
  endfacet
  facet normal 0 0 -1
    outer loop
      vertex 9.08519 0.647047 0
      vertex -19.0405 14.6103 0
      vertex -16.9706 16.9706 0
    endloop
  endfacet
  facet normal 0 0 -1
    outer loop
      vertex -23.1822 -6.21166 0
      vertex 9.02139 -0.326315 0
      vertex -22.1731 -9.1844 0
    endloop
  endfacet
  facet normal 0 0 -1
    outer loop
      vertex 9.08519 0.647047 0
      vertex -20.7846 12 0
      vertex -19.0405 14.6103 0
    endloop
  endfacet
  facet normal 0 0 -1
    outer loop
      vertex -23.7947 -3.13263 0
      vertex 9.02139 -0.326315 0
      vertex -23.1822 -6.21166 0
    endloop
  endfacet
  facet normal 0 0 -1
    outer loop
      vertex 9.02139 0.326315 0
      vertex -22.1731 9.1844 0
      vertex -20.7846 12 0
    endloop
  endfacet
  facet normal -0 0 -1
    outer loop
      vertex 9.02139 -0.326315 0
      vertex -23.7947 -3.13263 0
      vertex 9 0 0
    endloop
  endfacet
  facet normal 0 0 -1
    outer loop
      vertex 9.02139 0.326315 0
      vertex -23.1822 6.21166 0
      vertex -22.1731 9.1844 0
    endloop
  endfacet
  facet normal 0 0 -1
    outer loop
      vertex -24 0 0
      vertex 9 0 0
      vertex -23.7947 -3.13263 0
    endloop
  endfacet
  facet normal 0 0 -1
    outer loop
      vertex 9.02139 0.326315 0
      vertex -23.7947 3.13263 0
      vertex -23.1822 6.21166 0
    endloop
  endfacet
  facet normal 0 0 -1
    outer loop
      vertex 9 0 0
      vertex -24 0 0
      vertex -23.7947 3.13263 0
    endloop
  endfacet
  facet normal 0.896885 0.442264 0
    outer loop
      vertex 12.9343 5.35757 10
      vertex 12.1244 7 5
      vertex 12.1244 7 10
    endloop
  endfacet
  facet normal 0.896885 0.442264 0
    outer loop
      vertex 12.1244 7 5
      vertex 12.9343 5.35757 10
      vertex 12.9343 5.35757 5
    endloop
  endfacet
  facet normal 0.831447 0.555605 0
    outer loop
      vertex 12.1244 7 10
      vertex 11.1069 8.52266 5
      vertex 11.1069 8.52266 10
    endloop
  endfacet
  facet normal 0.831447 0.555605 0
    outer loop
      vertex 11.1069 8.52266 5
      vertex 12.1244 7 10
      vertex 12.1244 7 5
    endloop
  endfacet
  facet normal 0.442264 0.896885 -0
    outer loop
      vertex 7 12.1244 5
      vertex 5.35757 12.9343 10
      vertex 7 12.1244 10
    endloop
  endfacet
  facet normal 0.442264 0.896885 0
    outer loop
      vertex 5.35757 12.9343 10
      vertex 7 12.1244 5
      vertex 5.35757 12.9343 5
    endloop
  endfacet
  facet normal 0.555605 0.831447 -0
    outer loop
      vertex 8.52266 11.1069 5
      vertex 7 12.1244 10
      vertex 8.52266 11.1069 10
    endloop
  endfacet
  facet normal 0.555605 0.831447 0
    outer loop
      vertex 7 12.1244 10
      vertex 8.52266 11.1069 5
      vertex 7 12.1244 5
    endloop
  endfacet
  facet normal -0.896885 0.442264 0
    outer loop
      vertex -12.9343 5.35757 5
      vertex -12.1244 7 10
      vertex -12.1244 7 5
    endloop
  endfacet
  facet normal -0.896885 0.442264 0
    outer loop
      vertex -12.1244 7 10
      vertex -12.9343 5.35757 5
      vertex -12.9343 5.35757 10
    endloop
  endfacet
  facet normal 0 0 1
    outer loop
      vertex 11.5 2.5 10
      vertex 13.523 3.62347 10
      vertex 12.9343 5.35757 10
    endloop
  endfacet
  facet normal 0 0 1
    outer loop
      vertex 10.853 2.41481 10
      vertex 12.9343 5.35757 10
      vertex 12.1244 7 10
    endloop
  endfacet
  facet normal 0 0 1
    outer loop
      vertex 13.523 3.62347 10
      vertex 11.5 2.5 10
      vertex 13.7464 2.5 10
    endloop
  endfacet
  facet normal 0 0 1
    outer loop
      vertex 12.9343 5.35757 10
      vertex 11.1737 2.47861 10
      vertex 11.5 2.5 10
    endloop
  endfacet
  facet normal 0 0 1
    outer loop
      vertex 10.25 2.16506 10
      vertex 12.1244 7 10
      vertex 11.1069 8.52266 10
    endloop
  endfacet
  facet normal 0 0 1
    outer loop
      vertex 12.9343 5.35757 10
      vertex 10.853 2.41481 10
      vertex 11.1737 2.47861 10
    endloop
  endfacet
  facet normal 0 0 1
    outer loop
      vertex 12.1244 7 10
      vertex 10.5433 2.3097 10
      vertex 10.853 2.41481 10
    endloop
  endfacet
  facet normal 0 0 1
    outer loop
      vertex 12.1244 7 10
      vertex 10.25 2.16506 10
      vertex 10.5433 2.3097 10
    endloop
  endfacet
  facet normal 0 0 1
    outer loop
      vertex 11.1069 8.52266 10
      vertex 9.9781 1.98338 10
      vertex 10.25 2.16506 10
    endloop
  endfacet
  facet normal 0 0 1
    outer loop
      vertex 9.89949 9.89949 10
      vertex 9.9781 1.98338 10
      vertex 11.1069 8.52266 10
    endloop
  endfacet
  facet normal 0 0 1
    outer loop
      vertex 9.89949 9.89949 10
      vertex 9.73223 1.76777 10
      vertex 9.9781 1.98338 10
    endloop
  endfacet
  facet normal 0 0 1
    outer loop
      vertex 8.52266 11.1069 10
      vertex 9.73223 1.76777 10
      vertex 9.89949 9.89949 10
    endloop
  endfacet
  facet normal 0 0 1
    outer loop
      vertex 9.73223 1.76777 10
      vertex 8.52266 11.1069 10
      vertex 9.51662 1.5219 10
    endloop
  endfacet
  facet normal 0 0 1
    outer loop
      vertex 7 12.1244 10
      vertex 9.51662 1.5219 10
      vertex 8.52266 11.1069 10
    endloop
  endfacet
  facet normal 0 0 1
    outer loop
      vertex 9.51662 1.5219 10
      vertex 7 12.1244 10
      vertex 9.33494 1.25 10
    endloop
  endfacet
  facet normal 0 0 1
    outer loop
      vertex 5.35757 12.9343 10
      vertex 9.33494 1.25 10
      vertex 7 12.1244 10
    endloop
  endfacet
  facet normal 0 0 1
    outer loop
      vertex 9.33494 1.25 10
      vertex 3.62347 13.523 10
      vertex 9.1903 0.956708 10
    endloop
  endfacet
  facet normal 0 0 1
    outer loop
      vertex 3.62347 13.523 10
      vertex 9.33494 1.25 10
      vertex 5.35757 12.9343 10
    endloop
  endfacet
  facet normal -0 0 1
    outer loop
      vertex 11.5 -2.5 10
      vertex 13.523 -3.62347 10
      vertex 13.7464 -2.5 10
    endloop
  endfacet
  facet normal 0 0 1
    outer loop
      vertex 13.523 -3.62347 10
      vertex 11.5 -2.5 10
      vertex 12.9343 -5.35757 10
    endloop
  endfacet
  facet normal 0 0 1
    outer loop
      vertex 11.1737 -2.47861 10
      vertex 12.9343 -5.35757 10
      vertex 11.5 -2.5 10
    endloop
  endfacet
  facet normal 0 0 1
    outer loop
      vertex 10.853 -2.41481 10
      vertex 12.9343 -5.35757 10
      vertex 11.1737 -2.47861 10
    endloop
  endfacet
  facet normal 0 0 1
    outer loop
      vertex 12.9343 -5.35757 10
      vertex 10.853 -2.41481 10
      vertex 12.1244 -7 10
    endloop
  endfacet
  facet normal 0 0 1
    outer loop
      vertex 10.5433 -2.3097 10
      vertex 12.1244 -7 10
      vertex 10.853 -2.41481 10
    endloop
  endfacet
  facet normal 0 0 1
    outer loop
      vertex 10.25 -2.16506 10
      vertex 12.1244 -7 10
      vertex 10.5433 -2.3097 10
    endloop
  endfacet
  facet normal 0 0 1
    outer loop
      vertex 12.1244 -7 10
      vertex 10.25 -2.16506 10
      vertex 11.1069 -8.52266 10
    endloop
  endfacet
  facet normal 0 0 1
    outer loop
      vertex 9.9781 -1.98338 10
      vertex 11.1069 -8.52266 10
      vertex 10.25 -2.16506 10
    endloop
  endfacet
  facet normal 0 0 1
    outer loop
      vertex 9.9781 -1.98338 10
      vertex 9.89949 -9.89949 10
      vertex 11.1069 -8.52266 10
    endloop
  endfacet
  facet normal 0 0 1
    outer loop
      vertex 9.73223 -1.76777 10
      vertex 9.89949 -9.89949 10
      vertex 9.9781 -1.98338 10
    endloop
  endfacet
  facet normal 0 0 1
    outer loop
      vertex 8.52266 -11.1069 10
      vertex 9.73223 -1.76777 10
      vertex 9.51662 -1.5219 10
    endloop
  endfacet
  facet normal 0 0 1
    outer loop
      vertex 7 -12.1244 10
      vertex 9.51662 -1.5219 10
      vertex 9.33494 -1.25 10
    endloop
  endfacet
  facet normal 0 0 1
    outer loop
      vertex 3.62347 -13.523 10
      vertex 9.33494 -1.25 10
      vertex 9.1903 -0.956708 10
    endloop
  endfacet
  facet normal 0 0 1
    outer loop
      vertex 0 -14 10
      vertex 9.1903 -0.956708 10
      vertex 9.08519 -0.647047 10
    endloop
  endfacet
  facet normal 0 0 1
    outer loop
      vertex -7 -12.1244 10
      vertex 9.08519 -0.647047 10
      vertex 9.02139 -0.326315 10
    endloop
  endfacet
  facet normal 0 0 1
    outer loop
      vertex 9.73223 -1.76777 10
      vertex 8.52266 -11.1069 10
      vertex 9.89949 -9.89949 10
    endloop
  endfacet
  facet normal 0 0 1
    outer loop
      vertex -12.9343 -5.35757 10
      vertex 9.02139 -0.326315 10
      vertex 9 0 10
    endloop
  endfacet
  facet normal 0 0 1
    outer loop
      vertex 1.82737 13.8802 10
      vertex 9.1903 0.956708 10
      vertex 3.62347 13.523 10
    endloop
  endfacet
  facet normal 0 0 1
    outer loop
      vertex 0 14 10
      vertex 9.1903 0.956708 10
      vertex 1.82737 13.8802 10
    endloop
  endfacet
  facet normal 0 0 1
    outer loop
      vertex 9.51662 -1.5219 10
      vertex 7 -12.1244 10
      vertex 8.52266 -11.1069 10
    endloop
  endfacet
  facet normal 0 0 1
    outer loop
      vertex 9.1903 0.956708 10
      vertex 0 14 10
      vertex 9.08519 0.647047 10
    endloop
  endfacet
  facet normal 0 0 1
    outer loop
      vertex 9.33494 -1.25 10
      vertex 5.35757 -12.9343 10
      vertex 7 -12.1244 10
    endloop
  endfacet
  facet normal -0 0 1
    outer loop
      vertex -1.82737 13.8802 10
      vertex 9.08519 0.647047 10
      vertex 0 14 10
    endloop
  endfacet
  facet normal 0 0 1
    outer loop
      vertex 9.33494 -1.25 10
      vertex 3.62347 -13.523 10
      vertex 5.35757 -12.9343 10
    endloop
  endfacet
  facet normal -0 0 1
    outer loop
      vertex -3.62347 13.523 10
      vertex 9.08519 0.647047 10
      vertex -1.82737 13.8802 10
    endloop
  endfacet
  facet normal 0 0 1
    outer loop
      vertex 9.1903 -0.956708 10
      vertex 1.82737 -13.8802 10
      vertex 3.62347 -13.523 10
    endloop
  endfacet
  facet normal -0 0 1
    outer loop
      vertex -5.35757 12.9343 10
      vertex 9.08519 0.647047 10
      vertex -3.62347 13.523 10
    endloop
  endfacet
  facet normal 0 0 1
    outer loop
      vertex 9.1903 -0.956708 10
      vertex 0 -14 10
      vertex 1.82737 -13.8802 10
    endloop
  endfacet
  facet normal -0 0 1
    outer loop
      vertex -7 12.1244 10
      vertex 9.08519 0.647047 10
      vertex -5.35757 12.9343 10
    endloop
  endfacet
  facet normal 0 0 1
    outer loop
      vertex 9.08519 -0.647047 10
      vertex -1.82737 -13.8802 10
      vertex 0 -14 10
    endloop
  endfacet
  facet normal 0 0 1
    outer loop
      vertex 9.08519 0.647047 10
      vertex -7 12.1244 10
      vertex 9.02139 0.326315 10
    endloop
  endfacet
  facet normal 0 0 1
    outer loop
      vertex 9.08519 -0.647047 10
      vertex -3.62347 -13.523 10
      vertex -1.82737 -13.8802 10
    endloop
  endfacet
  facet normal -0 0 1
    outer loop
      vertex -8.52266 11.1069 10
      vertex 9.02139 0.326315 10
      vertex -7 12.1244 10
    endloop
  endfacet
  facet normal 0 0 1
    outer loop
      vertex 9.08519 -0.647047 10
      vertex -5.35757 -12.9343 10
      vertex -3.62347 -13.523 10
    endloop
  endfacet
  facet normal -0 0 1
    outer loop
      vertex -9.89949 9.89949 10
      vertex 9.02139 0.326315 10
      vertex -8.52266 11.1069 10
    endloop
  endfacet
  facet normal 0 0 1
    outer loop
      vertex 9.08519 -0.647047 10
      vertex -7 -12.1244 10
      vertex -5.35757 -12.9343 10
    endloop
  endfacet
  facet normal -0 0 1
    outer loop
      vertex -11.1069 8.52266 10
      vertex 9.02139 0.326315 10
      vertex -9.89949 9.89949 10
    endloop
  endfacet
  facet normal 0 0 1
    outer loop
      vertex 9.02139 -0.326315 10
      vertex -8.52266 -11.1069 10
      vertex -7 -12.1244 10
    endloop
  endfacet
  facet normal -0 0 1
    outer loop
      vertex -12.1244 7 10
      vertex 9.02139 0.326315 10
      vertex -11.1069 8.52266 10
    endloop
  endfacet
  facet normal 0 0 1
    outer loop
      vertex 9.02139 -0.326315 10
      vertex -9.89949 -9.89949 10
      vertex -8.52266 -11.1069 10
    endloop
  endfacet
  facet normal -0 0 1
    outer loop
      vertex -12.9343 5.35757 10
      vertex 9.02139 0.326315 10
      vertex -12.1244 7 10
    endloop
  endfacet
  facet normal 0 0 1
    outer loop
      vertex 9.02139 -0.326315 10
      vertex -11.1069 -8.52266 10
      vertex -9.89949 -9.89949 10
    endloop
  endfacet
  facet normal 0 0 1
    outer loop
      vertex 9.02139 0.326315 10
      vertex -12.9343 5.35757 10
      vertex 9 0 10
    endloop
  endfacet
  facet normal 0 0 1
    outer loop
      vertex 9.02139 -0.326315 10
      vertex -12.1244 -7 10
      vertex -11.1069 -8.52266 10
    endloop
  endfacet
  facet normal -0 0 1
    outer loop
      vertex -13.523 3.62347 10
      vertex 9 0 10
      vertex -12.9343 5.35757 10
    endloop
  endfacet
  facet normal 0 0 1
    outer loop
      vertex 9.02139 -0.326315 10
      vertex -12.9343 -5.35757 10
      vertex -12.1244 -7 10
    endloop
  endfacet
  facet normal -0 0 1
    outer loop
      vertex -13.8802 1.82737 10
      vertex 9 0 10
      vertex -13.523 3.62347 10
    endloop
  endfacet
  facet normal 0 0 1
    outer loop
      vertex 9 0 10
      vertex -13.523 -3.62347 10
      vertex -12.9343 -5.35757 10
    endloop
  endfacet
  facet normal 0 0 1
    outer loop
      vertex -14 0 10
      vertex 9 0 10
      vertex -13.8802 1.82737 10
    endloop
  endfacet
  facet normal 0 0 1
    outer loop
      vertex 9 0 10
      vertex -13.8802 -1.82737 10
      vertex -13.523 -3.62347 10
    endloop
  endfacet
  facet normal 0 0 1
    outer loop
      vertex 9 0 10
      vertex -14 0 10
      vertex -13.8802 -1.82737 10
    endloop
  endfacet
  facet normal -0.442264 0.896885 0
    outer loop
      vertex -5.35757 12.9343 5
      vertex -7 12.1244 10
      vertex -5.35757 12.9343 10
    endloop
  endfacet
  facet normal -0.442264 0.896885 0
    outer loop
      vertex -7 12.1244 10
      vertex -5.35757 12.9343 5
      vertex -7 12.1244 5
    endloop
  endfacet
  facet normal -0.0654183 0.997858 0
    outer loop
      vertex 0 14 5
      vertex -1.82737 13.8802 10
      vertex 0 14 10
    endloop
  endfacet
  facet normal -0.0654183 0.997858 0
    outer loop
      vertex -1.82737 13.8802 10
      vertex 0 14 5
      vertex -1.82737 13.8802 5
    endloop
  endfacet
  facet normal 0.0654183 -0.997858 0
    outer loop
      vertex 0 -14 5
      vertex 1.82737 -13.8802 10
      vertex 0 -14 10
    endloop
  endfacet
  facet normal 0.0654183 -0.997858 0
    outer loop
      vertex 1.82737 -13.8802 10
      vertex 0 -14 5
      vertex 1.82737 -13.8802 5
    endloop
  endfacet
  facet normal 0.442264 -0.896885 0
    outer loop
      vertex 5.35757 -12.9343 5
      vertex 7 -12.1244 10
      vertex 5.35757 -12.9343 10
    endloop
  endfacet
  facet normal 0.442264 -0.896885 0
    outer loop
      vertex 7 -12.1244 10
      vertex 5.35757 -12.9343 5
      vertex 7 -12.1244 5
    endloop
  endfacet
  facet normal -0.896885 -0.442264 0
    outer loop
      vertex -12.1244 -7 5
      vertex -12.9343 -5.35757 10
      vertex -12.9343 -5.35757 5
    endloop
  endfacet
  facet normal -0.896885 -0.442264 0
    outer loop
      vertex -12.9343 -5.35757 10
      vertex -12.1244 -7 5
      vertex -12.1244 -7 10
    endloop
  endfacet
  facet normal -0.997858 -0.0654183 0
    outer loop
      vertex -13.8802 -1.82737 5
      vertex -14 0 10
      vertex -14 0 5
    endloop
  endfacet
  facet normal -0.997858 -0.0654183 0
    outer loop
      vertex -14 0 10
      vertex -13.8802 -1.82737 5
      vertex -13.8802 -1.82737 10
    endloop
  endfacet
  facet normal 0.946921 0.321465 0
    outer loop
      vertex 13.523 3.62347 10
      vertex 12.9343 5.35757 5
      vertex 12.9343 5.35757 10
    endloop
  endfacet
  facet normal 0.946921 0.321465 0
    outer loop
      vertex 12.9343 5.35757 5
      vertex 13.523 3.62347 10
      vertex 13.523 3.62347 5
    endloop
  endfacet
  facet normal 0.980797 0.19503 0
    outer loop
      vertex 13.7464 2.5 10
      vertex 13.523 3.62347 5
      vertex 13.523 3.62347 10
    endloop
  endfacet
  facet normal 0.980797 0.19503 0
    outer loop
      vertex 13.523 3.62347 5
      vertex 13.7464 2.5 10
      vertex 13.7464 2.5 5
    endloop
  endfacet
  facet normal 0.321465 0.946921 -0
    outer loop
      vertex 5.35757 12.9343 5
      vertex 3.62347 13.523 10
      vertex 5.35757 12.9343 10
    endloop
  endfacet
  facet normal 0.321465 0.946921 0
    outer loop
      vertex 3.62347 13.523 10
      vertex 5.35757 12.9343 5
      vertex 3.62347 13.523 5
    endloop
  endfacet
  facet normal 0.195055 0.980792 -0
    outer loop
      vertex 3.62347 13.523 5
      vertex 1.82737 13.8802 10
      vertex 3.62347 13.523 10
    endloop
  endfacet
  facet normal 0.195055 0.980792 0
    outer loop
      vertex 1.82737 13.8802 10
      vertex 3.62347 13.523 5
      vertex 1.82737 13.8802 5
    endloop
  endfacet
  facet normal 0.659334 0.75185 -0
    outer loop
      vertex 9.89949 9.89949 5
      vertex 8.52266 11.1069 10
      vertex 9.89949 9.89949 10
    endloop
  endfacet
  facet normal 0.659334 0.75185 0
    outer loop
      vertex 8.52266 11.1069 10
      vertex 9.89949 9.89949 5
      vertex 8.52266 11.1069 5
    endloop
  endfacet
  facet normal -0.831447 0.555605 0
    outer loop
      vertex -12.1244 7 5
      vertex -11.1069 8.52266 10
      vertex -11.1069 8.52266 5
    endloop
  endfacet
  facet normal -0.831447 0.555605 0
    outer loop
      vertex -11.1069 8.52266 10
      vertex -12.1244 7 5
      vertex -12.1244 7 10
    endloop
  endfacet
  facet normal -0.75185 0.659334 0
    outer loop
      vertex -11.1069 8.52266 5
      vertex -9.89949 9.89949 10
      vertex -9.89949 9.89949 5
    endloop
  endfacet
  facet normal -0.75185 0.659334 0
    outer loop
      vertex -9.89949 9.89949 10
      vertex -11.1069 8.52266 5
      vertex -11.1069 8.52266 10
    endloop
  endfacet
  facet normal -0.946921 0.321465 0
    outer loop
      vertex -13.523 3.62347 5
      vertex -12.9343 5.35757 10
      vertex -12.9343 5.35757 5
    endloop
  endfacet
  facet normal -0.946921 0.321465 0
    outer loop
      vertex -12.9343 5.35757 10
      vertex -13.523 3.62347 5
      vertex -13.523 3.62347 10
    endloop
  endfacet
  facet normal -0.980792 0.195055 0
    outer loop
      vertex -13.8802 1.82737 5
      vertex -13.523 3.62347 10
      vertex -13.523 3.62347 5
    endloop
  endfacet
  facet normal -0.980792 0.195055 0
    outer loop
      vertex -13.523 3.62347 10
      vertex -13.8802 1.82737 5
      vertex -13.8802 1.82737 10
    endloop
  endfacet
  facet normal -0.555605 0.831447 0
    outer loop
      vertex -7 12.1244 5
      vertex -8.52266 11.1069 10
      vertex -7 12.1244 10
    endloop
  endfacet
  facet normal -0.555605 0.831447 0
    outer loop
      vertex -8.52266 11.1069 10
      vertex -7 12.1244 5
      vertex -8.52266 11.1069 5
    endloop
  endfacet
  facet normal -0.195055 0.980792 0
    outer loop
      vertex -1.82737 13.8802 5
      vertex -3.62347 13.523 10
      vertex -1.82737 13.8802 10
    endloop
  endfacet
  facet normal -0.195055 0.980792 0
    outer loop
      vertex -3.62347 13.523 10
      vertex -1.82737 13.8802 5
      vertex -3.62347 13.523 5
    endloop
  endfacet
  facet normal 0.195055 -0.980792 0
    outer loop
      vertex 1.82737 -13.8802 5
      vertex 3.62347 -13.523 10
      vertex 1.82737 -13.8802 10
    endloop
  endfacet
  facet normal 0.195055 -0.980792 0
    outer loop
      vertex 3.62347 -13.523 10
      vertex 1.82737 -13.8802 5
      vertex 3.62347 -13.523 5
    endloop
  endfacet
  facet normal 0.555605 -0.831447 0
    outer loop
      vertex 7 -12.1244 5
      vertex 8.52266 -11.1069 10
      vertex 7 -12.1244 10
    endloop
  endfacet
  facet normal 0.555605 -0.831447 0
    outer loop
      vertex 8.52266 -11.1069 10
      vertex 7 -12.1244 5
      vertex 8.52266 -11.1069 5
    endloop
  endfacet
  facet normal 0.75185 -0.659334 0
    outer loop
      vertex 9.89949 -9.89949 10
      vertex 11.1069 -8.52266 5
      vertex 11.1069 -8.52266 10
    endloop
  endfacet
  facet normal 0.75185 -0.659334 0
    outer loop
      vertex 11.1069 -8.52266 5
      vertex 9.89949 -9.89949 10
      vertex 9.89949 -9.89949 5
    endloop
  endfacet
  facet normal 0.896885 -0.442264 0
    outer loop
      vertex 12.1244 -7 10
      vertex 12.9343 -5.35757 5
      vertex 12.9343 -5.35757 10
    endloop
  endfacet
  facet normal 0.896885 -0.442264 0
    outer loop
      vertex 12.9343 -5.35757 5
      vertex 12.1244 -7 10
      vertex 12.1244 -7 5
    endloop
  endfacet
  facet normal -0.659334 -0.75185 0
    outer loop
      vertex -9.89949 -9.89949 5
      vertex -8.52266 -11.1069 10
      vertex -9.89949 -9.89949 10
    endloop
  endfacet
  facet normal -0.659334 -0.75185 -0
    outer loop
      vertex -8.52266 -11.1069 10
      vertex -9.89949 -9.89949 5
      vertex -8.52266 -11.1069 5
    endloop
  endfacet
  facet normal -0.442264 -0.896885 0
    outer loop
      vertex -7 -12.1244 5
      vertex -5.35757 -12.9343 10
      vertex -7 -12.1244 10
    endloop
  endfacet
  facet normal -0.442264 -0.896885 -0
    outer loop
      vertex -5.35757 -12.9343 10
      vertex -7 -12.1244 5
      vertex -5.35757 -12.9343 5
    endloop
  endfacet
  facet normal -0.321465 -0.946921 0
    outer loop
      vertex -5.35757 -12.9343 5
      vertex -3.62347 -13.523 10
      vertex -5.35757 -12.9343 10
    endloop
  endfacet
  facet normal -0.321465 -0.946921 -0
    outer loop
      vertex -3.62347 -13.523 10
      vertex -5.35757 -12.9343 5
      vertex -3.62347 -13.523 5
    endloop
  endfacet
  facet normal -0.831447 -0.555605 0
    outer loop
      vertex -11.1069 -8.52266 5
      vertex -12.1244 -7 10
      vertex -12.1244 -7 5
    endloop
  endfacet
  facet normal -0.831447 -0.555605 0
    outer loop
      vertex -12.1244 -7 10
      vertex -11.1069 -8.52266 5
      vertex -11.1069 -8.52266 10
    endloop
  endfacet
  facet normal -0.980792 -0.195055 0
    outer loop
      vertex -13.523 -3.62347 5
      vertex -13.8802 -1.82737 10
      vertex -13.8802 -1.82737 5
    endloop
  endfacet
  facet normal -0.980792 -0.195055 0
    outer loop
      vertex -13.8802 -1.82737 10
      vertex -13.523 -3.62347 5
      vertex -13.523 -3.62347 10
    endloop
  endfacet
  facet normal 0.321465 -0.946921 0
    outer loop
      vertex 3.62347 -13.523 5
      vertex 5.35757 -12.9343 10
      vertex 3.62347 -13.523 10
    endloop
  endfacet
  facet normal 0.321465 -0.946921 0
    outer loop
      vertex 5.35757 -12.9343 10
      vertex 3.62347 -13.523 5
      vertex 5.35757 -12.9343 5
    endloop
  endfacet
  facet normal 0.659334 -0.75185 0
    outer loop
      vertex 8.52266 -11.1069 5
      vertex 9.89949 -9.89949 10
      vertex 8.52266 -11.1069 10
    endloop
  endfacet
  facet normal 0.659334 -0.75185 0
    outer loop
      vertex 9.89949 -9.89949 10
      vertex 8.52266 -11.1069 5
      vertex 9.89949 -9.89949 5
    endloop
  endfacet
  facet normal 0.831447 -0.555605 0
    outer loop
      vertex 11.1069 -8.52266 10
      vertex 12.1244 -7 5
      vertex 12.1244 -7 10
    endloop
  endfacet
  facet normal 0.831447 -0.555605 0
    outer loop
      vertex 12.1244 -7 5
      vertex 11.1069 -8.52266 10
      vertex 11.1069 -8.52266 5
    endloop
  endfacet
  facet normal 0.980797 -0.19503 0
    outer loop
      vertex 13.523 -3.62347 10
      vertex 13.7464 -2.5 5
      vertex 13.7464 -2.5 10
    endloop
  endfacet
  facet normal 0.980797 -0.19503 0
    outer loop
      vertex 13.7464 -2.5 5
      vertex 13.523 -3.62347 10
      vertex 13.523 -3.62347 5
    endloop
  endfacet
  facet normal 0.946921 -0.321465 0
    outer loop
      vertex 12.9343 -5.35757 10
      vertex 13.523 -3.62347 5
      vertex 13.523 -3.62347 10
    endloop
  endfacet
  facet normal 0.946921 -0.321465 0
    outer loop
      vertex 13.523 -3.62347 5
      vertex 12.9343 -5.35757 10
      vertex 12.9343 -5.35757 5
    endloop
  endfacet
  facet normal -0.555605 -0.831447 0
    outer loop
      vertex -8.52266 -11.1069 5
      vertex -7 -12.1244 10
      vertex -8.52266 -11.1069 10
    endloop
  endfacet
  facet normal -0.555605 -0.831447 -0
    outer loop
      vertex -7 -12.1244 10
      vertex -8.52266 -11.1069 5
      vertex -7 -12.1244 5
    endloop
  endfacet
  facet normal -0.195055 -0.980792 0
    outer loop
      vertex -3.62347 -13.523 5
      vertex -1.82737 -13.8802 10
      vertex -3.62347 -13.523 10
    endloop
  endfacet
  facet normal -0.195055 -0.980792 -0
    outer loop
      vertex -1.82737 -13.8802 10
      vertex -3.62347 -13.523 5
      vertex -1.82737 -13.8802 5
    endloop
  endfacet
  facet normal 0.55556 0.831476 -0
    outer loop
      vertex 14.6103 19.0405 0
      vertex 12 20.7846 5
      vertex 14.6103 19.0405 5
    endloop
  endfacet
  facet normal 0.55556 0.831476 0
    outer loop
      vertex 12 20.7846 5
      vertex 14.6103 19.0405 0
      vertex 12 20.7846 0
    endloop
  endfacet
  facet normal -0.946931 0.321437 0
    outer loop
      vertex -23.1822 6.21166 0
      vertex -22.1731 9.1844 5
      vertex -22.1731 9.1844 0
    endloop
  endfacet
  facet normal -0.946931 0.321437 0
    outer loop
      vertex -22.1731 9.1844 5
      vertex -23.1822 6.21166 0
      vertex -23.1822 6.21166 5
    endloop
  endfacet
  facet normal -0.321437 -0.946931 0
    outer loop
      vertex -9.1844 -22.1731 0
      vertex -6.21166 -23.1822 5
      vertex -9.1844 -22.1731 5
    endloop
  endfacet
  facet normal -0.321437 -0.946931 -0
    outer loop
      vertex -6.21166 -23.1822 5
      vertex -9.1844 -22.1731 0
      vertex -6.21166 -23.1822 0
    endloop
  endfacet
  facet normal -0.321437 0.946931 0
    outer loop
      vertex -6.21166 23.1822 0
      vertex -9.1844 22.1731 5
      vertex -6.21166 23.1822 5
    endloop
  endfacet
  facet normal -0.321437 0.946931 0
    outer loop
      vertex -9.1844 22.1731 5
      vertex -6.21166 23.1822 0
      vertex -9.1844 22.1731 0
    endloop
  endfacet
  facet normal -0.896873 0.442289 0
    outer loop
      vertex -22.1731 9.1844 0
      vertex -20.7846 12 5
      vertex -20.7846 12 0
    endloop
  endfacet
  facet normal -0.896873 0.442289 0
    outer loop
      vertex -20.7846 12 5
      vertex -22.1731 9.1844 0
      vertex -22.1731 9.1844 5
    endloop
  endfacet
  facet normal -0.896873 -0.442289 0
    outer loop
      vertex -20.7846 -12 0
      vertex -22.1731 -9.1844 5
      vertex -22.1731 -9.1844 0
    endloop
  endfacet
  facet normal -0.896873 -0.442289 0
    outer loop
      vertex -22.1731 -9.1844 5
      vertex -20.7846 -12 0
      vertex -20.7846 -12 5
    endloop
  endfacet
  facet normal 0.980783 0.195103 0
    outer loop
      vertex 23.7947 3.13263 5
      vertex 23.1822 6.21166 0
      vertex 23.1822 6.21166 5
    endloop
  endfacet
  facet normal 0.980783 0.195103 0
    outer loop
      vertex 23.1822 6.21166 0
      vertex 23.7947 3.13263 5
      vertex 23.7947 3.13263 0
    endloop
  endfacet
  facet normal 0.946931 0.321437 0
    outer loop
      vertex 23.1822 6.21166 5
      vertex 22.1731 9.1844 0
      vertex 22.1731 9.1844 5
    endloop
  endfacet
  facet normal 0.946931 0.321437 0
    outer loop
      vertex 22.1731 9.1844 0
      vertex 23.1822 6.21166 5
      vertex 23.1822 6.21166 0
    endloop
  endfacet
  facet normal 0.659341 0.751844 -0
    outer loop
      vertex 16.9706 16.9706 0
      vertex 14.6103 19.0405 5
      vertex 16.9706 16.9706 5
    endloop
  endfacet
  facet normal 0.659341 0.751844 0
    outer loop
      vertex 14.6103 19.0405 5
      vertex 16.9706 16.9706 0
      vertex 14.6103 19.0405 0
    endloop
  endfacet
  facet normal 0.442289 0.896873 -0
    outer loop
      vertex 12 20.7846 0
      vertex 9.1844 22.1731 5
      vertex 12 20.7846 5
    endloop
  endfacet
  facet normal 0.442289 0.896873 0
    outer loop
      vertex 9.1844 22.1731 5
      vertex 12 20.7846 0
      vertex 9.1844 22.1731 0
    endloop
  endfacet
  facet normal 0.0653957 0.997859 -0
    outer loop
      vertex 3.13263 23.7947 0
      vertex 0 24 5
      vertex 3.13263 23.7947 5
    endloop
  endfacet
  facet normal 0.0653957 0.997859 0
    outer loop
      vertex 0 24 5
      vertex 3.13263 23.7947 0
      vertex 0 24 0
    endloop
  endfacet
  facet normal -0.751844 0.659341 0
    outer loop
      vertex -19.0405 14.6103 0
      vertex -16.9706 16.9706 5
      vertex -16.9706 16.9706 0
    endloop
  endfacet
  facet normal -0.751844 0.659341 0
    outer loop
      vertex -16.9706 16.9706 5
      vertex -19.0405 14.6103 0
      vertex -19.0405 14.6103 5
    endloop
  endfacet
  facet normal -0.442289 0.896873 0
    outer loop
      vertex -9.1844 22.1731 0
      vertex -12 20.7846 5
      vertex -9.1844 22.1731 5
    endloop
  endfacet
  facet normal -0.442289 0.896873 0
    outer loop
      vertex -12 20.7846 5
      vertex -9.1844 22.1731 0
      vertex -12 20.7846 0
    endloop
  endfacet
  facet normal -0.55556 0.831476 0
    outer loop
      vertex -12 20.7846 0
      vertex -14.6103 19.0405 5
      vertex -12 20.7846 5
    endloop
  endfacet
  facet normal -0.55556 0.831476 0
    outer loop
      vertex -14.6103 19.0405 5
      vertex -12 20.7846 0
      vertex -14.6103 19.0405 0
    endloop
  endfacet
  facet normal 0.997866 0.0653014 0
    outer loop
      vertex 23.8361 2.5 5
      vertex 23.7947 3.13263 0
      vertex 23.7947 3.13263 5
    endloop
  endfacet
  facet normal 0.997866 0.0653014 0
    outer loop
      vertex 23.7947 3.13263 0
      vertex 23.8361 2.5 5
      vertex 23.8361 2.5 0
    endloop
  endfacet
  facet normal 0.946931 -0.321437 0
    outer loop
      vertex 22.1731 -9.1844 5
      vertex 23.1822 -6.21166 0
      vertex 23.1822 -6.21166 5
    endloop
  endfacet
  facet normal 0.946931 -0.321437 0
    outer loop
      vertex 23.1822 -6.21166 0
      vertex 22.1731 -9.1844 5
      vertex 22.1731 -9.1844 0
    endloop
  endfacet
  facet normal 0.321437 -0.946931 0
    outer loop
      vertex 6.21166 -23.1822 0
      vertex 9.1844 -22.1731 5
      vertex 6.21166 -23.1822 5
    endloop
  endfacet
  facet normal 0.321437 -0.946931 0
    outer loop
      vertex 9.1844 -22.1731 5
      vertex 6.21166 -23.1822 0
      vertex 9.1844 -22.1731 0
    endloop
  endfacet
  facet normal 0.831476 -0.55556 0
    outer loop
      vertex 19.0405 -14.6103 5
      vertex 20.7846 -12 0
      vertex 20.7846 -12 5
    endloop
  endfacet
  facet normal 0.831476 -0.55556 0
    outer loop
      vertex 20.7846 -12 0
      vertex 19.0405 -14.6103 5
      vertex 19.0405 -14.6103 0
    endloop
  endfacet
  facet normal -0.55556 -0.831476 0
    outer loop
      vertex -14.6103 -19.0405 0
      vertex -12 -20.7846 5
      vertex -14.6103 -19.0405 5
    endloop
  endfacet
  facet normal -0.55556 -0.831476 -0
    outer loop
      vertex -12 -20.7846 5
      vertex -14.6103 -19.0405 0
      vertex -12 -20.7846 0
    endloop
  endfacet
  facet normal -0.442289 -0.896873 0
    outer loop
      vertex -12 -20.7846 0
      vertex -9.1844 -22.1731 5
      vertex -12 -20.7846 5
    endloop
  endfacet
  facet normal -0.442289 -0.896873 -0
    outer loop
      vertex -9.1844 -22.1731 5
      vertex -12 -20.7846 0
      vertex -9.1844 -22.1731 0
    endloop
  endfacet
  facet normal 0.896873 0.442289 0
    outer loop
      vertex 22.1731 9.1844 5
      vertex 20.7846 12 0
      vertex 20.7846 12 5
    endloop
  endfacet
  facet normal 0.896873 0.442289 0
    outer loop
      vertex 20.7846 12 0
      vertex 22.1731 9.1844 5
      vertex 22.1731 9.1844 0
    endloop
  endfacet
  facet normal 0.831476 0.55556 0
    outer loop
      vertex 20.7846 12 5
      vertex 19.0405 14.6103 0
      vertex 19.0405 14.6103 5
    endloop
  endfacet
  facet normal 0.831476 0.55556 0
    outer loop
      vertex 19.0405 14.6103 0
      vertex 20.7846 12 5
      vertex 20.7846 12 0
    endloop
  endfacet
  facet normal 0.751844 0.659341 0
    outer loop
      vertex 19.0405 14.6103 5
      vertex 16.9706 16.9706 0
      vertex 16.9706 16.9706 5
    endloop
  endfacet
  facet normal 0.751844 0.659341 0
    outer loop
      vertex 16.9706 16.9706 0
      vertex 19.0405 14.6103 5
      vertex 19.0405 14.6103 0
    endloop
  endfacet
  facet normal 0.321437 0.946931 -0
    outer loop
      vertex 9.1844 22.1731 0
      vertex 6.21166 23.1822 5
      vertex 9.1844 22.1731 5
    endloop
  endfacet
  facet normal 0.321437 0.946931 0
    outer loop
      vertex 6.21166 23.1822 5
      vertex 9.1844 22.1731 0
      vertex 6.21166 23.1822 0
    endloop
  endfacet
  facet normal 0.195103 0.980783 -0
    outer loop
      vertex 6.21166 23.1822 0
      vertex 3.13263 23.7947 5
      vertex 6.21166 23.1822 5
    endloop
  endfacet
  facet normal 0.195103 0.980783 0
    outer loop
      vertex 3.13263 23.7947 5
      vertex 6.21166 23.1822 0
      vertex 3.13263 23.7947 0
    endloop
  endfacet
  facet normal -0.997859 0.0653957 0
    outer loop
      vertex -24 0 0
      vertex -23.7947 3.13263 5
      vertex -23.7947 3.13263 0
    endloop
  endfacet
  facet normal -0.997859 0.0653957 0
    outer loop
      vertex -23.7947 3.13263 5
      vertex -24 0 0
      vertex -24 0 5
    endloop
  endfacet
  facet normal -0.980783 0.195103 0
    outer loop
      vertex -23.7947 3.13263 0
      vertex -23.1822 6.21166 5
      vertex -23.1822 6.21166 0
    endloop
  endfacet
  facet normal -0.980783 0.195103 0
    outer loop
      vertex -23.1822 6.21166 5
      vertex -23.7947 3.13263 0
      vertex -23.7947 3.13263 5
    endloop
  endfacet
  facet normal -0.831476 0.55556 0
    outer loop
      vertex -20.7846 12 0
      vertex -19.0405 14.6103 5
      vertex -19.0405 14.6103 0
    endloop
  endfacet
  facet normal -0.831476 0.55556 0
    outer loop
      vertex -19.0405 14.6103 5
      vertex -20.7846 12 0
      vertex -20.7846 12 5
    endloop
  endfacet
  facet normal -0.0653957 0.997859 0
    outer loop
      vertex 0 24 0
      vertex -3.13263 23.7947 5
      vertex 0 24 5
    endloop
  endfacet
  facet normal -0.0653957 0.997859 0
    outer loop
      vertex -3.13263 23.7947 5
      vertex 0 24 0
      vertex -3.13263 23.7947 0
    endloop
  endfacet
  facet normal -0.195103 0.980783 0
    outer loop
      vertex -3.13263 23.7947 0
      vertex -6.21166 23.1822 5
      vertex -3.13263 23.7947 5
    endloop
  endfacet
  facet normal -0.195103 0.980783 0
    outer loop
      vertex -6.21166 23.1822 5
      vertex -3.13263 23.7947 0
      vertex -6.21166 23.1822 0
    endloop
  endfacet
  facet normal -0.659341 0.751844 0
    outer loop
      vertex -14.6103 19.0405 0
      vertex -16.9706 16.9706 5
      vertex -14.6103 19.0405 5
    endloop
  endfacet
  facet normal -0.659341 0.751844 0
    outer loop
      vertex -16.9706 16.9706 5
      vertex -14.6103 19.0405 0
      vertex -16.9706 16.9706 0
    endloop
  endfacet
  facet normal 0.997866 -0.0653014 0
    outer loop
      vertex 23.7947 -3.13263 5
      vertex 23.8361 -2.5 0
      vertex 23.8361 -2.5 5
    endloop
  endfacet
  facet normal 0.997866 -0.0653014 0
    outer loop
      vertex 23.8361 -2.5 0
      vertex 23.7947 -3.13263 5
      vertex 23.7947 -3.13263 0
    endloop
  endfacet
  facet normal 0.980783 -0.195103 0
    outer loop
      vertex 23.1822 -6.21166 5
      vertex 23.7947 -3.13263 0
      vertex 23.7947 -3.13263 5
    endloop
  endfacet
  facet normal 0.980783 -0.195103 0
    outer loop
      vertex 23.7947 -3.13263 0
      vertex 23.1822 -6.21166 5
      vertex 23.1822 -6.21166 0
    endloop
  endfacet
  facet normal 0.0653957 -0.997859 0
    outer loop
      vertex 0 -24 0
      vertex 3.13263 -23.7947 5
      vertex 0 -24 5
    endloop
  endfacet
  facet normal 0.0653957 -0.997859 0
    outer loop
      vertex 3.13263 -23.7947 5
      vertex 0 -24 0
      vertex 3.13263 -23.7947 0
    endloop
  endfacet
  facet normal 0.195103 -0.980783 0
    outer loop
      vertex 3.13263 -23.7947 0
      vertex 6.21166 -23.1822 5
      vertex 3.13263 -23.7947 5
    endloop
  endfacet
  facet normal 0.195103 -0.980783 0
    outer loop
      vertex 6.21166 -23.1822 5
      vertex 3.13263 -23.7947 0
      vertex 6.21166 -23.1822 0
    endloop
  endfacet
  facet normal 0.55556 -0.831476 0
    outer loop
      vertex 12 -20.7846 0
      vertex 14.6103 -19.0405 5
      vertex 12 -20.7846 5
    endloop
  endfacet
  facet normal 0.55556 -0.831476 0
    outer loop
      vertex 14.6103 -19.0405 5
      vertex 12 -20.7846 0
      vertex 14.6103 -19.0405 0
    endloop
  endfacet
  facet normal 0.751844 -0.659341 0
    outer loop
      vertex 16.9706 -16.9706 5
      vertex 19.0405 -14.6103 0
      vertex 19.0405 -14.6103 5
    endloop
  endfacet
  facet normal 0.751844 -0.659341 0
    outer loop
      vertex 19.0405 -14.6103 0
      vertex 16.9706 -16.9706 5
      vertex 16.9706 -16.9706 0
    endloop
  endfacet
  facet normal 0.896873 -0.442289 0
    outer loop
      vertex 20.7846 -12 5
      vertex 22.1731 -9.1844 0
      vertex 22.1731 -9.1844 5
    endloop
  endfacet
  facet normal 0.896873 -0.442289 0
    outer loop
      vertex 22.1731 -9.1844 0
      vertex 20.7846 -12 5
      vertex 20.7846 -12 0
    endloop
  endfacet
  facet normal -0.195103 -0.980783 0
    outer loop
      vertex -6.21166 -23.1822 0
      vertex -3.13263 -23.7947 5
      vertex -6.21166 -23.1822 5
    endloop
  endfacet
  facet normal -0.195103 -0.980783 -0
    outer loop
      vertex -3.13263 -23.7947 5
      vertex -6.21166 -23.1822 0
      vertex -3.13263 -23.7947 0
    endloop
  endfacet
  facet normal -0.0653957 -0.997859 0
    outer loop
      vertex -3.13263 -23.7947 0
      vertex 0 -24 5
      vertex -3.13263 -23.7947 5
    endloop
  endfacet
  facet normal -0.0653957 -0.997859 -0
    outer loop
      vertex 0 -24 5
      vertex -3.13263 -23.7947 0
      vertex 0 -24 0
    endloop
  endfacet
  facet normal -0.659341 -0.751844 0
    outer loop
      vertex -16.9706 -16.9706 0
      vertex -14.6103 -19.0405 5
      vertex -16.9706 -16.9706 5
    endloop
  endfacet
  facet normal -0.659341 -0.751844 -0
    outer loop
      vertex -14.6103 -19.0405 5
      vertex -16.9706 -16.9706 0
      vertex -14.6103 -19.0405 0
    endloop
  endfacet
  facet normal -0.946931 -0.321437 0
    outer loop
      vertex -22.1731 -9.1844 0
      vertex -23.1822 -6.21166 5
      vertex -23.1822 -6.21166 0
    endloop
  endfacet
  facet normal -0.946931 -0.321437 0
    outer loop
      vertex -23.1822 -6.21166 5
      vertex -22.1731 -9.1844 0
      vertex -22.1731 -9.1844 5
    endloop
  endfacet
  facet normal -0.997859 -0.0653957 0
    outer loop
      vertex -23.7947 -3.13263 0
      vertex -24 0 5
      vertex -24 0 0
    endloop
  endfacet
  facet normal -0.997859 -0.0653957 0
    outer loop
      vertex -24 0 5
      vertex -23.7947 -3.13263 0
      vertex -23.7947 -3.13263 5
    endloop
  endfacet
  facet normal -0.831476 -0.55556 0
    outer loop
      vertex -19.0405 -14.6103 0
      vertex -20.7846 -12 5
      vertex -20.7846 -12 0
    endloop
  endfacet
  facet normal -0.831476 -0.55556 0
    outer loop
      vertex -20.7846 -12 5
      vertex -19.0405 -14.6103 0
      vertex -19.0405 -14.6103 5
    endloop
  endfacet
  facet normal -0.751844 -0.659341 0
    outer loop
      vertex -16.9706 -16.9706 0
      vertex -19.0405 -14.6103 5
      vertex -19.0405 -14.6103 0
    endloop
  endfacet
  facet normal -0.751844 -0.659341 0
    outer loop
      vertex -19.0405 -14.6103 5
      vertex -16.9706 -16.9706 0
      vertex -16.9706 -16.9706 5
    endloop
  endfacet
  facet normal 0 0 1
    outer loop
      vertex 13.7464 2.5 5
      vertex 23.7947 3.13263 5
      vertex 23.1822 6.21166 5
    endloop
  endfacet
  facet normal 0 0 1
    outer loop
      vertex 13.523 3.62347 5
      vertex 23.1822 6.21166 5
      vertex 22.1731 9.1844 5
    endloop
  endfacet
  facet normal 0 0 1
    outer loop
      vertex 12.9343 5.35757 5
      vertex 22.1731 9.1844 5
      vertex 20.7846 12 5
    endloop
  endfacet
  facet normal 0 0 1
    outer loop
      vertex 12.1244 7 5
      vertex 20.7846 12 5
      vertex 19.0405 14.6103 5
    endloop
  endfacet
  facet normal 0 0 1
    outer loop
      vertex 11.1069 8.52266 5
      vertex 19.0405 14.6103 5
      vertex 16.9706 16.9706 5
    endloop
  endfacet
  facet normal 0 0 1
    outer loop
      vertex 9.89949 9.89949 5
      vertex 16.9706 16.9706 5
      vertex 14.6103 19.0405 5
    endloop
  endfacet
  facet normal 0 0 1
    outer loop
      vertex 20.7846 12 5
      vertex 12.1244 7 5
      vertex 12.9343 5.35757 5
    endloop
  endfacet
  facet normal 0 0 1
    outer loop
      vertex 23.7947 3.13263 5
      vertex 13.7464 2.5 5
      vertex 23.8361 2.5 5
    endloop
  endfacet
  facet normal 0 -0 1
    outer loop
      vertex 13.7464 2.5 5
      vertex 23.1822 6.21166 5
      vertex 13.523 3.62347 5
    endloop
  endfacet
  facet normal 0 0 1
    outer loop
      vertex 22.1731 9.1844 5
      vertex 12.9343 5.35757 5
      vertex 13.523 3.62347 5
    endloop
  endfacet
  facet normal 0 0 1
    outer loop
      vertex 8.52266 11.1069 5
      vertex 14.6103 19.0405 5
      vertex 12 20.7846 5
    endloop
  endfacet
  facet normal 0 0 1
    outer loop
      vertex 19.0405 14.6103 5
      vertex 11.1069 8.52266 5
      vertex 12.1244 7 5
    endloop
  endfacet
  facet normal 0 0 1
    outer loop
      vertex 16.9706 16.9706 5
      vertex 9.89949 9.89949 5
      vertex 11.1069 8.52266 5
    endloop
  endfacet
  facet normal 0 0 1
    outer loop
      vertex 7 12.1244 5
      vertex 12 20.7846 5
      vertex 9.1844 22.1731 5
    endloop
  endfacet
  facet normal 0 0 1
    outer loop
      vertex 14.6103 19.0405 5
      vertex 8.52266 11.1069 5
      vertex 9.89949 9.89949 5
    endloop
  endfacet
  facet normal 0 0 1
    outer loop
      vertex 12 20.7846 5
      vertex 7 12.1244 5
      vertex 8.52266 11.1069 5
    endloop
  endfacet
  facet normal 0 0 1
    outer loop
      vertex 5.35757 12.9343 5
      vertex 9.1844 22.1731 5
      vertex 6.21166 23.1822 5
    endloop
  endfacet
  facet normal 0 0 1
    outer loop
      vertex 9.1844 22.1731 5
      vertex 5.35757 12.9343 5
      vertex 7 12.1244 5
    endloop
  endfacet
  facet normal 0 0 1
    outer loop
      vertex 6.21166 23.1822 5
      vertex 3.62347 13.523 5
      vertex 5.35757 12.9343 5
    endloop
  endfacet
  facet normal 0 0 1
    outer loop
      vertex 3.13263 23.7947 5
      vertex 3.62347 13.523 5
      vertex 6.21166 23.1822 5
    endloop
  endfacet
  facet normal 0 0 1
    outer loop
      vertex 3.13263 23.7947 5
      vertex 1.82737 13.8802 5
      vertex 3.62347 13.523 5
    endloop
  endfacet
  facet normal 0 0 1
    outer loop
      vertex 0 24 5
      vertex 1.82737 13.8802 5
      vertex 3.13263 23.7947 5
    endloop
  endfacet
  facet normal 0 0 1
    outer loop
      vertex 0 24 5
      vertex 0 14 5
      vertex 1.82737 13.8802 5
    endloop
  endfacet
  facet normal 0 0 1
    outer loop
      vertex 0 24 5
      vertex -1.82737 13.8802 5
      vertex 0 14 5
    endloop
  endfacet
  facet normal -0 0 1
    outer loop
      vertex -3.13263 23.7947 5
      vertex -1.82737 13.8802 5
      vertex 0 24 5
    endloop
  endfacet
  facet normal 0 0 1
    outer loop
      vertex -3.13263 23.7947 5
      vertex -3.62347 13.523 5
      vertex -1.82737 13.8802 5
    endloop
  endfacet
  facet normal -0 0 1
    outer loop
      vertex -6.21166 23.1822 5
      vertex -3.62347 13.523 5
      vertex -3.13263 23.7947 5
    endloop
  endfacet
  facet normal 0 0 1
    outer loop
      vertex -3.62347 13.523 5
      vertex -6.21166 23.1822 5
      vertex -5.35757 12.9343 5
    endloop
  endfacet
  facet normal -0 0 1
    outer loop
      vertex -9.1844 22.1731 5
      vertex -5.35757 12.9343 5
      vertex -6.21166 23.1822 5
    endloop
  endfacet
  facet normal 0 0 1
    outer loop
      vertex -5.35757 12.9343 5
      vertex -9.1844 22.1731 5
      vertex -7 12.1244 5
    endloop
  endfacet
  facet normal -0 0 1
    outer loop
      vertex -12 20.7846 5
      vertex -7 12.1244 5
      vertex -9.1844 22.1731 5
    endloop
  endfacet
  facet normal 0 0 1
    outer loop
      vertex -7 12.1244 5
      vertex -12 20.7846 5
      vertex -8.52266 11.1069 5
    endloop
  endfacet
  facet normal -0 0 1
    outer loop
      vertex -14.6103 19.0405 5
      vertex -8.52266 11.1069 5
      vertex -12 20.7846 5
    endloop
  endfacet
  facet normal 0 0 1
    outer loop
      vertex -8.52266 11.1069 5
      vertex -14.6103 19.0405 5
      vertex -9.89949 9.89949 5
    endloop
  endfacet
  facet normal -0 0 1
    outer loop
      vertex -16.9706 16.9706 5
      vertex -9.89949 9.89949 5
      vertex -14.6103 19.0405 5
    endloop
  endfacet
  facet normal 0 0 1
    outer loop
      vertex -9.89949 9.89949 5
      vertex -16.9706 16.9706 5
      vertex -11.1069 8.52266 5
    endloop
  endfacet
  facet normal -0 0 1
    outer loop
      vertex -19.0405 14.6103 5
      vertex -11.1069 8.52266 5
      vertex -16.9706 16.9706 5
    endloop
  endfacet
  facet normal 0 0 1
    outer loop
      vertex -11.1069 8.52266 5
      vertex -19.0405 14.6103 5
      vertex -12.1244 7 5
    endloop
  endfacet
  facet normal 0 0 1
    outer loop
      vertex -12.1244 7 5
      vertex -20.7846 12 5
      vertex -12.9343 5.35757 5
    endloop
  endfacet
  facet normal -0 0 1
    outer loop
      vertex -20.7846 12 5
      vertex -12.1244 7 5
      vertex -19.0405 14.6103 5
    endloop
  endfacet
  facet normal -0 0 1
    outer loop
      vertex 13.7464 -2.5 5
      vertex 23.7947 -3.13263 5
      vertex 23.8361 -2.5 5
    endloop
  endfacet
  facet normal 0 0 1
    outer loop
      vertex 23.7947 -3.13263 5
      vertex 13.7464 -2.5 5
      vertex 23.1822 -6.21166 5
    endloop
  endfacet
  facet normal 0 0 1
    outer loop
      vertex 23.1822 -6.21166 5
      vertex 13.523 -3.62347 5
      vertex 22.1731 -9.1844 5
    endloop
  endfacet
  facet normal -0 0 1
    outer loop
      vertex 12.9343 -5.35757 5
      vertex 22.1731 -9.1844 5
      vertex 13.523 -3.62347 5
    endloop
  endfacet
  facet normal -0 0 1
    outer loop
      vertex 12.1244 -7 5
      vertex 20.7846 -12 5
      vertex 12.9343 -5.35757 5
    endloop
  endfacet
  facet normal 0 0 1
    outer loop
      vertex 20.7846 -12 5
      vertex 12.1244 -7 5
      vertex 19.0405 -14.6103 5
    endloop
  endfacet
  facet normal 0 0 1
    outer loop
      vertex 23.1822 -6.21166 5
      vertex 13.7464 -2.5 5
      vertex 13.523 -3.62347 5
    endloop
  endfacet
  facet normal 0 0 1
    outer loop
      vertex 22.1731 -9.1844 5
      vertex 12.9343 -5.35757 5
      vertex 20.7846 -12 5
    endloop
  endfacet
  facet normal -0 0 1
    outer loop
      vertex 11.1069 -8.52266 5
      vertex 19.0405 -14.6103 5
      vertex 12.1244 -7 5
    endloop
  endfacet
  facet normal 0 0 1
    outer loop
      vertex 19.0405 -14.6103 5
      vertex 11.1069 -8.52266 5
      vertex 16.9706 -16.9706 5
    endloop
  endfacet
  facet normal -0 0 1
    outer loop
      vertex 9.89949 -9.89949 5
      vertex 16.9706 -16.9706 5
      vertex 11.1069 -8.52266 5
    endloop
  endfacet
  facet normal 0 0 1
    outer loop
      vertex 16.9706 -16.9706 5
      vertex 9.89949 -9.89949 5
      vertex 14.6103 -19.0405 5
    endloop
  endfacet
  facet normal -0 0 1
    outer loop
      vertex 8.52266 -11.1069 5
      vertex 14.6103 -19.0405 5
      vertex 9.89949 -9.89949 5
    endloop
  endfacet
  facet normal 0 0 1
    outer loop
      vertex 14.6103 -19.0405 5
      vertex 8.52266 -11.1069 5
      vertex 12 -20.7846 5
    endloop
  endfacet
  facet normal -0 0 1
    outer loop
      vertex 7 -12.1244 5
      vertex 12 -20.7846 5
      vertex 8.52266 -11.1069 5
    endloop
  endfacet
  facet normal 0 0 1
    outer loop
      vertex 12 -20.7846 5
      vertex 7 -12.1244 5
      vertex 9.1844 -22.1731 5
    endloop
  endfacet
  facet normal -0 0 1
    outer loop
      vertex 5.35757 -12.9343 5
      vertex 9.1844 -22.1731 5
      vertex 7 -12.1244 5
    endloop
  endfacet
  facet normal 0 0 1
    outer loop
      vertex 9.1844 -22.1731 5
      vertex 5.35757 -12.9343 5
      vertex 6.21166 -23.1822 5
    endloop
  endfacet
  facet normal -0 0 1
    outer loop
      vertex 3.62347 -13.523 5
      vertex 6.21166 -23.1822 5
      vertex 5.35757 -12.9343 5
    endloop
  endfacet
  facet normal 0 0 1
    outer loop
      vertex 3.62347 -13.523 5
      vertex 3.13263 -23.7947 5
      vertex 6.21166 -23.1822 5
    endloop
  endfacet
  facet normal -0 0 1
    outer loop
      vertex 1.82737 -13.8802 5
      vertex 3.13263 -23.7947 5
      vertex 3.62347 -13.523 5
    endloop
  endfacet
  facet normal -0 0 1
    outer loop
      vertex 0 -14 5
      vertex 3.13263 -23.7947 5
      vertex 1.82737 -13.8802 5
    endloop
  endfacet
  facet normal 0 0 1
    outer loop
      vertex 0 -14 5
      vertex 0 -24 5
      vertex 3.13263 -23.7947 5
    endloop
  endfacet
  facet normal 0 0 1
    outer loop
      vertex -1.82737 -13.8802 5
      vertex 0 -24 5
      vertex 0 -14 5
    endloop
  endfacet
  facet normal 0 0 1
    outer loop
      vertex -1.82737 -13.8802 5
      vertex -3.13263 -23.7947 5
      vertex 0 -24 5
    endloop
  endfacet
  facet normal 0 0 1
    outer loop
      vertex -3.62347 -13.523 5
      vertex -3.13263 -23.7947 5
      vertex -1.82737 -13.8802 5
    endloop
  endfacet
  facet normal 0 0 1
    outer loop
      vertex -6.21166 -23.1822 5
      vertex -3.62347 -13.523 5
      vertex -5.35757 -12.9343 5
    endloop
  endfacet
  facet normal 0 0 1
    outer loop
      vertex -3.62347 -13.523 5
      vertex -6.21166 -23.1822 5
      vertex -3.13263 -23.7947 5
    endloop
  endfacet
  facet normal 0 0 1
    outer loop
      vertex -9.1844 -22.1731 5
      vertex -5.35757 -12.9343 5
      vertex -7 -12.1244 5
    endloop
  endfacet
  facet normal 0 0 1
    outer loop
      vertex -12 -20.7846 5
      vertex -7 -12.1244 5
      vertex -8.52266 -11.1069 5
    endloop
  endfacet
  facet normal 0 0 1
    outer loop
      vertex -5.35757 -12.9343 5
      vertex -9.1844 -22.1731 5
      vertex -6.21166 -23.1822 5
    endloop
  endfacet
  facet normal 0 0 1
    outer loop
      vertex -14.6103 -19.0405 5
      vertex -8.52266 -11.1069 5
      vertex -9.89949 -9.89949 5
    endloop
  endfacet
  facet normal 0 0 1
    outer loop
      vertex -16.9706 -16.9706 5
      vertex -9.89949 -9.89949 5
      vertex -11.1069 -8.52266 5
    endloop
  endfacet
  facet normal 0 0 1
    outer loop
      vertex -7 -12.1244 5
      vertex -12 -20.7846 5
      vertex -9.1844 -22.1731 5
    endloop
  endfacet
  facet normal 0 0 1
    outer loop
      vertex -19.0405 -14.6103 5
      vertex -11.1069 -8.52266 5
      vertex -12.1244 -7 5
    endloop
  endfacet
  facet normal 0 0 1
    outer loop
      vertex -20.7846 -12 5
      vertex -12.1244 -7 5
      vertex -12.9343 -5.35757 5
    endloop
  endfacet
  facet normal 0 0 1
    outer loop
      vertex -22.1731 -9.1844 5
      vertex -12.9343 -5.35757 5
      vertex -13.523 -3.62347 5
    endloop
  endfacet
  facet normal 0 0 1
    outer loop
      vertex -23.1822 -6.21166 5
      vertex -13.523 -3.62347 5
      vertex -13.8802 -1.82737 5
    endloop
  endfacet
  facet normal 0 0 1
    outer loop
      vertex -8.52266 -11.1069 5
      vertex -14.6103 -19.0405 5
      vertex -12 -20.7846 5
    endloop
  endfacet
  facet normal 0 0 1
    outer loop
      vertex -23.7947 -3.13263 5
      vertex -13.8802 -1.82737 5
      vertex -14 0 5
    endloop
  endfacet
  facet normal -0 0 1
    outer loop
      vertex -22.1731 9.1844 5
      vertex -12.9343 5.35757 5
      vertex -20.7846 12 5
    endloop
  endfacet
  facet normal 0 0 1
    outer loop
      vertex -12.9343 5.35757 5
      vertex -22.1731 9.1844 5
      vertex -13.523 3.62347 5
    endloop
  endfacet
  facet normal 0 0 1
    outer loop
      vertex -9.89949 -9.89949 5
      vertex -16.9706 -16.9706 5
      vertex -14.6103 -19.0405 5
    endloop
  endfacet
  facet normal -0 0 1
    outer loop
      vertex -23.1822 6.21166 5
      vertex -13.523 3.62347 5
      vertex -22.1731 9.1844 5
    endloop
  endfacet
  facet normal 0 0 1
    outer loop
      vertex -11.1069 -8.52266 5
      vertex -19.0405 -14.6103 5
      vertex -16.9706 -16.9706 5
    endloop
  endfacet
  facet normal 0 0 1
    outer loop
      vertex -13.523 3.62347 5
      vertex -23.1822 6.21166 5
      vertex -13.8802 1.82737 5
    endloop
  endfacet
  facet normal 0 0 1
    outer loop
      vertex -12.1244 -7 5
      vertex -20.7846 -12 5
      vertex -19.0405 -14.6103 5
    endloop
  endfacet
  facet normal -0 0 1
    outer loop
      vertex -23.7947 3.13263 5
      vertex -13.8802 1.82737 5
      vertex -23.1822 6.21166 5
    endloop
  endfacet
  facet normal 0 0 1
    outer loop
      vertex -12.9343 -5.35757 5
      vertex -22.1731 -9.1844 5
      vertex -20.7846 -12 5
    endloop
  endfacet
  facet normal 0 0 1
    outer loop
      vertex -13.8802 1.82737 5
      vertex -23.7947 3.13263 5
      vertex -14 0 5
    endloop
  endfacet
  facet normal 0 0 1
    outer loop
      vertex -13.523 -3.62347 5
      vertex -23.1822 -6.21166 5
      vertex -22.1731 -9.1844 5
    endloop
  endfacet
  facet normal 0 0 1
    outer loop
      vertex -24 0 5
      vertex -14 0 5
      vertex -23.7947 3.13263 5
    endloop
  endfacet
  facet normal 0 0 1
    outer loop
      vertex -13.8802 -1.82737 5
      vertex -23.7947 -3.13263 5
      vertex -23.1822 -6.21166 5
    endloop
  endfacet
  facet normal 0 0 1
    outer loop
      vertex -14 0 5
      vertex -24 0 5
      vertex -23.7947 -3.13263 5
    endloop
  endfacet
  facet normal 0.442289 -0.896873 0
    outer loop
      vertex 9.1844 -22.1731 0
      vertex 12 -20.7846 5
      vertex 9.1844 -22.1731 5
    endloop
  endfacet
  facet normal 0.442289 -0.896873 0
    outer loop
      vertex 12 -20.7846 5
      vertex 9.1844 -22.1731 0
      vertex 12 -20.7846 0
    endloop
  endfacet
  facet normal 0.659341 -0.751844 0
    outer loop
      vertex 14.6103 -19.0405 0
      vertex 16.9706 -16.9706 5
      vertex 14.6103 -19.0405 5
    endloop
  endfacet
  facet normal 0.659341 -0.751844 0
    outer loop
      vertex 16.9706 -16.9706 5
      vertex 14.6103 -19.0405 0
      vertex 16.9706 -16.9706 0
    endloop
  endfacet
  facet normal -0.980783 -0.195103 0
    outer loop
      vertex -23.1822 -6.21166 0
      vertex -23.7947 -3.13263 5
      vertex -23.7947 -3.13263 0
    endloop
  endfacet
  facet normal -0.980783 -0.195103 0
    outer loop
      vertex -23.7947 -3.13263 5
      vertex -23.1822 -6.21166 0
      vertex -23.1822 -6.21166 5
    endloop
  endfacet
  facet normal 0.980784 -0.195097 0
    outer loop
      vertex 9.02139 0.326315 10
      vertex 9.08519 0.647047 0
      vertex 9.08519 0.647047 10
    endloop
  endfacet
  facet normal 0.980784 -0.195097 0
    outer loop
      vertex 9.08519 0.647047 0
      vertex 9.02139 0.326315 10
      vertex 9.02139 0.326315 0
    endloop
  endfacet
  facet normal 0.44229 -0.896872 0
    outer loop
      vertex 10.25 2.16506 0
      vertex 10.5433 2.3097 10
      vertex 10.25 2.16506 10
    endloop
  endfacet
  facet normal 0.44229 -0.896872 0
    outer loop
      vertex 10.5433 2.3097 10
      vertex 10.25 2.16506 0
      vertex 10.5433 2.3097 0
    endloop
  endfacet
  facet normal 0.946935 -0.321424 0
    outer loop
      vertex 9.08519 0.647047 10
      vertex 9.1903 0.956708 0
      vertex 9.1903 0.956708 10
    endloop
  endfacet
  facet normal 0.946935 -0.321424 0
    outer loop
      vertex 9.1903 0.956708 0
      vertex 9.08519 0.647047 10
      vertex 9.08519 0.647047 0
    endloop
  endfacet
  facet normal 0.0654128 -0.997858 0
    outer loop
      vertex 11.1737 2.47861 0
      vertex 11.5 2.5 10
      vertex 11.1737 2.47861 10
    endloop
  endfacet
  facet normal 0.0654128 -0.997858 0
    outer loop
      vertex 11.5 2.5 10
      vertex 11.1737 2.47861 0
      vertex 11.5 2.5 0
    endloop
  endfacet
  facet normal 0.997858 0.0654098 0
    outer loop
      vertex 9.02139 -0.326315 10
      vertex 9 0 0
      vertex 9 0 10
    endloop
  endfacet
  facet normal 0.997858 0.0654098 0
    outer loop
      vertex 9 0 0
      vertex 9.02139 -0.326315 10
      vertex 9.02139 -0.326315 0
    endloop
  endfacet
  facet normal 0.831466 -0.555575 0
    outer loop
      vertex 9.33494 1.25 10
      vertex 9.51662 1.5219 0
      vertex 9.51662 1.5219 10
    endloop
  endfacet
  facet normal 0.831466 -0.555575 0
    outer loop
      vertex 9.51662 1.5219 0
      vertex 9.33494 1.25 10
      vertex 9.33494 1.25 0
    endloop
  endfacet
  facet normal 0.751858 -0.659325 0
    outer loop
      vertex 9.51662 1.5219 10
      vertex 9.73223 1.76777 0
      vertex 9.73223 1.76777 10
    endloop
  endfacet
  facet normal 0.751858 -0.659325 0
    outer loop
      vertex 9.73223 1.76777 0
      vertex 9.51662 1.5219 10
      vertex 9.51662 1.5219 0
    endloop
  endfacet
  facet normal 0.195116 -0.98078 0
    outer loop
      vertex 10.853 2.41481 0
      vertex 11.1737 2.47861 10
      vertex 10.853 2.41481 10
    endloop
  endfacet
  facet normal 0.195116 -0.98078 0
    outer loop
      vertex 11.1737 2.47861 10
      vertex 10.853 2.41481 0
      vertex 11.1737 2.47861 0
    endloop
  endfacet
  facet normal 0.321387 -0.946948 0
    outer loop
      vertex 10.5433 2.3097 0
      vertex 10.853 2.41481 10
      vertex 10.5433 2.3097 10
    endloop
  endfacet
  facet normal 0.321387 -0.946948 0
    outer loop
      vertex 10.853 2.41481 10
      vertex 10.5433 2.3097 0
      vertex 10.853 2.41481 0
    endloop
  endfacet
  facet normal 0.555575 -0.831466 0
    outer loop
      vertex 9.9781 1.98338 0
      vertex 10.25 2.16506 10
      vertex 9.9781 1.98338 10
    endloop
  endfacet
  facet normal 0.555575 -0.831466 0
    outer loop
      vertex 10.25 2.16506 10
      vertex 9.9781 1.98338 0
      vertex 10.25 2.16506 0
    endloop
  endfacet
  facet normal 0.659325 -0.751858 0
    outer loop
      vertex 9.73223 1.76777 0
      vertex 9.9781 1.98338 10
      vertex 9.73223 1.76777 10
    endloop
  endfacet
  facet normal 0.659325 -0.751858 0
    outer loop
      vertex 9.9781 1.98338 10
      vertex 9.73223 1.76777 0
      vertex 9.9781 1.98338 0
    endloop
  endfacet
  facet normal 0.980784 0.195097 0
    outer loop
      vertex 9.08519 -0.647047 10
      vertex 9.02139 -0.326315 0
      vertex 9.02139 -0.326315 10
    endloop
  endfacet
  facet normal 0.980784 0.195097 0
    outer loop
      vertex 9.02139 -0.326315 0
      vertex 9.08519 -0.647047 10
      vertex 9.08519 -0.647047 0
    endloop
  endfacet
  facet normal 0.946935 0.321424 0
    outer loop
      vertex 9.1903 -0.956708 10
      vertex 9.08519 -0.647047 0
      vertex 9.08519 -0.647047 10
    endloop
  endfacet
  facet normal 0.946935 0.321424 0
    outer loop
      vertex 9.08519 -0.647047 0
      vertex 9.1903 -0.956708 10
      vertex 9.1903 -0.956708 0
    endloop
  endfacet
  facet normal 0.997858 -0.0654098 0
    outer loop
      vertex 9 0 10
      vertex 9.02139 0.326315 0
      vertex 9.02139 0.326315 10
    endloop
  endfacet
  facet normal 0.997858 -0.0654098 0
    outer loop
      vertex 9.02139 0.326315 0
      vertex 9 0 10
      vertex 9 0 0
    endloop
  endfacet
  facet normal 0.896867 -0.442299 0
    outer loop
      vertex 9.1903 0.956708 10
      vertex 9.33494 1.25 0
      vertex 9.33494 1.25 10
    endloop
  endfacet
  facet normal 0.896867 -0.442299 0
    outer loop
      vertex 9.33494 1.25 0
      vertex 9.1903 0.956708 10
      vertex 9.1903 0.956708 0
    endloop
  endfacet
  facet normal 0.321387 0.946948 -0
    outer loop
      vertex 10.853 -2.41481 0
      vertex 10.5433 -2.3097 10
      vertex 10.853 -2.41481 10
    endloop
  endfacet
  facet normal 0.321387 0.946948 0
    outer loop
      vertex 10.5433 -2.3097 10
      vertex 10.853 -2.41481 0
      vertex 10.5433 -2.3097 0
    endloop
  endfacet
  facet normal 0.896867 0.442299 0
    outer loop
      vertex 9.33494 -1.25 10
      vertex 9.1903 -0.956708 0
      vertex 9.1903 -0.956708 10
    endloop
  endfacet
  facet normal 0.896867 0.442299 0
    outer loop
      vertex 9.1903 -0.956708 0
      vertex 9.33494 -1.25 10
      vertex 9.33494 -1.25 0
    endloop
  endfacet
  facet normal 0.659325 0.751858 -0
    outer loop
      vertex 9.9781 -1.98338 0
      vertex 9.73223 -1.76777 10
      vertex 9.9781 -1.98338 10
    endloop
  endfacet
  facet normal 0.659325 0.751858 0
    outer loop
      vertex 9.73223 -1.76777 10
      vertex 9.9781 -1.98338 0
      vertex 9.73223 -1.76777 0
    endloop
  endfacet
  facet normal 0.831466 0.555575 0
    outer loop
      vertex 9.51662 -1.5219 10
      vertex 9.33494 -1.25 0
      vertex 9.33494 -1.25 10
    endloop
  endfacet
  facet normal 0.831466 0.555575 0
    outer loop
      vertex 9.33494 -1.25 0
      vertex 9.51662 -1.5219 10
      vertex 9.51662 -1.5219 0
    endloop
  endfacet
  facet normal 0.195116 0.98078 -0
    outer loop
      vertex 11.1737 -2.47861 0
      vertex 10.853 -2.41481 10
      vertex 11.1737 -2.47861 10
    endloop
  endfacet
  facet normal 0.195116 0.98078 0
    outer loop
      vertex 10.853 -2.41481 10
      vertex 11.1737 -2.47861 0
      vertex 10.853 -2.41481 0
    endloop
  endfacet
  facet normal 0.555575 0.831466 -0
    outer loop
      vertex 10.25 -2.16506 0
      vertex 9.9781 -1.98338 10
      vertex 10.25 -2.16506 10
    endloop
  endfacet
  facet normal 0.555575 0.831466 0
    outer loop
      vertex 9.9781 -1.98338 10
      vertex 10.25 -2.16506 0
      vertex 9.9781 -1.98338 0
    endloop
  endfacet
  facet normal 0.751858 0.659325 0
    outer loop
      vertex 9.73223 -1.76777 10
      vertex 9.51662 -1.5219 0
      vertex 9.51662 -1.5219 10
    endloop
  endfacet
  facet normal 0.751858 0.659325 0
    outer loop
      vertex 9.51662 -1.5219 0
      vertex 9.73223 -1.76777 10
      vertex 9.73223 -1.76777 0
    endloop
  endfacet
  facet normal 0.0654128 0.997858 -0
    outer loop
      vertex 11.5 -2.5 0
      vertex 11.1737 -2.47861 10
      vertex 11.5 -2.5 10
    endloop
  endfacet
  facet normal 0.0654128 0.997858 0
    outer loop
      vertex 11.1737 -2.47861 10
      vertex 11.5 -2.5 0
      vertex 11.1737 -2.47861 0
    endloop
  endfacet
  facet normal 0.44229 0.896872 -0
    outer loop
      vertex 10.5433 -2.3097 0
      vertex 10.25 -2.16506 10
      vertex 10.5433 -2.3097 10
    endloop
  endfacet
  facet normal 0.44229 0.896872 0
    outer loop
      vertex 10.25 -2.16506 10
      vertex 10.5433 -2.3097 0
      vertex 10.25 -2.16506 0
    endloop
  endfacet
  facet normal 0 -1 0
    outer loop
      vertex 11.5 2.5 10
      vertex 13.7464 2.5 5
      vertex 13.7464 2.5 10
    endloop
  endfacet
  facet normal 0 -1 0
    outer loop
      vertex 11.5 2.5 0
      vertex 13.7464 2.5 5
      vertex 11.5 2.5 10
    endloop
  endfacet
  facet normal 0 -1 0
    outer loop
      vertex 23.8361 2.5 0
      vertex 13.7464 2.5 5
      vertex 11.5 2.5 0
    endloop
  endfacet
  facet normal 0 -1 0
    outer loop
      vertex 13.7464 2.5 5
      vertex 23.8361 2.5 0
      vertex 23.8361 2.5 5
    endloop
  endfacet
  facet normal 0 1 0
    outer loop
      vertex 23.8361 -2.5 5
      vertex 23.8361 -2.5 0
      vertex 13.7464 -2.5 5
    endloop
  endfacet
  facet normal 0 1 -0
    outer loop
      vertex 13.7464 -2.5 5
      vertex 11.5 -2.5 10
      vertex 13.7464 -2.5 10
    endloop
  endfacet
  facet normal 0 1 0
    outer loop
      vertex 13.7464 -2.5 5
      vertex 11.5 -2.5 0
      vertex 11.5 -2.5 10
    endloop
  endfacet
  facet normal 0 1 0
    outer loop
      vertex 11.5 -2.5 0
      vertex 13.7464 -2.5 5
      vertex 23.8361 -2.5 0
    endloop
  endfacet
endsolid OpenSCAD_Model
